<?xml version="1.0" ?><svg data-name="Layer 1" id="Layer_1" viewBox="0 0 60 60" xmlns="http://www.w3.org/2000/svg" xmlns:xlink="http://www.w3.org/1999/xlink"><defs><style>.cls-1{fill:none;clip-rule:evenodd;}.cls-2{clip-path:url(#clip-path);}.cls-3{fill:#a8a9ba;}</style><clipPath id="clip-path"><path class="cls-1" d="M29.3,16.13C30,5.49,39.36,4.48,39.36,4.48,39.94,15.41,29.3,16.13,29.3,16.13ZM42,31.87a10.28,10.28,0,0,0,7.16,9.77v0.11a30.24,30.24,0,0,1-7.82,11.51c-2.82,3-6.94.14-6.94,0.14-3.26-2.31-8.25-.07-8.25-0.07-3.83,2.68-6.58-.07-6.58-0.07-4.27-3.11-8-12-8-12-5.35-16.64,5.5-22.07,5.5-22.07,5.28-3.55,12.52,1.45,12.52,1.45,12.59-7.61,18.11,1.68,18.29,2A10.27,10.27,0,0,0,42,31.87Z"/></clipPath></defs><title/><g class="cls-2"><rect class="cls-3" height="60.13" width="49.11" x="5.09" y="-0.52"/></g></svg>