<svg xmlns="http://www.w3.org/2000/svg" width="16" height="16" fill="#98FB98"
  class="bi bi-pencil-square" viewBox="0 0 16 16">
  <path
    d="M 13.188963,3.8605969 V 11.8617 H 2.9018288 V 3.8605969 H 13.188963 M 13.760469,2.7175816 H 2.3303221 A 0.57150746,0.57150746 0 0 0 1.7588145,3.2890892 v 9.1441188 a 0.57150746,0.57150746 0 0 0 0.5715076,0.571509 H 13.760469 a 0.57150746,0.57150746 0 0 0 0.571509,-0.571509 V 3.2890892 A 0.57150746,0.57150746 0 0 0 13.760469,2.7175816 Z"
    id="path1181"
    style="stroke-width:0.285754" />
  <path
    d="M 4.6163518,5.0040472 A 0.57150746,0.57150746 0 0 0 4.0448442,5.5755549 v 4.5720591 a 0.57150746,0.57150746 0 0 0 1.1430136,0 V 5.5755549 A 0.57150746,0.57150746 0 0 0 4.6163518,5.0040472 Z"
    id="path1183"
    style="stroke-width:0.285754" />
  <path
    d="M 6.9023816,5.0040472 A 0.57150746,0.57150746 0 0 0 6.3308724,5.5755549 v 4.5720591 a 0.57150746,0.57150746 0 0 0 1.1430136,0 V 5.5755549 A 0.57150746,0.57150746 0 0 0 6.9023816,5.0040472 Z"
    id="path1185"
    style="stroke-width:0.285754" />
  <path
    d="M 9.1884096,5.0040472 A 0.57150746,0.57150746 0 0 0 8.6169004,5.5755549 v 4.5720591 a 0.57150746,0.57150746 0 0 0 1.1430136,0 V 5.5755549 A 0.57150746,0.57150746 0 0 0 9.1884096,5.0040472 Z"
    id="path1187"
    style="stroke-width:0.285754" />
  <path
    d="m 11.47444,5.0040472 a 0.57150746,0.57150746 0 0 0 -0.57151,0.5715077 v 4.5720591 a 0.57150746,0.57150746 0 0 0 1.143014,0 V 5.5755549 A 0.57150746,0.57150746 0 0 0 11.47444,5.0040472 Z"
    id="path1189"
    style="stroke-width:0.285754" />
</svg>