<svg xmlns="http://www.w3.org/2000/svg" width="16" height="16" fill="#d6d6d6"
  class="bi bi-pencil-square" viewBox="0 0 16 16">
  <path
     d="m 3.5362754,2.3710477 a 0.77769951,0.77769951 0 0 0 0,1.5553989 h 9.3323936 a 0.77769951,0.77769951 0 0 0 0,-1.5553989 z M 2.7585757,6.2595446 A 0.77769949,0.77769949 0 0 1 3.5362754,5.4818455 h 9.3323936 a 0.77769951,0.77769951 0 0 1 0,1.5553989 H 3.5362754 A 0.77769949,0.77769949 0 0 1 2.7585757,6.2595446 Z m 0.7776997,2.3330988 a 0.7776998,0.7776998 0 0 0 0,1.5553996 h 9.3323936 a 0.7776998,0.7776998 0 0 0 0,-1.5553996 z m 0,3.1107986 a 0.7776995,0.7776995 0 0 0 0,1.555399 h 4.666197 a 0.7776995,0.7776995 0 0 0 0,-1.555399 z"
     id="path1623"
     style="stroke-width:1.5554" />
</svg>