<svg xmlns="http://www.w3.org/2000/svg" width="16" height="16" fill="#d6d6d6"
  class="bi bi-pencil-square" viewBox="0 0 16 16">
  <path
    d="m 14.463707,2.7803779 a 0.42767585,0.42767585 0 0 1 0,0.6038784 L 13.571574,4.2772436 11.860871,2.5665401 12.753004,1.6735529 a 0.42767585,0.42767585 0 0 1 0.604733,0 l 1.10597,1.1059698 z M 12.966841,4.8811218 11.256137,3.1704184 5.4286267,8.9987849 A 0.42767585,0.42767585 0 0 0 5.3251291,9.1664338 L 4.636571,11.231253 a 0.21383793,0.21383793 0 0 0 0.2702912,0.27029 l 2.0648189,-0.688557 a 0.42767585,0.42767585 0 0 0 0.167649,-0.102642 L 12.966841,4.8819771 Z"
    id="path791"
    style="stroke-width:0.855352" />
  <path
    fill-rule="evenodd"
    d="m 2.0593963,12.668243 a 1.2830276,1.2830276 0 0 0 1.2830276,1.283029 H 12.751292 A 1.2830276,1.2830276 0 0 0 14.03432,12.668243 V 7.5361335 a 0.42767586,0.42767586 0 0 0 -0.855351,0 V 12.668243 A 0.42767585,0.42767585 0 0 1 12.751292,13.09592 H 3.3424239 A 0.42767585,0.42767585 0 0 1 2.914748,12.668243 V 3.2593749 A 0.42767585,0.42767585 0 0 1 3.3424239,2.8316991 h 5.559786 a 0.42767585,0.42767585 0 0 0 0,-0.8553517 H 3.3424239 A 1.2830276,1.2830276 0 0 0 2.0593963,3.2593749 Z"
    id="path793"
    style="stroke-width:0.855352" />
</svg>