<svg xmlns="http://www.w3.org/2000/svg" width="16" height="16" fill="#d6d6d6" class="bi bi-terminal"
  viewBox="0 0 16 16">
  <path
    d="M 6.4450148,8.7877273 A 0.39060717,0.39060717 0 0 1 6.8356219,8.3971203 H 9.179265 a 0.39060717,0.39060717 0 0 1 0,0.7812143 H 6.8356219 A 0.39060717,0.39060717 0 0 1 6.4450148,8.7877273 Z M 4.7685287,4.995713 A 0.39110059,0.39110059 0 1 0 4.2154291,5.5488126 L 5.502089,6.8346915 4.2154291,8.1205704 A 0.39110059,0.39110059 0 1 0 4.7685287,8.67367 L 6.3309574,7.1112413 a 0.39060717,0.39060717 0 0 0 0,-0.5530997 z"
    id="path334"
    style="stroke-width:0.781214" />
  <path
    d="M 3.3201574,2.5380126 A 1.5624287,1.5624287 0 0 0 1.7577286,4.1004413 v 7.8121437 a 1.5624287,1.5624287 0 0 0 1.5624288,1.562428 H 12.69473 a 1.5624287,1.5624287 0 0 0 1.562428,-1.562428 V 4.1004413 A 1.5624287,1.5624287 0 0 0 12.69473,2.5380126 Z M 12.69473,3.3192269 a 0.78121435,0.78121435 0 0 1 0.781213,0.7812144 V 11.912585 A 0.78121435,0.78121435 0 0 1 12.69473,12.693799 H 3.3201574 A 0.78121435,0.78121435 0 0 1 2.538943,11.912585 V 4.1004413 A 0.78121435,0.78121435 0 0 1 3.3201574,3.3192269 Z"
    id="path336"
    style="stroke-width:0.781214" />
</svg>