<svg xmlns="http://www.w3.org/2000/svg" width="16" height="16" fill="currentColor"
  class="bi bi-boxes" viewBox="0 0 16 16">
  <path
    fill="#d6d6d6"
    d="m 7.8071743,1.8311315 a 0.38876156,0.38876156 0 0 1 0.3856514,0 l 2.9157113,1.6662321 a 0.38876156,0.38876156 0 0 1 0.195936,0.337445 v 3.1062049 l 2.719776,1.5550463 a 0.38876156,0.38876156 0 0 1 0.195936,0.3358899 v 3.3324643 a 0.38876156,0.38876156 0 0 1 -0.195936,0.337445 l -2.915712,1.666232 a 0.38876156,0.38876156 0 0 1 -0.385651,0 L 8,12.613045 5.277114,14.168868 a 0.38876156,0.38876156 0 0 1 -0.3856515,0 L 1.9757508,12.502636 A 0.38876156,0.38876156 0 0 1 1.779815,12.165191 V 8.8327273 A 0.38876156,0.38876156 0 0 1 1.9757508,8.4952822 L 4.6955267,6.9410135 V 3.8348086 A 0.38876156,0.38876156 0 0 1 4.8914625,3.4973636 Z M 5.0842883,7.6143485 2.9523199,8.8327273 5.0842883,10.051106 7.2162567,8.8327273 Z M 7.6112384,9.5029522 5.4730498,10.724441 v 2.436758 L 7.6112384,11.93971 Z M 8.3887616,11.93971 10.52695,13.161199 V 10.724441 L 8.3887616,9.5029522 Z M 8.7837433,8.8327273 10.915712,10.051106 13.04768,8.8327273 10.915712,7.6143485 Z M 10.52695,6.9410135 V 4.504256 L 8.3887616,5.7265224 V 8.1632799 Z M 7.6112384,8.1632799 V 5.7265224 L 5.4730498,4.504256 V 6.9410135 Z M 5.8680316,3.8348086 8,5.0531874 10.131968,3.8348086 8,2.6164299 Z m 7.5746304,5.6681436 -2.138189,1.2214888 v 2.436758 L 13.442662,11.93971 Z M 4.6955267,13.161199 V 10.724441 L 2.5573381,9.5029522 V 11.93971 Z"
    id="path2561"
    style="stroke-width:0.777523" />
</svg>