<?xml version="1.0" encoding="UTF-8" standalone="no"?>
<!-- Created with Inkscape (http://www.inkscape.org/) by Marsupilami -->
<svg
   xmlns:svg="http://www.w3.org/2000/svg"
   xmlns="http://www.w3.org/2000/svg"
   version="1.0"
   width="262.73251"
   height="55.552502"
   id="svg3248">
  <defs
     id="defs3250" />
  <g
     transform="translate(-34.348036,-244.58593)"
     id="layer1">
    <path
       d="M 4.53125,0 C 2.04,0 4.4623051e-17,2.0412501 0,4.53125 L 0,51.03125 C 0,53.5225 2.0400001,55.562498 4.53125,55.5625 C 7.02125,55.5625 9.0625004,53.522501 9.0625,51.03125 L 9.0625,4.53125 C 9.0625,2.04125 7.0212501,4.4650427e-17 4.53125,0 z M 22.625,0 C 20.13375,0 18.093749,2.0412501 18.09375,4.53125 L 18.09375,51.03125 C 18.09375,53.5225 20.13375,55.562498 22.625,55.5625 C 25.115,55.5625 27.15625,53.522501 27.15625,51.03125 L 27.15625,4.53125 C 27.15625,2.04125 25.115,4.4650427e-17 22.625,0 z "
       transform="translate(34.348036,244.58593)"
       style="fill:#ef2e31;fill-opacity:1;fill-rule:evenodd;stroke:none"
       id="path2438" />
    <path
       d="M 214.1875,7.375 L 214.1875,47.6875 L 222.28125,47.6875 L 222.28125,7.375 L 214.1875,7.375 z M 160.1875,7.5 L 160.1875,47.8125 L 168.28125,47.8125 L 168.28125,7.5 L 160.1875,7.5 z M 171.28125,7.5 L 171.28125,47.8125 L 179.375,47.8125 L 179.375,7.5 L 171.28125,7.5 z M 47.25,7.625 C 45.238749,7.6387501 43.435,8.14 42.03125,9.65625 C 40.907502,11.065 40.75625,12.51125 40.75,14.25 L 40.75,47.9375 L 49.65625,47.9375 L 49.65625,34.21875 L 67,34.21875 C 69.460004,34.168752 71.82875,33.5375 73.71875,31.90625 C 75.794998,29.89375 76.56,27.21875 76.90625,24.375 C 77.155003,22.002499 77.16875,19.55875 76.90625,17.1875 C 76.667501,15.33125 76.23375,13.58 75.3125,11.9375 C 73.232503,8.5500003 69.8275,7.65625 66.0625,7.625 L 65.65625,7.625 L 47.25,7.625 z M 257.8125,12.34375 C 257.4675,12.37875 257.2275,12.61875 257.21875,12.96875 L 257.21875,16.8125 L 258.15625,16.8125 L 258.15625,13.40625 C 258.16749,13.295 258.1725,13.37125 258.1875,13.40625 L 258.1875,13.4375 L 259.3125,16.3125 C 259.43751,16.668751 259.62625,16.88125 260.03125,16.875 C 260.40874,16.856249 260.5275,16.63 260.65625,16.3125 L 261.75,13.4375 C 261.765,13.3925 261.81,13.27875 261.8125,13.40625 L 261.8125,16.8125 L 262.71875,16.8125 L 262.71875,12.96875 C 262.69874,12.5525 262.45375,12.37875 262.0625,12.34375 C 261.60376,12.33125 261.32375,12.4975 261.15625,12.9375 L 260.03125,15.8125 C 259.96749,15.94875 259.96875,15.9525 259.90625,15.8125 L 258.8125,12.9375 C 258.77374,12.84375 258.70875,12.7425 258.65625,12.65625 C 258.45249,12.36 258.1475,12.31375 257.8125,12.34375 z M 252.71875,12.375 L 252.71875,13.15625 L 254.40625,13.15625 L 254.40625,16.8125 L 255.34375,16.8125 L 255.34375,13.15625 L 257.03125,13.15625 L 257.03125,12.375 L 252.71875,12.375 z M 51.0625,15.03125 L 62.84375,15.03125 C 65.603748,15.05625 67.25875,15.7025 67.78125,18.53125 C 68.041252,20.331249 68.05625,22.32125 67.625,24.09375 C 66.897503,26.572501 64.9125,26.8125 62.71875,26.8125 L 49.65625,26.8125 L 49.65625,16.5625 C 49.6575,16.133749 49.64125,15.65625 49.9375,15.3125 C 50.28,15.02 50.63375,15.03125 51.0625,15.03125 z M 196.84375,16.78125 C 192.65376,16.812501 188.21625,17.18875 185.03125,20.3125 C 182.02,23.544999 181.89875,27.94625 181.875,32.125 C 181.87126,34.13875 181.89625,36.12375 182.15625,38.125 C 182.48876,40.452499 183.1375,42.5825 184.625,44.4375 C 186.2825,46.317499 188.26875,47.23375 190.71875,47.625 C 191.72374,47.75625 192.73625,47.8125 193.75,47.8125 L 210.8125,47.8125 L 210.8125,41.21875 L 195.6875,41.21875 L 194.8125,41.1875 C 192.94001,41.05625 191.49375,40.64 190.6875,38.8125 C 190.33125,37.688751 190.2675,36.4875 190.21875,35.3125 L 206.40625,35.3125 C 208.6675,35.2775 210.415,34.2975 211.28125,32.15625 C 211.72624,30.852501 211.8075,29.39875 211.75,28.03125 C 211.61,24.70375 210.74625,21.70875 208.1875,19.5 C 204.9475,16.93 200.80375,16.78125 196.84375,16.78125 z M 122.125,16.90625 C 118.3775,16.906249 115.065,17.52125 112.3125,20.09375 C 110.05125,22.568749 109.535,25.49375 109.5,28.75 L 109.5,47.8125 L 117.5625,47.8125 L 117.5625,30.46875 C 117.5775,28.8175 117.70625,27.185 118.53125,25.71875 C 119.74625,23.88375 121.71375,23.5125 123.78125,23.5 L 128.875,23.5 L 128.875,16.90625 L 122.125,16.90625 z M 130.71875,16.90625 L 130.71875,23.5 L 145.9375,23.5 C 146.85374,23.50875 147.66875,23.6525 148.34375,24.3125 C 148.96751,25.029999 149.12625,25.8025 149.125,26.71875 L 149.125,27.9375 L 137.21875,27.9375 C 135.51126,27.94875 134.01875,28.2 132.5,29.03125 C 129.31625,31.031249 128.5925,34.05625 128.5625,37.59375 C 128.58501,41.151252 129.14625,44.9825 132.5,46.9375 C 134.03,47.687499 135.5425,47.8125 137.21875,47.8125 L 151.21875,47.8125 C 155.12625,47.786248 157.20375,45.96875 157.21875,42.09375 L 157.21875,26.875 C 157.18,24.70125 156.85,22.6475 155.8125,20.71875 C 154.16,18.0075 151.2525,16.97625 148.1875,16.90625 L 130.71875,16.90625 z M 234,16.90625 C 229.54999,16.923749 225.97625,18.2275 224.96875,22.96875 C 224.46,25.887499 224.8375,29.0625 226.875,31.34375 C 228.60624,33.0625 230.87875,33.8625 233.1875,34.5 L 238.8125,36.0625 C 240.21751,36.448749 241.64125,36.8125 243,37.34375 C 243.4025,37.513751 243.87,37.72625 244.09375,38.125 C 244.41875,38.701248 244.49375,39.81125 244.15625,40.40625 C 243.81875,40.999999 243.1525,41.2 242.4375,41.21875 L 225.15625,41.21875 L 225.15625,47.8125 L 244.71875,47.8125 C 249.8725,47.779998 252.68125,44.68375 252.65625,39.5625 C 252.64125,36.72125 251.7125,34.13875 249.25,32.46875 C 247.31374,31.308748 245.215,30.6875 243.0625,30.0625 L 236.71875,28.3125 C 235.6125,27.995 234.28125,27.65 233.34375,26.96875 C 232.78625,26.4575 232.72875,26.08125 232.71875,25.34375 C 232.74,23.967499 233.3175,23.5 235,23.5 L 251.34375,23.5 L 251.34375,16.90625 L 234,16.90625 z M 80,17.03125 L 80,23.625 L 95.25,23.625 C 96.165,23.63375 96.95,23.7775 97.625,24.4375 C 98.248748,25.154999 98.4075,25.9275 98.40625,26.84375 L 98.40625,28.0625 L 86.5,28.0625 C 84.792497,28.07375 83.30125,28.325 81.78125,29.15625 C 78.59875,31.157499 77.875,34.1825 77.84375,37.71875 C 77.866248,41.277499 78.43,45.10875 81.78125,47.0625 C 83.312497,47.8125 84.82375,47.9375 86.5,47.9375 L 100.5,47.9375 C 104.41,47.908751 106.48625,46.09375 106.5,42.21875 L 106.5,27 C 106.46125,24.82625 106.1325,22.77375 105.09375,20.84375 C 103.44125,18.1325 100.5325,17.10125 97.46875,17.03125 L 80,17.03125 z M 196.84375,23.375 C 199.83125,23.391249 203.07,23.9875 203.40625,27.53125 C 203.42749,28.212501 203.4975,28.64625 202.75,28.71875 L 190.21875,28.71875 C 190.26,27.3675 190.45,26 191.4375,24.96875 C 192.6625,23.690001 194.6825,23.375 196.84375,23.375 z M 139.15625,34.53125 L 149.125,34.53125 L 149.125,40.46875 C 149.13124,41.218751 148.66875,41.21875 148.0625,41.21875 L 139.0625,41.21875 C 137.1525,41.096251 136.8925,39.3975 136.875,37.875 C 136.90374,36.136249 137.04625,34.58 139.15625,34.53125 z M 88.46875,34.65625 L 98.40625,34.65625 L 98.40625,40.59375 C 98.412499,41.343751 97.95,41.34375 97.34375,41.34375 L 88.375,41.34375 C 86.465003,41.223748 86.17375,39.5225 86.15625,38 C 86.183749,36.261249 86.3575,34.705 88.46875,34.65625 z "
       transform="translate(34.348036,244.58593)"
       style="fill:#000000;fill-opacity:1;fill-rule:evenodd;stroke:none"
       id="path2450" />
  </g>
</svg>
