<?xml version="1.0" encoding="UTF-8" standalone="no"?>
<!-- Created with Inkscape (http://www.inkscape.org/) by Marsupilami -->

<svg
   version="1.0"
   width="48"
   height="48"
   id="svg3248"
   xmlns="http://www.w3.org/2000/svg"
   xmlns:svg="http://www.w3.org/2000/svg">
  <defs
     id="defs3250" />
  <g
     transform="matrix(0.78898845,0,0,0.78898845,-12.533505,-191.31529)"
     id="layer1">
    <path
       d="m 37.889276,245.54058 c -2.49125,0 -4.53125,2.04125 -4.53125,4.53125 v 46.5 c 0,2.49125 2.04,4.53125 4.53125,4.53125 2.49,0 4.53125,-2.04 4.53125,-4.53125 v -46.5 c 0,-2.49 -2.04125,-4.53125 -4.53125,-4.53125 z m 18.09375,0 c -2.49125,0 -4.531251,2.04125 -4.53125,4.53125 v 46.5 c 0,2.49125 2.04,4.53125 4.53125,4.53125 2.49,0 4.53125,-2.04 4.53125,-4.53125 v -46.5 c 0,-2.49 -2.04125,-4.53125 -4.53125,-4.53125 z"
       style="fill:#d6d6d6;fill-opacity:1;fill-rule:evenodd;stroke:none"
       id="path2438-9" />
  </g>
</svg>
