<svg
  viewBox="0 0 576 512"
  xmlns="http://www.w3.org/2000/svg">

  <path
    fill="#000000"
    d="m 90.4375,38.039062 c -39.072552,0 -70.839844,31.767304 -70.839844,70.839848 v 247.93945 c 0,39.07255 31.767292,70.83984 70.839844,70.83984 h 359.9707 v -22.36132 h -86.11718 c -7.15843,0 -12.91797,-5.7576 -12.91797,-12.91602 0,-7.15842 5.75954,-12.91797 12.91797,-12.91797 h 86.11718 v -27.0918 c -4.2654,2.81948 -9.30232,4.44727 -14.62695,4.44727 H 276.39258 223.26172 134.71289 c -10.18321,0 -19.48072,-5.8657 -23.9082,-15.05274 -4.42749,-9.18702 -3.21087,-20.14576 3.20898,-28.11523 l 70.83985,-88.54883 c 5.09161,-6.30916 12.61905,-9.96289 20.69921,-9.96289 8.08016,0 15.71634,3.65373 20.69727,9.96289 l 19.15039,23.90821 61.98438,-92.97852 c 4.98092,-7.30534 13.28174,-11.73242 22.13671,-11.73242 8.85497,0 17.15776,4.42772 22.13868,11.84375 L 450.4082,304.26562 V 293.3457 c 0,-7.15843 5.75955,-12.91601 12.91797,-12.91601 7.15842,0 12.91602,5.75758 12.91602,12.91601 v 86.11719 h 70.8789 c 2.41013,-7.12046 3.77539,-14.7187 3.77539,-22.64453 V 108.87891 c 0,-39.072544 -31.76729,-70.839848 -70.83984,-70.839848 z m 70.83984,70.839848 c 19.56185,0 35.41993,15.85806 35.41993,35.41992 0,19.56186 -15.85808,35.41992 -35.41993,35.41992 -19.56186,0 -35.41992,-15.85806 -35.41992,-35.41992 0,-19.56186 15.85806,-35.41992 35.41992,-35.41992 z m 314.96485,296.41797 v 22.36132 h 3.81445 c 20.30973,0 38.59485,-8.63061 51.52148,-22.36132 z M 448.7562,304.85226 v 48.10937 c 3.62719,-2.397 6.70323,-5.64332 8.83984,-9.61132 4.64886,-8.6336 4.09555,-19.03962 -1.32812,-27.23047 z m 96.75781,75.19922 c -3.28966,9.72752 -8.63164,18.50995 -15.51758,25.83398 h 30.71094 c 7.15843,0 12.91797,-5.75759 12.91797,-12.91601 0,-7.15843 -5.75954,-12.91797 -12.91797,-12.91797 z m -96.75781,48.19531 v 63.75586 c 0,7.15842 5.75954,12.91797 12.91796,12.91797 7.15843,0 12.91797,-5.75955 12.91797,-12.91797 v -63.75586 z" />
</svg>