<?xml version="1.0" encoding="UTF-8"?>
<svg width="16px" height="16px" viewBox="0 0 16 16" version="1.1" xmlns="http://www.w3.org/2000/svg"
  xmlns:xlink="http://www.w3.org/1999/xlink">
  <title>add_snapshot</title>
  <g id="add_snapshot" stroke="none" stroke-width="1" fill="none" fill-rule="evenodd">
    <path
      d="M12,3 C13.1045695,3 14,3.8954305 14,5 L14,12 C14,13.1045695 13.1045695,14 12,14 L3,14 C1.8954305,14 1,13.1045695 1,12 L1,5 C1,3.8954305 1.8954305,3 3,3 L12,3 Z M12,4 L3,4 C2.44771525,4 2,4.44771525 2,5 L2,12 C2,12.5522847 2.44771525,13 3,13 L12,13 C12.5522847,13 13,12.5522847 13,12 L13,5 C13,4.44771525 12.5522847,4 12,4 Z M7.52308335,5.89309834 C7.79922573,5.89309834 8.02308335,6.11695596 8.02308335,6.39309834 L8.0226859,8.00309834 L9.64564752,8.00323938 C9.92178989,8.00323938 10.1456475,8.227097 10.1456475,8.50323938 C10.1456475,8.77938175 9.92178989,9.00323938 9.64564752,9.00323938 L8.0226859,9.00309834 L8.02308335,10.5643323 C8.02308335,10.8404747 7.79922573,11.0643323 7.52308335,11.0643323 C7.24694098,11.0643323 7.02308335,10.8404747 7.02308335,10.5643323 L7.0226859,9.00309834 L5.4466859,9.00323938 C5.17054352,9.00323938 4.9466859,8.77938175 4.9466859,8.50323938 C4.9466859,8.227097 5.17054352,8.00323938 5.4466859,8.00323938 L7.0226859,8.00309834 L7.02308335,6.39309834 C7.02308335,6.11695596 7.24694098,5.89309834 7.52308335,5.89309834 Z"
      id="Combined-Shape" fill="#000000"></path>
  </g>
</svg>