<?xml version="1.0" encoding="UTF-8"?>
<svg width="16px" height="16px" viewBox="0 0 16 16" version="1.1" xmlns="http://www.w3.org/2000/svg"
  xmlns:xlink="http://www.w3.org/1999/xlink">
  <title>arrow_down</title>
  <g id="arrow_down" stroke="none" stroke-width="1" fill="none" fill-rule="evenodd">
    <path
      d="M8.03710938,10.9848633 C8.10514323,10.9848633 8.17049154,10.9714355 8.2331543,10.9445801 C8.29581706,10.9177246 8.35042318,10.8792318 8.39697266,10.8291016 L12.5541992,6.56982422 C12.6508789,6.47314453 12.6992188,6.3585612 12.6992188,6.22607422 C12.6992188,6.13297526 12.6777344,6.04882812 12.6347656,5.97363281 C12.5917969,5.8984375 12.53361,5.83935547 12.4602051,5.79638672 C12.3868001,5.75341797 12.3035482,5.73193359 12.2104492,5.73193359 C12.0779622,5.73193359 11.9615885,5.77848307 11.8613281,5.87158203 L7.74707031,10.0771484 L8.32177734,10.0771484 L4.20751953,5.87158203 C4.11083984,5.77848307 3.99446615,5.73193359 3.85839844,5.73193359 C3.76529948,5.73193359 3.68204753,5.75341797 3.60864258,5.79638672 C3.53523763,5.83935547 3.47705078,5.8984375 3.43408203,5.97363281 C3.39111328,6.04882812 3.36962891,6.13297526 3.36962891,6.22607422 C3.36962891,6.29410807 3.38216146,6.35766602 3.40722656,6.41674805 C3.43229167,6.47583008 3.46809896,6.52864583 3.51464844,6.57519531 L7.671875,10.8291016 C7.77929688,10.9329427 7.90104167,10.9848633 8.03710938,10.9848633 Z"
      id="Path" fill="#000000" fill-rule="nonzero"></path>
  </g>
</svg>