<svg fill="#000000" height="800px" width="800px" version="1.1" id="Layer_1"
  xmlns="http://www.w3.org/2000/svg" xmlns:xlink="http://www.w3.org/1999/xlink"
  viewBox="0 0 512 512" xml:space="preserve">
<g>
	<g>
		<path  d="M443.382,380.784h-35.145V118.352h17.148c7.104,0,12.864-5.759,12.864-12.864V59.176c0-7.105-5.761-12.864-12.864-12.864
			h-23.987L366.661,4.629C364.217,1.695,360.597,0,356.779,0H155.221c-3.818,0-7.438,1.695-9.884,4.629l-34.735,41.683H86.615
			c-7.104,0-12.864,5.759-12.864,12.864v46.312c0,7.105,5.761,12.864,12.864,12.864h17.148v262.432H68.618
			c-7.104,0-12.864,5.759-12.864,12.864v105.487c0,7.105,5.761,12.864,12.864,12.864h48.01h278.744h48.01
			c7.104,0,12.864-5.759,12.864-12.864V393.648C456.246,386.543,450.487,380.784,443.382,380.784z M103.764,486.271H81.483v-79.759
			h22.281V486.271z M161.247,25.729h189.508l17.152,20.583H144.095L161.247,25.729z M382.508,393.648v92.623H129.492v-92.623
			V118.352h253.016V393.648z M99.48,92.623V72.04h17.148h278.744h17.148v20.583H99.48z M430.517,486.271h-22.281v-79.759h22.281
			V486.271z"/>
	</g>
</g>
<g>
	<g>
		<path d="M256,207.544c-7.104,0-12.864,5.759-12.864,12.864v212.798c0,7.105,5.761,12.864,12.864,12.864
			s12.864-5.759,12.864-12.864V220.408C268.864,213.303,263.104,207.544,256,207.544z"/>
	</g>
</g>
<g>
	<g>
		<path d="M256,158.553c-7.104,0-12.864,5.759-12.864,12.864v6.593c0,7.105,5.761,12.864,12.864,12.864s12.864-5.759,12.864-12.864
			v-6.593C268.864,164.312,263.104,158.553,256,158.553z"/>
	</g>
</g>
<g>
	<g>
		<path d="M321.608,158.553c-7.104,0-12.864,5.759-12.864,12.864v261.789c0,7.105,5.761,12.864,12.864,12.864
			s12.864-5.759,12.864-12.864V171.417C334.472,164.312,328.712,158.553,321.608,158.553z"/>
	</g>
</g>
<g>
	<g>
		<path d="M190.392,158.553c-7.104,0-12.864,5.759-12.864,12.864v261.789c0,7.105,5.761,12.864,12.864,12.864
			s12.864-5.759,12.864-12.864V171.417C203.256,164.312,197.496,158.553,190.392,158.553z"/>
	</g>
</g>
</svg>