<?xml version="1.0" encoding="UTF-8"?>
<svg width="16px" height="16px" viewBox="0 0 16 16" version="1.1" xmlns="http://www.w3.org/2000/svg"
  xmlns:xlink="http://www.w3.org/1999/xlink">
  <title>catalog_manifests</title>
  <g id="catalog_manifests" stroke="none" stroke-width="1" fill="none" fill-rule="evenodd">
    <path
      d="M14.0083644,0.939560224 L14.0083644,13.8893447 L13.6610723,14.0007356 L7.65153252,15.9282414 L7.4982496,15.9774055 L7.34507468,15.9279058 L1.38047408,14.0004001 L1.03422406,13.8885067 L1.03422406,0.942580109 L1.60961539,1.03034254 C4.43406394,1.4611458 6.3457687,2.00700515 7.38381906,2.71598132 L7.50622406,2.80462601 L7.6373061,2.7149727 C8.64753858,2.05347306 10.4414399,1.52507801 13.0519567,1.09196389 L13.4304464,1.03073453 L14.0083644,0.939560224 Z M13.0082241,2.11262601 L12.8871089,2.1344342 C10.2880887,2.58738735 8.62348941,3.13786595 7.93659592,3.73617771 L7.85254932,3.81448555 L7.66722406,3.99956022 L8,4 L7.99922406,14.7665602 L13.0082241,13.158626 L13.0082241,2.11262601 Z M2.03422406,2.11062601 L2.03422406,13.160626 L6.99922406,14.7645602 L7,4 L7.31822406,3.99956022 L7.13402945,3.80304568 C6.53919545,3.16845709 4.8632229,2.59037382 2.15686043,2.13119177 L2.03422406,2.11062601 Z"
      id="Combined-Shape" fill="#000000" fill-rule="nonzero"></path>
  </g>
</svg>