<?xml version="1.0" encoding="UTF-8"?>
<svg width="16px" height="16px" viewBox="0 0 16 16" version="1.1" xmlns="http://www.w3.org/2000/svg"
  xmlns:xlink="http://www.w3.org/1999/xlink">
  <title>icon/icon_cache-each</title>
  <g id="icon/icon_cache-each" stroke="none" stroke-width="1" fill="none" fill-rule="evenodd">
    <path
      d="M10.4424373,1 L12.5219837,3.43929079 C12.8305251,3.80120737 13,4.26122834 13,4.73681369 L13.0010919,6.25644465 C12.6825716,6.14377095 12.347583,6.0659432 12.0007074,6.02754265 L12,4.73681369 C12,4.49902102 11.9152626,4.26901053 11.7609918,4.08805224 L9.982,2 L4,2 C3.44771525,2 3,2.44771525 3,3 L3,12 C3,12.5522847 3.44771525,13 4,13 L7.75812038,13.0005166 C8.01105416,13.3782673 8.31967202,13.7155851 8.67222963,14.0007255 L4,14 C2.8954305,14 2,13.1045695 2,12 L2,3 C2,1.8954305 2.8954305,1 4,1 L10.4424373,1 Z M11.5,7 C13.4329966,7 15,8.56700338 15,10.5 C15,12.4329966 13.4329966,14 11.5,14 C9.56700338,14 8,12.4329966 8,10.5 C8,8.56700338 9.56700338,7 11.5,7 Z M11.5,8 C10.1192881,8 9,9.11928813 9,10.5 C9,11.8807119 10.1192881,13 11.5,13 C12.8807119,13 14,11.8807119 14,10.5 C14,9.11928813 12.8807119,8 11.5,8 Z M12.0007074,9 L12,10 L13.0012783,10 L13.0012783,11 L11,11 L11,9 L12.0007074,9 Z"
      id="Combined-Shape" fill="#000000" fill-rule="nonzero"></path>
  </g>
</svg>