<svg height="16" viewBox="0 0 16 16" width="16" xmlns="http://www.w3.org/2000/svg">
  <path
    d="m11.5 7c1.9329966 0 3.5 1.56700338 3.5 3.5 0 1.9329966-1.5670034 3.5-3.5 3.5-1.93299662 0-3.5-1.5670034-3.5-3.5 0-1.93299662 1.56700338-3.5 3.5-3.5zm0 1c-1.3807119 0-2.5 1.11928813-2.5 2.5 0 1.3807119 1.1192881 2.5 2.5 2.5s2.5-1.1192881 2.5-2.5c0-1.38071187-1.1192881-2.5-2.5-2.5zm-.5-6c.5522847 0 1 .44771525 1 1v2c0 .18260372-.0489435.35377607-.1344277.5011143.085702.14587214.1344277.31668867.1344277.4988857l.0007074.02754265c-.164395-.01819921-.3314601-.02754265-.5007074-.02754265-.1689026 0-.3356318.00930542-.499703.02743156l-.000297-.02743156h-8v2l4.75744.00049981c-.20633893.30834332-.37558375.64360907-.50135085.99941364l-4.25608915.00008655v2l4.02754265.0007074c.03840055.3468756.1162283.6818642.228902 1.0003845l-4.25644465-.0010919c-.55228475 0-1-.4477153-1-1v-2c0-.18219703.04872573-.35301356.13385712-.5001295-.08491362-.14609443-.13385712-.31726678-.13385712-.4998705v-2c0-.18219703.04872573-.35301356.13385712-.5001295-.08491362-.14609443-.13385712-.31726678-.13385712-.4998705v-2c0-.55228475.44771525-1 1-1zm1.0007074 7-.0007074 1h1.0012783v1h-2.0012783v-2zm-1.0007074-6h-8v2h8z"
    fill="#000000" />
</svg>