<?xml version="1.0" encoding="UTF-8"?>
<svg width="16px" height="16px" viewBox="0 0 16 16" version="1.1" xmlns="http://www.w3.org/2000/svg"
  xmlns:xlink="http://www.w3.org/1999/xlink">
  <title>catalog_manifest_version_revoke</title>
  <g id="catalog_manifest_version_revoke" stroke="none" stroke-width="1" fill="none"
    fill-rule="evenodd">
    <path
      d="M8,2 C11.3137085,2 14,4.6862915 14,8 C14,9.47139954 13.4703539,10.8190936 12.5913132,11.8628307 L12.6345189,11.9066914 L11.9302132,12.6165882 L11.8858196,12.5718535 C10.8389186,13.4625313 9.48222558,14 8,14 C4.6862915,14 2,11.3137085 2,8 C2,6.53471952 2.52525,5.19211776 3.39773801,4.15020669 L3.36000654,4.11387771 L4.06431234,3.40398099 L4.10123046,3.43919545 C5.14988186,2.54191547 6.51165536,2 8,2 Z M3,8 C3,10.7614237 5.23857625,13 8,13 C9.20436215,13 10.3092701,12.574186 11.1723859,11.8648958 L4.11068395,4.85756444 C3.41605172,5.71622139 3,6.80952365 3,8 Z M8,3 C6.78915781,3 5.67884291,3.43040853 4.81370321,4.14657771 L11.8779482,11.1564363 C12.5794066,10.2956779 13,9.19695639 13,8 C13,5.23857625 10.7614237,3 8,3 Z"
      id="Combined-Shape" fill="#000000" fill-rule="nonzero"></path>
  </g>
</svg>