<?xml version="1.0" encoding="iso-8859-1"?>
<!-- Uploaded to: SVG Repo, www.svgrepo.com, Generator: SVG Repo Mixer Tools -->
<svg fill="#000000" height="800px" width="800px" version="1.1" id="Capa_1"
  xmlns="http://www.w3.org/2000/svg" xmlns:xlink="http://www.w3.org/1999/xlink"
  viewBox="0 0 612 612" xml:space="preserve">
<g>
	<path d="M558.229,302.443c-20.91-12.481-46.115-3.551-71.634,2.044c-47.547,10.497-109.022-11.026-70.984-67
		c21.354-31.427,84.076-61.424,100.467-97.909c17.637-39.261,14.921-87.751-44.384-122.336c-39.787-23.2-97.3-7.966-129.732,34.711
		c-32.436,42.675-22.559,106.221-34.855,159.205c-18.698,80.853-78.7,26.873-79.591-31.903
		C226.431,102.63,247.132-5.97,117.797,0.256c-10.021,0.492-19.364,1.72-28.004,3.599C-24.748,29.01-12.653,170.46,80.716,218.825
		c67.73,35.059,152.904,48.893,156.975,87.588c-0.963,40.642-128.884-57.155-179.867,35.342
		c-39.252,71.262,10.223,188.705,87.366,133.606c14.325-10.23,29.761-26.014,46.47-47.757
		c63.542-74.387,105.369-30.36,36.812,28.676c-53.799,46.326-16.58,114.472,21.289,134.624
		c48.082,25.631,96.754,33.75,148.681-9.406c40.294-33.489,32.852-80.033,11.859-103.009
		c-59.308-64.914-70.26-137.013-0.994-108.548c46.035,18.925,83.343,90.728,140.047,89.443
		C616.569,440.351,626.182,338.597,558.229,302.443z M74.9,38.447C12.566,104.42,62.722,157.025,113.965,199.35
		C8.98,136.839,11.089,79.382,74.9,38.447z M92.162,461.094c-20.425-9.04-24.101-28.754-22.409-51.924
		c23.109,64.546,68.274,42.294,93.771,14.799C150.369,441.06,126.266,476.199,92.162,461.094z"/>
</g>
</svg>