<?xml version="1.0" encoding="UTF-8"?>
<svg width="16px" height="16px" viewBox="0 0 16 16" version="1.1" xmlns="http://www.w3.org/2000/svg"
  xmlns:xlink="http://www.w3.org/1999/xlink">
  <title>icon/icon_cache-items</title>
  <g id="icon/icon_cache-items" stroke="none" stroke-width="1" fill="none" fill-rule="evenodd">
    <path
      d="M11.5,7 C13.4329966,7 15,8.56700338 15,10.5 C15,12.4329966 13.4329966,14 11.5,14 C9.56700338,14 8,12.4329966 8,10.5 C8,8.56700338 9.56700338,7 11.5,7 Z M11.5,8 C10.1192881,8 9,9.11928813 9,10.5 C9,11.8807119 10.1192881,13 11.5,13 C12.8807119,13 14,11.8807119 14,10.5 C14,9.11928813 12.8807119,8 11.5,8 Z M12.0007074,9 L12,10 L13.0012783,10 L13.0012783,11 L11,11 L11,9 L12.0007074,9 Z M3,8 L3,9 L2,9 L2,8 L3,8 Z M7,8 L7,9 L4,9 L4,8 L7,8 Z M3,5 L3,6 L2,6 L2,5 L3,5 Z M10,5 L10,6 L4,6 L4,5 L10,5 Z M10,2 L10,3 L4,3 L4,2 L10,2 Z M3,2 L3,3 L2,3 L2,2 L3,2 Z"
      id="Combined-Shape" fill="#000000" fill-rule="nonzero"></path>
  </g>
</svg>