<?xml version="1.0" encoding="UTF-8"?>
<svg width="16px" height="16px" viewBox="0 0 16 16" version="1.1" xmlns="http://www.w3.org/2000/svg"
  xmlns:xlink="http://www.w3.org/1999/xlink">
  <title>catalog_manifest_version_untaint</title>
  <g id="catalog_manifest_version_untaint" stroke="none" stroke-width="1" fill="none"
    fill-rule="evenodd">
    <path
      d="M8,0.5 C9.93299662,0.5 11.5,2.06700338 11.5,4 L10.5,4 C10.5,2.61928813 9.38071187,1.5 8,1.5 L7,1.5 C5.61928813,1.5 4.5,2.61928813 4.5,4 L4.5,6 L11,6 C12.1045695,6 13,6.8954305 13,8 L13,12 C13,13.1045695 12.1045695,14 11,14 L4,14 C2.8954305,14 2,13.1045695 2,12 L2,8 C2,7.06808721 2.63737692,6.28504178 3.49998077,6.06301369 L3.5,4 C3.5,2.06700338 5.06700338,0.5 7,0.5 L8,0.5 Z M11,7 L4,7 C3.44771525,7 3,7.44771525 3,8 L3,12 C3,12.5522847 3.44771525,13 4,13 L11,13 C11.5522847,13 12,12.5522847 12,12 L12,8 C12,7.44771525 11.5522847,7 11,7 Z"
      id="Shape" fill="#000000" fill-rule="nonzero"></path>
  </g>
</svg>