<svg height="16" viewBox="0 0 16 16" width="16" xmlns="http://www.w3.org/2000/svg">
  <path
    d="m13.9306934 6.26687203.8480481.52991927-1.0598386 1.69609619.8480481.52991926c.4683641.29266633.6107952.90960333.3181289 1.37796735l-.5299193.8480481-.2659175.4240498-.2640018.4239983-1.5897577 2.5441443-4.24024053-2.6495963 2.11967703-3.39219241.5299193-.8480481c.2926663-.46836403.9096033-.61079516 1.3779674-.31812883l.848048.52991926zm-3.4976444 3.71032122-1.05983857 1.69609615 2.54414427 1.5897578 1.0598385-1.6960962zm.566951-7.97719325c.5522847 0 1 .44771525 1 1v2h-1v-2h-8v2h7.0267102l-.6767102 1h-6.35v2h5l-.001.548-.328.452h-4.671v2h4v1h-4c-.55228475 0-1-.4477153-1-1v-2c0-.18219703.04872573-.35301356.13385712-.5001295-.08491362-.14609443-.13385712-.31726678-.13385712-.4998705v-2c0-.18219703.04872573-.35301356.13385712-.5001295-.08491362-.14609443-.13385712-.31726678-.13385712-.4998705v-2c0-.55228475.44771525-1 1-1zm.4928875 6.28109706-.5299193.84804809 2.5432749 1.58872685.5307887-.84701715z"
    fill="#000000" />
</svg>