<?xml version="1.0" encoding="UTF-8"?>
<svg width="16px" height="16px" viewBox="0 0 16 16" version="1.1" xmlns="http://www.w3.org/2000/svg"
  xmlns:xlink="http://www.w3.org/1999/xlink">
  <title>container</title>
  <g id="container" stroke="none" stroke-width="1" fill="none" fill-rule="evenodd">
    <path
      d="M12.8,3 C13.4627417,3 14,3.5372583 14,4.2 L14,12.8 C14,13.4627417 13.4627417,14 12.8,14 L3.2,14 C2.5372583,14 2,13.4627417 2,12.8 L2,4.2 C2,3.5372583 2.5372583,3 3.2,3 L12.8,3 Z M13,4 L3,4 L3,13 L13,13 L13,4 Z M11,6 L11,11 L9,11 L9,6 L11,6 Z M7,6 L7,11 L5,11 L5,6 L7,6 Z"
      id="Shape" fill="#000000"></path>
  </g>
</svg>