<?xml version="1.0" encoding="UTF-8" standalone="no"?>
<svg
  viewBox="0 0 576 512"
  version="1.1"
  id="svg1118"
  sodipodi:docname="desktop_group.svg"
  inkscape:version="1.2 (dc2aeda, 2022-05-15)"
  xmlns:inkscape="http://www.inkscape.org/namespaces/inkscape"
  xmlns:sodipodi="http://sodipodi.sourceforge.net/DTD/sodipodi-0.dtd"
  xmlns="http://www.w3.org/2000/svg"
  xmlns:svg="http://www.w3.org/2000/svg">

  <path
    fill="#000000"
    d="m 44.062643,54.798799 c -9.22903,10.215909 -14.91223,23.770033 -14.91223,38.679647 V 351.85491 c 0,31.66921 25.4284,57.41699 56.70479,57.41699 H 241.79438 l -9.48099,28.70849 h -10.94896 l 5.57124,-16.86945 H 70.996493 c -31.27638,0 -56.70479,-25.74777 -56.70479,-57.41699 V 105.31541 c 0,-21.803052 12.05518,-40.796445 29.77094,-50.516611 z M 509.72665,402.37152 c -10.37421,11.48416 -25.24235,18.73942 -41.79461,18.73942 H 330.7613 l -3.90975,-11.83904 h 155.9392 c 9.74378,0 18.91929,-2.50188 26.9359,-6.90038 z m -362.77721,49.09275 c -2.74106,4.4197 -4.38947,9.61207 -4.38947,15.22671 0,15.87945 12.66991,28.70849 28.3524,28.70849 h 226.8212 c 3.20649,0 6.23421,-0.65576 9.10628,-1.64483 -5.01123,8.08044 -13.82731,13.4818 -23.96499,13.4818 h -226.8212 c -15.68248,0 -28.35239,-12.82904 -28.35239,-28.7085 0,-12.63305 8.07286,-23.21564 19.24817,-27.06367 z" />
  <path
    fill="#000000"
    d="m 510.37141,12.535829 c 31.27641,0 56.7051,25.748076 56.7051,57.417317 V 328.33106 c 0,31.66925 -25.42869,57.41731 -56.7051,57.41731 H 354.43237 l 9.48038,28.70866 h 61.401 c 15.6825,0 28.35255,12.82919 28.35255,28.70866 0,15.87947 -12.67005,28.70866 -28.35255,28.70866 H 198.49334 c -15.6825,0 -28.35254,-12.82919 -28.35254,-28.70866 0,-15.87947 12.67004,-28.70866 28.35254,-28.70866 h 61.401 l 9.48038,-28.70866 H 113.4357 c -31.276407,0 -56.705097,-25.74806 -56.705097,-57.41731 V 69.953146 c 0,-31.669241 25.42869,-57.417317 56.705097,-57.417317 z M 113.4357,69.953146 V 270.91375 H 510.37141 V 69.953146 Z" />
</svg>