<svg xmlns="http://www.w3.org/2000/svg" width="16" height="16" fill="#000000"
  class="bi bi-pencil-square" viewBox="0 0 16 16">
  <path
    d="M6,9 C4.8954305,9 4,9.8954305 4,11 L3.99965987,11.6851186 C2.84658924,11.2550533 2.07517962,10.3851927 1.64747083,9.12097407 C1.54905855,8.83010586 1.57060653,8.52211733 1.5,8.22817926 L1.5,7.16630661 C1.54992722,7.05004872 1.63741431,7.0298441 1.73238411,7.02778904 L1.84801464,7.02904892 C4.65568695,7.0293441 7.46341829,7.03040674 10.2710906,7.02798628 C10.653641,7.02769111 11.0350698,7.00395881 11.3993783,6.86646498 C11.5153831,6.8226606 11.5645598,6.78263449 11.4967869,6.63563594 C11.1400941,5.86156164 11.2933504,5.13211824 11.7174619,4.43000829 C11.8116826,4.27403634 11.8844735,4.26146176 12.0333021,4.37587268 C12.4565871,4.70121767 12.8068451,5.0807573 12.9307017,5.61007015 C12.9752145,5.80051887 13.0546764,5.81834761 13.2088773,5.80329354 C13.7697151,5.74833144 14.3025111,5.82253914 14.7729655,6.16341047 L14.7729655,6.22244604 C14.4911887,7.10048195 13.947058,7.53669572 13.0361983,7.59236626 C12.8319352,7.60482276 12.7210664,7.68139189 12.6368227,7.86853462 C12.4559464,8.27039438 12.248463,8.64868726 12.0121432,9.00114219 Z"
    id="Combined-Shape" fill="#000000"></path>
  <rect id="Rectangle" stroke="#000000" x="4.5" y="4.5" width="1" height="1"></rect>
  <rect id="Rectangle-Copy" stroke="#000000" x="7.5" y="4.5" width="1" height="1"></rect>
  <rect id="Rectangle-Copy-2" stroke="#000000" x="7.5" y="1.5" width="1" height="1"></rect>
  <g id="LOG" transform="translate(5.3242, 10.1035)" fill="#000000" fill-rule="nonzero">
    <polygon id="Path"
      points="0 2.89648438 1.9765625 2.89648438 1.9765625 2.24023438 0.828125 2.24023438 0.828125 0.078125 0 0.078125"></polygon>
    <path
      d="M3.92578125,2.97460938 C4.21354167,2.97460938 4.46354167,2.91471354 4.67578125,2.79492188 C4.88802083,2.67513021 5.05240885,2.50423177 5.16894531,2.28222656 C5.28548177,2.06022135 5.34375,1.79557292 5.34375,1.48828125 L5.34375,1.484375 C5.34375,1.17838542 5.28548177,0.914388021 5.16894531,0.692382812 C5.05240885,0.470377604 4.88802083,0.299479167 4.67578125,0.1796875 C4.46354167,0.0598958333 4.21354167,0 3.92578125,0 C3.63932292,0 3.38964844,0.0598958333 3.17675781,0.1796875 C2.96386719,0.299479167 2.79882812,0.470377604 2.68164062,0.692382812 C2.56445312,0.914388021 2.50585938,1.17838542 2.50585938,1.484375 L2.50585938,1.48828125 C2.50585938,1.79557292 2.5641276,2.06022135 2.68066406,2.28222656 C2.79720052,2.50423177 2.96191406,2.67513021 3.17480469,2.79492188 C3.38769531,2.91471354 3.63802083,2.97460938 3.92578125,2.97460938 Z M3.92578125,2.29882812 C3.8125,2.29882812 3.7125651,2.265625 3.62597656,2.19921875 C3.53938802,2.1328125 3.47167969,2.03873698 3.42285156,1.91699219 C3.37402344,1.7952474 3.34960938,1.65234375 3.34960938,1.48828125 L3.34960938,1.484375 C3.34960938,1.3203125 3.37402344,1.17773438 3.42285156,1.05664062 C3.47167969,0.935546875 3.53938802,0.841796875 3.62597656,0.775390625 C3.7125651,0.708984375 3.8125,0.67578125 3.92578125,0.67578125 C4.0390625,0.67578125 4.1389974,0.708984375 4.22558594,0.775390625 C4.31217448,0.841796875 4.37955729,0.935546875 4.42773438,1.05664062 C4.47591146,1.17773438 4.5,1.3203125 4.5,1.484375 L4.5,1.48828125 C4.5,1.65234375 4.47591146,1.7952474 4.42773438,1.91699219 C4.37955729,2.03873698 4.31217448,2.1328125 4.22558594,2.19921875 C4.1389974,2.265625 4.0390625,2.29882812 3.92578125,2.29882812 Z"
      id="Shape"></path>
    <path
      d="M7.29492188,2.97460938 C7.49934896,2.97460938 7.68229167,2.94563802 7.84375,2.88769531 C8.00520833,2.8297526 8.1422526,2.74576823 8.25488281,2.63574219 C8.36751302,2.52571615 8.453125,2.39192708 8.51171875,2.234375 C8.5703125,2.07682292 8.59960938,1.89778646 8.59960938,1.69726562 L8.59960938,1.32617188 L7.37304688,1.32617188 L7.37304688,1.87695313 L7.80273438,1.87695313 L7.79882812,1.91601562 C7.79101562,1.99283854 7.76595052,2.06022135 7.72363281,2.11816406 C7.6813151,2.17610677 7.625,2.22070312 7.5546875,2.25195312 C7.484375,2.28320312 7.40429688,2.29882812 7.31445312,2.29882812 C7.22330729,2.29882812 7.14095052,2.27994792 7.06738281,2.2421875 C6.9938151,2.20442708 6.93066406,2.14973958 6.87792969,2.078125 C6.82519531,2.00651042 6.78483073,1.91992187 6.75683594,1.81835937 C6.72884115,1.71679687 6.71484375,1.60221354 6.71484375,1.47460938 L6.71484375,1.47070312 C6.71484375,1.30403646 6.73665365,1.16145833 6.78027344,1.04296875 C6.82389323,0.924479167 6.88704427,0.833658854 6.96972656,0.770507813 C7.05240885,0.707356771 7.15234375,0.67578125 7.26953125,0.67578125 C7.38932292,0.67578125 7.49414062,0.706054688 7.58398438,0.766601562 C7.67382812,0.827148438 7.72916667,0.906901042 7.75,1.00585938 L7.75390625,1.0234375 L8.56835938,1.0234375 L8.56640625,1.00390625 C8.546875,0.807291667 8.47884115,0.633789062 8.36230469,0.483398437 C8.24576823,0.333007812 8.09342448,0.21484375 7.90527344,0.12890625 C7.7171224,0.04296875 7.50520833,0 7.26953125,0 C6.98046875,0 6.73144531,0.0595703125 6.52246094,0.178710938 C6.31347656,0.297851562 6.15266927,0.468098958 6.04003906,0.689453125 C5.92740885,0.910807292 5.87109375,1.17513021 5.87109375,1.48242188 L5.87109375,1.48632812 C5.87109375,1.71940104 5.90332031,1.9280599 5.96777344,2.11230469 C6.03222656,2.29654948 6.12565104,2.45279948 6.24804688,2.58105469 C6.37044271,2.7093099 6.51953125,2.80696615 6.6953125,2.87402344 C6.87109375,2.94108073 7.07096354,2.97460938 7.29492188,2.97460938 Z"
      id="Path"></path>
  </g>
</svg>