<?xml version="1.0" encoding="UTF-8"?>
<svg width="16px" height="16px" viewBox="0 0 16 16" version="1.1" xmlns="http://www.w3.org/2000/svg"
  xmlns:xlink="http://www.w3.org/1999/xlink">
  <title>dots</title>
  <g id="dots" stroke="none" stroke-width="1" fill="none" fill-rule="evenodd">
    <path
      d="M3.69677101,8.86523438 C3.89989601,8.86523438 4.08544289,8.81542969 4.25341164,8.71582031 C4.42138039,8.61621094 4.55516945,8.48242188 4.65477882,8.31445313 C4.7543882,8.14648438 4.80419289,7.9609375 4.80419289,7.7578125 C4.80419289,7.55078125 4.7543882,7.36328125 4.65477882,7.1953125 C4.55516945,7.02734375 4.42138039,6.89355469 4.25341164,6.79394531 C4.08544289,6.69433594 3.89989601,6.64453125 3.69677101,6.64453125 C3.48973976,6.64453125 3.30223976,6.69433594 3.13427101,6.79394531 C2.96630226,6.89355469 2.8325132,7.02734375 2.73290382,7.1953125 C2.63329445,7.36328125 2.58348976,7.55078125 2.58348976,7.7578125 C2.58348976,7.9609375 2.63329445,8.14648438 2.73290382,8.31445313 C2.8325132,8.48242188 2.96630226,8.61621094 3.13427101,8.71582031 C3.30223976,8.81542969 3.48973976,8.86523438 3.69677101,8.86523438 Z M8.05028664,8.86523438 C8.25341164,8.86523438 8.43895851,8.81542969 8.60692726,8.71582031 C8.77489601,8.61621094 8.90868507,8.48242188 9.00829445,8.31445313 C9.10790382,8.14648438 9.15770851,7.9609375 9.15770851,7.7578125 C9.15770851,7.55078125 9.10790382,7.36328125 9.00829445,7.1953125 C8.90868507,7.02734375 8.77489601,6.89355469 8.60692726,6.79394531 C8.43895851,6.69433594 8.25341164,6.64453125 8.05028664,6.64453125 C7.84325539,6.64453125 7.65575539,6.69433594 7.48778664,6.79394531 C7.31981789,6.89355469 7.18602882,7.02734375 7.08641945,7.1953125 C6.98681007,7.36328125 6.93700539,7.55078125 6.93700539,7.7578125 C6.93700539,7.9609375 6.98681007,8.14648438 7.08641945,8.31445313 C7.18602882,8.48242188 7.31981789,8.61621094 7.48778664,8.71582031 C7.65575539,8.81542969 7.84325539,8.86523438 8.05028664,8.86523438 Z M12.4038023,8.86523438 C12.6069273,8.86523438 12.7924741,8.81542969 12.9604429,8.71582031 C13.1284116,8.61621094 13.2631773,8.48242188 13.3647398,8.31445313 C13.4663023,8.14648438 13.5170835,7.9609375 13.5170835,7.7578125 C13.5170835,7.55078125 13.4663023,7.36328125 13.3647398,7.1953125 C13.2631773,7.02734375 13.1284116,6.89355469 12.9604429,6.79394531 C12.7924741,6.69433594 12.6069273,6.64453125 12.4038023,6.64453125 C12.196771,6.64453125 12.009271,6.69433594 11.8413023,6.79394531 C11.6733335,6.89355469 11.5395444,7.02734375 11.4399351,7.1953125 C11.3403257,7.36328125 11.290521,7.55078125 11.290521,7.7578125 C11.290521,7.9609375 11.3403257,8.14648438 11.4399351,8.31445313 C11.5395444,8.48242188 11.6733335,8.61621094 11.8413023,8.71582031 C12.009271,8.81542969 12.196771,8.86523438 12.4038023,8.86523438 Z"
      id="Shape" fill="#000000" fill-rule="nonzero"></path>
  </g>
</svg>