<?xml version="1.0" encoding="UTF-8"?>
<svg width="16px" height="16px" viewBox="0 0 16 16" version="1.1" xmlns="http://www.w3.org/2000/svg"
  xmlns:xlink="http://www.w3.org/1999/xlink">
  <title>edit</title>
  <g id="edit" stroke="none" stroke-width="1" fill="none" fill-rule="evenodd">
    <path
      d="M13.5,13 C13.7761424,13 14,13.2238576 14,13.5 C14,13.7761424 13.7761424,14 13.5,14 L9.5,14 C9.22385763,14 9,13.7761424 9,13.5 C9,13.2238576 9.22385763,13 9.5,13 L13.5,13 Z M11.4424065,3.34143782 L13.5637269,5.46275817 C13.9542512,5.85328246 13.9542512,6.48644744 13.5637269,6.87697173 L6.78555229,13.6551463 C6.59801591,13.8426827 6.34366199,13.9480395 6.0784455,13.9480395 L3.01195165,13.9480395 L2.96368901,10.835781 C2.95949334,10.5652197 3.06512327,10.3045075 3.25646201,10.1131688 L10.028193,3.34143782 C10.4187173,2.95091353 11.0518822,2.95091353 11.4424065,3.34143782 Z M10.7352998,4.0485446 L3.96356879,10.8202756 L3.99657213,12.9467763 L6.0784455,12.9480395 L12.8566201,6.16986495 L10.7352998,4.0485446 Z"
      id="Shape" fill="#000000" fill-rule="nonzero"></path>
  </g>
</svg>