<?xml version="1.0" encoding="UTF-8"?>
<svg width="16px" height="16px" viewBox="0 0 16 16" version="1.1" xmlns="http://www.w3.org/2000/svg" xmlns:xlink="http://www.w3.org/1999/xlink">
    <title>error</title>
    <g id="error" stroke="none" stroke-width="1" fill="none" fill-rule="evenodd">
        <path d="M8.21555167,2.71885131 C8.45209527,2.85279046 8.64779583,3.04849102 8.78173498,3.28503462 L13.5663175,11.7348595 C13.9745066,12.4557431 13.7210177,13.3710373 13.0001342,13.7792265 C12.7747174,13.9068653 12.5200874,13.9739513 12.2610423,13.9739513 L2.69187732,13.9739513 C1.8634502,13.9739513 1.19187732,13.3023785 1.19187732,12.4739513 C1.19187732,12.2149062 1.25896341,11.9602763 1.38660216,11.7348595 L6.17118466,3.28503462 C6.57937382,2.56415105 7.4946681,2.31066215 8.21555167,2.71885131 Z M7.48993411,11 C7.21379174,11 6.98993411,11.2238576 6.98993411,11.5 C6.98993411,11.7761424 7.21379174,12 7.48993411,12 C7.76607649,12 7.98993411,11.7761424 7.98993411,11.5 C7.98993411,11.2238576 7.76607649,11 7.48993411,11 Z M7.48993411,6 C7.21379174,6 6.98993411,6.22385763 6.98993411,6.5 L6.98993411,9.5 C6.98993411,9.77614237 7.21379174,10 7.48993411,10 C7.76607649,10 7.98993411,9.77614237 7.98993411,9.5 L7.98993411,6.5 C7.98993411,6.22385763 7.76607649,6 7.48993411,6 Z" id="Combined-Shape" fill="#E74C3C"></path>
    </g>
</svg>