<svg xmlns="http://www.w3.org/2000/svg" width="16" height="16" fill="#000000" class="bi bi-globe"
  viewBox="0 0 16 16">
  <path
    d="M 1.7649509,8 A 6.2350491,6.2350491 0 1 1 14.235049,8 6.2350491,6.2350491 0 0 1 1.7649509,8 Z M 7.6103094,2.6043444 C 7.0881241,2.7633381 6.5698356,3.2434369 6.1396172,4.0500964 A 6.2116677,6.2116677 0 0 0 5.7748669,4.8824754 H 7.6103094 Z M 4.9526197,4.8824754 A 7.222525,7.222525 0 0 1 5.4514237,3.6830079 5.2218536,5.2218536 0 0 1 5.9167142,2.9558453 5.4751525,5.4751525 0 0 0 3.5224554,4.8824754 Z M 4.4990199,7.6103094 C 4.5224014,6.9267922 4.6065745,6.2713326 4.7421868,5.6618566 H 3.0696349 A 5.422934,5.422934 0 0 0 2.5583609,7.6103094 Z M 5.5426113,5.6618566 A 9.7422642,9.7422642 0 0 0 5.2791804,7.6103094 h 2.331129 V 5.6618566 Z m 2.8470793,0 V 7.6103094 H 10.72004 A 9.7383673,9.7383673 0 0 0 10.457389,5.6618566 Z M 5.2799598,8.3896906 A 9.7422642,9.7422642 0 0 0 5.5426113,10.338143 H 7.6103094 V 8.3896906 Z m 3.1097308,0 V 10.338143 H 10.457389 C 10.603133,9.7419168 10.695879,9.0848985 10.72082,8.3896906 Z M 5.7748669,11.117525 c 0.1075545,0.300841 0.2299174,0.579859 0.3647503,0.832379 0.4302184,0.806659 0.9492862,1.285978 1.4706922,1.445752 v -2.278131 z m 0.1418473,1.92663 A 5.2187361,5.2187361 0 0 1 5.4514237,12.316992 7.2233044,7.2233044 0 0 1 4.9526197,11.117525 H 3.5224554 a 5.4743731,5.4743731 0 0 0 2.3942588,1.92663 z M 4.7421868,10.338143 A 10.640111,10.640111 0 0 1 4.4990199,8.3896906 h -1.940659 c 0.048322,0.6936492 0.2267999,1.3506675 0.511274,1.9484524 z m 5.3410992,2.706012 a 5.4743731,5.4743731 0 0 0 2.394259,-1.92663 H 11.04738 a 7.2248632,7.2248632 0 0 1 -0.498804,1.199467 5.2125011,5.2125011 0 0 1 -0.46529,0.727163 z m -1.6935954,-1.92663 v 2.278131 c 0.5221853,-0.158994 1.0404738,-0.639093 1.4706922,-1.445752 0.1348329,-0.25252 0.2571962,-0.531538 0.3647502,-0.832379 z m 2.8681224,-0.779382 h 1.672552 C 13.214839,9.7403581 13.393317,9.0833398 13.441639,8.3896906 H 11.50098 A 10.638553,10.638553 0 0 1 11.257813,10.338143 Z M 13.441639,7.6103094 A 5.4237133,5.4237133 0 0 0 12.930365,5.6618566 h -1.672552 c 0.135612,0.609476 0.219786,1.2649356 0.243167,1.9484528 z M 10.548576,3.6830079 c 0.192507,0.3616328 0.360074,0.7637935 0.498804,1.1994675 h 1.430165 A 5.4743731,5.4743731 0 0 0 10.083286,2.9558453 c 0.169905,0.2213442 0.325781,0.4660699 0.46529,0.7271626 z M 10.225133,4.8824754 A 6.2085501,6.2085501 0 0 0 9.8603828,4.0500964 C 9.4301644,3.2434369 8.9118759,2.7641175 8.3896906,2.6043444 v 2.278131 z"
    id="path132"
    style="stroke-width:0.779381" />
</svg>