<?xml version="1.0" encoding="UTF-8"?>
<svg width="16px" height="16px" viewBox="0 0 16 16" version="1.1" xmlns="http://www.w3.org/2000/svg"
  xmlns:xlink="http://www.w3.org/1999/xlink">
  <title>globe</title>
  <g id="globe" stroke="none" stroke-width="1" fill="none" fill-rule="evenodd">
    <path
      d="M4,15 L4,14 L8,13.9994829 L8,13 L9,13 L9,13.9994829 L13,14 L13,15 L4,15 Z M8.50460512,0.566482894 L8.83248948,1.00988464 C11.5490708,1.17186927 13.734613,3.30565222 13.9775484,5.99966587 L14,6 L14,7 L13.9775484,7.00033413 C13.7363716,9.67484618 11.5806107,11.797209 8.89140038,11.9862882 L8.4986059,12.5182313 L8.10760259,11.986218 C5.41885644,11.7966844 3.26359862,9.67451564 3.02245163,7.00033413 L3,7 L3,6 L3.02245163,5.99966587 C3.26541681,3.30532168 5.45146549,1.17134568 8.16851045,1.0098251 L8.50460512,0.566482894 Z M6.11239037,7.00009748 L3.94366997,7.00040888 C4.15529066,8.94932466 5.58866802,10.5315555 7.46199388,10.9652932 C7.33738151,10.745995 7.21495153,10.5151845 7.09703279,10.275026 C6.55529001,9.17168868 6.19926237,8.065183 6.11239037,7.00009748 Z M13.05633,7.00040888 L10.8825822,6.99974967 C10.8013121,8.07193394 10.4446154,9.18425187 9.8985768,10.291387 C9.78317656,10.5253699 9.66343968,10.7503204 9.54162391,10.9648066 C11.4133588,10.5293174 12.844859,8.94794636 13.05633,7.00040888 Z M9.87900104,6.9995889 L7.11646128,6.99931894 C7.20382755,7.9002996 7.51829503,8.86408454 7.99466678,9.83428434 C8.14501947,10.1404993 8.30355311,10.430695 8.4639767,10.7002992 L8.50069957,10.7599633 L8.53469559,10.7065857 C8.64112265,10.5287101 8.74671558,10.3417115 8.84961848,10.1469214 L9.00172333,9.84905926 C9.48208018,8.87509888 9.79699732,7.90608102 9.87900104,6.9995889 Z M7.45582431,2.03732039 C5.58208543,2.47571975 4.15480426,4.05515479 3.94366997,5.99959112 L6.10847603,5.99968984 C6.19838913,4.6606374 6.64947319,3.33864493 7.45582431,2.03732039 Z M8.49569957,2.2689633 L8.47370943,2.30189663 C7.65887499,3.53369846 7.20696321,4.76505946 7.11108233,6.00019136 L9.87782507,6.00034114 C9.77579028,4.77866909 9.32601001,3.54938351 8.52187051,2.30895769 L8.49569957,2.2689633 Z M9.53104872,2.0331017 L9.54324157,2.05524046 C10.3375347,3.36136794 10.7853038,4.67734768 10.8808674,6.00015 L13.05633,5.99959112 C12.8444474,4.04826333 11.4077822,2.46452868 9.53104872,2.0331017 Z"
      id="Combined-Shape" fill="#000000"></path>
  </g>
</svg>