<?xml version="1.0" encoding="UTF-8"?>
<svg width="16px" height="16px" viewBox="0 0 16 16" version="1.1" xmlns="http://www.w3.org/2000/svg" xmlns:xlink="http://www.w3.org/1999/xlink">
    <title>group_paused</title>
    <g id="group_paused" stroke="none" stroke-width="1" fill="none" fill-rule="evenodd">
        <path d="M13,4 C14.1045695,4 15,4.8954305 15,6 L15,10 C15,11.1045695 14.1045695,12 13,12 L11,12 L11,13 L12.5,13 C12.7761424,13 13,13.2238576 13,13.5 C13,13.7761424 12.7761424,14 12.5,14 L7.5,14 C7.22385763,14 7,13.7761424 7,13.5 C7,13.2238576 7.22385763,13 7.5,13 L9,13 L9,12 L7,12 C5.8954305,12 5,11.1045695 5,10 L5,6 C5,4.8954305 5.8954305,4 7,4 L13,4 Z M4.18111591,11.0007743 C4.31761298,11.3746104 4.52635586,11.7136777 4.79044642,12.001078 L3.5,12 C3.22385763,12 3,11.7761424 3,11.5 C3,11.2238576 3.22385763,11 3.5,11 L4.18111591,11.0007743 Z M12.9215502,5 L7,5 C6.44771525,5 6,5.44771525 6,6 L6,10 C6,10.5522847 6.44771525,11 7,11 L12.9215502,11 C13.4738349,11 13.9215502,10.5522847 13.9215502,10 L13.9215502,6 C13.9215502,5.44771525 13.4738349,5 12.9215502,5 Z M9,2 C9.72821919,2 10.3655364,2.38919748 10.7152918,2.97093254 L7,2.97179883 C6.8601986,2.97179883 6.72263067,2.98136147 6.58791463,2.99986832 L3,3 C2.44771525,3 2,3.44771525 2,4 L2,8 C2,8.55228475 2.44771525,9 3,9 L4,9 L4.00013776,10.0008516 L3,10 C1.8954305,10 1,9.1045695 1,8 L1,4 C1,2.8954305 1.8954305,2 3,2 L9,2 Z" id="Shape" fill="#FFDB58"></path>
    </g>
</svg>