<svg height="16" viewBox="0 0 16 16" width="16" xmlns="http://www.w3.org/2000/svg">
  <path
    d="m13 4c1.1045695 0 2 .8954305 2 2v4c0 1.1045695-.8954305 2-2 2h-2v1h1.5c.2761424 0 .5.2238576.5.5s-.2238576.5-.5.5h-5c-.27614237 0-.5-.2238576-.5-.5s.22385763-.5.5-.5h1.5v-1h-2c-1.1045695 0-2-.8954305-2-2v-4c0-1.1045695.8954305-2 2-2zm-8.81888409 7.0007743c.13649707.3738361.34523995.7129034.60933051 1.0003037l-1.29044642-.001078c-.27614237 0-.5-.2238576-.5-.5s.22385763-.5.5-.5zm8.74043429-6.0007743h-5.9215502c-.55228475 0-1 .44771525-1 1v4c0 .5522847.44771525 1 1 1h5.9215502c.5522847 0 1-.4477153 1-1v-4c0-.55228475-.4477153-1-1-1zm-3.9215502-3c.72821919 0 1.3655364.38919748 1.7152918.97093254l-3.7152918.00086629c-.1398014 0-.27736933.00956264-.41208537.02806949l-3.58791463.00013168c-.55228475 0-1 .44771525-1 1v4c0 .55228475.44771525 1 1 1h1l.00013776 1.0008516-1.00013776-.0008516c-1.1045695 0-2-.8954305-2-2v-4c0-1.1045695.8954305-2 2-2z"
    fill="#000000" fill-rule="evenodd" />
</svg>