<?xml version="1.0" encoding="UTF-8"?>
<svg width="16px" height="16px" viewBox="0 0 16 16" version="1.1" xmlns="http://www.w3.org/2000/svg"
  xmlns:xlink="http://www.w3.org/1999/xlink">
  <title>hide</title>
  <g id="hide" stroke="none" stroke-width="1" fill="none" fill-rule="evenodd">
    <path
      d="M8,4 C11.279319,4 14,5.73134248 14,8 C14,10.2686575 11.279319,12 8,12 C4.72068104,12 2,10.2686575 2,8 C2,5.73134248 4.72068104,4 8,4 Z M8,5 C5.20418672,5 3,6.40266427 3,8 C3,9.59733573 5.20418672,11 8,11 C10.7958133,11 13,9.59733573 13,8 C13,6.40266427 10.7958133,5 8,5 Z M8,6 C9.1045695,6 10,6.8954305 10,8 C10,9.1045695 9.1045695,10 8,10 C6.8954305,10 6,9.1045695 6,8 C6,6.8954305 6.8954305,6 8,6 Z"
      id="Combined-Shape" fill="#000000" fill-rule="nonzero"></path>
  </g>
</svg>