<?xml version="1.0" encoding="UTF-8"?>
<svg width="16px" height="16px" viewBox="0 0 16 16" version="1.1" xmlns="http://www.w3.org/2000/svg"
  xmlns:xlink="http://www.w3.org/1999/xlink">
  <title>info</title>
  <g id="info" stroke="none" stroke-width="1" fill="none" fill-rule="evenodd">
    <path
      d="M8.5,8 C8.77614237,8 9,8.22385763 9,8.5 L9,10.5 C9,10.7761424 8.77614237,11 8.5,11 C8.22385763,11 8,10.7761424 8,10.5 L8,8.5 C8,8.22385763 8.22385763,8 8.5,8 Z"
      id="Rectangle" fill="#000000" fill-rule="nonzero"></path>
    <circle id="Oval" fill="#000000" fill-rule="nonzero" cx="8.5" cy="6.5" r="1"></circle>
    <path
      d="M8.5,3 C11.5375661,3 14,5.46243388 14,8.5 C14,11.5375661 11.5375661,14 8.5,14 C5.46243388,14 3,11.5375661 3,8.5 C3,5.46243388 5.46243388,3 8.5,3 Z M8.5,4 C6.01471863,4 4,6.01471863 4,8.5 C4,10.9852814 6.01471863,13 8.5,13 C10.9852814,13 13,10.9852814 13,8.5 C13,6.01471863 10.9852814,4 8.5,4 Z"
      id="Oval" fill="#000000" fill-rule="nonzero"></path>
  </g>
</svg>