<svg height="16" viewBox="0 0 16 16" width="16" xmlns="http://www.w3.org/2000/svg">
  <path
    d="m8 2c3.3137085 0 6 2.6862915 6 6s-2.6862915 6-6 6-6-2.6862915-6-6 2.6862915-6 6-6zm0 1c-2.76142375 0-5 2.23857625-5 5 0 2.7614237 2.23857625 5 5 5 2.7614237 0 5-2.2385763 5-5 0-2.76142375-2.2385763-5-5-5zm0 4c.27614237 0 .5.22385763.5.5l-.00055773 2.528.018.000056c.27614237 0 .5.2238576.5.5s-.22385763.5-.5.5h-1c-.27614238 0-.5-.2238576-.5-.5 0-.2700059.21401894-.490025.48166985-.4996703l.00033015-2.0303857-.0704733-.00605567c-.2332492-.04233596-.41012437-.24648444-.41012437-.49194433 0-.27614237.22385763-.5.5-.5zm.00258194-2c.27471641 0 .49741806.22270165.49741806.49741806s-.22270165.49741806-.49741806.49741806c-.27988029 0-.50258194-.22270165-.50258194-.49741806s.22270165-.49741806.49741806-.49741806z"
    fill="#000000" />
</svg>