<?xml version="1.0" encoding="UTF-8"?>
<svg width="16px" height="16px" viewBox="0 0 16 16" version="1.1" xmlns="http://www.w3.org/2000/svg"
  xmlns:xlink="http://www.w3.org/1999/xlink">
  <title>pause</title>
  <g id="pause" stroke="none" stroke-width="1" fill="none" fill-rule="evenodd">
    <path
      d="M5.5,3 C5.77614237,3 6,3.22385763 6,3.5 L6,12.5 C6,12.7761424 5.77614237,13 5.5,13 C5.22385763,13 5,12.7761424 5,12.5 L5,3.5 C5,3.22385763 5.22385763,3 5.5,3 Z M10.5,3 C10.7761424,3 11,3.22385763 11,3.5 L11,12.5 C11,12.7761424 10.7761424,13 10.5,13 C10.2238576,13 10,12.7761424 10,12.5 L10,3.5 C10,3.22385763 10.2238576,3 10.5,3 Z"
      id="Combined-Shape" fill="#000000"></path>
  </g>
</svg>