<svg height="16" viewBox="0 0 16 16" width="16" xmlns="http://www.w3.org/2000/svg">
  <path
    d="m0 7.07226563c0 2.73632812 2.19726563 4.93359377 4.92773438 4.93359377s4.92773437-2.19726565 4.92773437-4.93359377c0-2.73632813-2.19140625-4.921875-4.921875-4.921875-.31054687 0-.61523437.03515625-.87890625.08789062l1.40625-1.3828125c.08789063-.09960937.13476563-.21679687.13476563-.3515625 0-.28125-.2109375-.50390625-.48632813-.50390625-.14648437 0-.26367187.05273438-.3515625.15234375l-2.27929687 2.31445313c-.09960938.09960937-.15820313.234375-.15820313.36914062 0 .13476563.05273438.2578125.15820313.36914063l2.27929687 2.29101562c.08789063.09375.20507813.140625.3515625.140625.27539063 0 .48632813-.21679687.48632813-.4921875 0-.13476562-.046875-.24609375-.140625-.34570312l-1.57617188-1.56445313c.3046875-.06445312.66796875-.09960937 1.0546875-.09960937 2.1796875 0 3.92578125 1.74609375 3.92578125 3.9375 0 2.18554687-1.75195312 3.93749997-3.93164062 3.93749997s-3.93164063-1.7519531-3.93164063-3.93749997c0-.29882813-.1875-.515625-.48046875-.515625-.3046875 0-.515625.21679687-.515625.515625z"
    fill="#000000" transform="translate(3.1047 1.9352)" />
</svg>