<?xml version="1.0" encoding="UTF-8"?>
<svg width="16px" height="16px" viewBox="0 0 16 16" version="1.1" xmlns="http://www.w3.org/2000/svg"
  xmlns:xlink="http://www.w3.org/1999/xlink">
  <title>remote_hosts_provider_orchestrator_vms</title>
  <g id="remote_hosts_provider_orchestrator_vms" stroke="none" stroke-width="1" fill="none"
    fill-rule="evenodd">
    <path
      d="M8,13 L8,14 L12,14 L12,15 L3,15 L3,14 L7,14 L7,13 L8,13 Z M12,4 C13.1045695,4 14,4.8954305 14,6 L14,8 C14,9.1045695 13.1045695,10 12,10 L11,10 L11,11 L12.5,11 C12.7761424,11 13,11.2238576 13,11.5 C13,11.7761424 12.7761424,12 12.5,12 L7.5,12 C7.22385763,12 7,11.7761424 7,11.5 C7,11.2238576 7.22385763,11 7.5,11 L9,11 L9,10 L8,10 C6.8954305,10 6,9.1045695 6,8 L6,6 C6,4.8954305 6.8954305,4 8,4 L12,4 Z M7,2 C7.74025244,2 8.38657394,2.40216612 8.73239368,2.99992752 L3,3 C2.44771525,3 2,3.44771525 2,4 L2,6 C2,6.55228475 2.44771525,7 3,7 L5,7 L5,10 L2.5,10 C2.22385763,10 2,9.77614237 2,9.5 C2,9.22385763 2.22385763,9 2.5,9 L4,9 L4,8 L3,8 C1.8954305,8 1,7.1045695 1,6 L1,4 C1,2.8954305 1.8954305,2 3,2 L7,2 Z M11.9215502,5 L8,5 C7.44771525,5 7,5.44771525 7,6 L7,8 C7,8.55228475 7.44771525,9 8,9 L11.9215502,9 C12.4738349,9 12.9215502,8.55228475 12.9215502,8 L12.9215502,6 C12.9215502,5.44771525 12.4738349,5 11.9215502,5 Z"
      id="Shape" fill="#000000"></path>
  </g>
</svg>