<?xml version="1.0" encoding="UTF-8"?>
<svg width="16px" height="16px" viewBox="0 0 16 16" version="1.1" xmlns="http://www.w3.org/2000/svg"
  xmlns:xlink="http://www.w3.org/1999/xlink">
  <title>remote_hosts_management_claim</title>
  <g id="remote_hosts_management_claim" stroke="none" stroke-width="1" fill="none"
    fill-rule="evenodd">
    <path
      d="M8,1 C9.65685425,1 11,2.34314575 11,4 L11,6 C12.1045695,6 13,6.8954305 13,8 L13,12 C13,13.1045695 12.1045695,14 11,14 L4,14 C2.8954305,14 2,13.1045695 2,12 L2,8 C2,6.8954305 2.8954305,6 4,6 L4,4 C4,2.34314575 5.34314575,1 7,1 L8,1 Z M11,7 L4,7 C3.44771525,7 3,7.44771525 3,8 L3,12 C3,12.5522847 3.44771525,13 4,13 L11,13 C11.5522847,13 12,12.5522847 12,12 L12,8 C12,7.44771525 11.5522847,7 11,7 Z M8,2 L7,2 C5.8954305,2 5,2.8954305 5,4 L5,6 L10,6 L10,4 C10,2.9456382 9.18412221,2.08183488 8.14926234,2.00548574 L8,2 Z"
      id="Shape" fill="#000000" fill-rule="nonzero"></path>
  </g>
</svg>