<?xml version="1.0" encoding="UTF-8"?>
<svg width="16px" height="16px" viewBox="0 0 16 16" version="1.1" xmlns="http://www.w3.org/2000/svg"
  xmlns:xlink="http://www.w3.org/1999/xlink">
  <title>remote_hosts_provider_orchestrator_resources</title>
  <g id="remote_hosts_provider_orchestrator_resources" stroke="none" stroke-width="1" fill="none"
    fill-rule="evenodd">
    <path
      d="M10.4819826,3.67064701 L14.3009555,5.59694696 C14.7940625,5.84567145 14.9921738,6.44704475 14.7434493,6.9401518 C14.6470888,7.13119052 14.4919942,7.28628514 14.3009555,7.38264557 L10.4819826,9.30894552 C9.9155003,9.59468069 9.2470428,9.59468069 8.68056047,9.30894552 L4.86158761,7.38264557 C4.36848055,7.13392108 4.17036934,6.53254778 4.41909384,6.03944073 C4.51545427,5.84840201 4.67054889,5.69330739 4.86158761,5.59694696 L8.68056047,3.67064701 C9.2470428,3.38491183 9.9155003,3.38491183 10.4819826,3.67064701 Z M1.19829572,6.91635416 L3.26070763,8.48540079 L2.65522975,9.28126292 L0.592817836,7.7122163 L1.19829572,6.91635416 Z M9.13091601,4.56349632 L5.31194315,6.48979626 L9.13091601,8.41609621 C9.41415717,8.5589638 9.74838592,8.5589638 10.0316271,8.41609621 L13.8505999,6.48979626 L10.0316271,4.56349632 C9.74838592,4.42062873 9.41415717,4.42062873 9.13091601,4.56349632 Z M7.70716039,0.224222355 L10.7864465,1.77742233 L10.3360909,2.67027164 L7.25680485,1.11707166 C6.83194311,0.902770283 6.33059999,0.902770283 5.90573824,1.11707166 L2.08676538,3.04337161 C1.99124602,3.09155183 1.91369871,3.16909914 1.86551849,3.2646185 C1.74115625,3.51117202 1.84021185,3.81185867 2.08676538,3.93622092 L3.61938436,4.70927796 L3.16902882,5.60212727 L1.63640984,4.82907023 C0.896749255,4.45598349 0.599582441,3.55392354 0.972669184,2.81426296 C1.11720983,2.52770488 1.34985176,2.29506295 1.63640984,2.1505223 L5.4553827,0.224222355 C6.16348561,-0.132946613 6.99905748,-0.132946613 7.70716039,0.224222355 Z M15.0175111,9.88096995 L15.5164615,10.7476005 L10.6331402,13.559104 C9.98199795,13.93399 9.18054514,13.93399 8.52940287,13.559104 L3.6460816,10.7476005 L4.14503195,9.88096995 L9.02835323,12.6924735 C9.37062836,12.8895336 9.79191473,12.8895336 10.1341899,12.6924735 L15.0175111,9.88096995 Z"
      id="Combined-Shape" fill="#000000" fill-rule="nonzero"></path>
  </g>
</svg>