<?xml version="1.0" encoding="UTF-8"?>
<svg width="16px" height="16px" viewBox="0 0 16 16" version="1.1" xmlns="http://www.w3.org/2000/svg"
  xmlns:xlink="http://www.w3.org/1999/xlink">
  <title>icon/icon_CATALOG_RAM</title>
  <g id="icon/icon_CATALOG_RAM" stroke="none" stroke-width="1" fill="none" fill-rule="evenodd">
    <path
      d="M13,3 C14.1045695,3 15,3.8954305 15,5 L15,11 C15,12.1045695 14.1045695,13 13,13 L13,14 L12,14 L12,13 L10,13 L10,14 L9,14 L9,13 L7,13 L7,14 L6,14 L6,13 L4,13 L4,14 L3,14 L3,13 C1.8954305,13 1,12.1045695 1,11 L1,5 C1,3.8954305 1.8954305,3 3,3 L13,3 Z M13.0833333,3.90909091 L2.91666667,3.90909091 C2.36438192,3.90909091 1.91666667,4.35680616 1.91666667,4.90909091 L1.91666667,11.0909091 C1.91666667,11.6431938 2.36438192,12.0909091 2.91666667,12.0909091 L13.0833333,12.0909091 C13.6356181,12.0909091 14.0833333,11.6431938 14.0833333,11.0909091 L14.0833333,4.90909091 C14.0833333,4.35680616 13.6356181,3.90909091 13.0833333,3.90909091 Z M12,6 L12,10 L10,10 L10,6 L12,6 Z M6,6 L6,10 L4,10 L4,6 L6,6 Z M9,6 L9,10 L7,10 L7,6 L9,6 Z"
      id="Combined-Shape" fill="#000000"></path>
  </g>
</svg>