<?xml version="1.0" encoding="UTF-8"?>
<svg width="16px" height="16px" viewBox="0 0 16 16" version="1.1" xmlns="http://www.w3.org/2000/svg" xmlns:xlink="http://www.w3.org/1999/xlink">
    <title>remote_hosts_provider_host_active</title>
    <g id="remote_hosts_provider_host_active" stroke="none" stroke-width="1" fill="none" fill-rule="evenodd">
        <path d="M3,14 L12,14 L12,15 L3,15 Z M7,13 L8,13 L8,14 L7,14 Z M4.5,12 C4.22385763,12 4,11.7761424 4,11.5 C4,11.2238576 4.22385763,11 4.5,11 L6,11 L6,10 L4,10 C2.8954305,10 2,9.1045695 2,8 L2,4 C2,2.8954305 2.8954305,2 4,2 L11,2 C12.1045695,2 13,2.8954305 13,4 L13,8 C13,9.1045695 12.1045695,10 11,10 L9,10 L9,11 L10.5,11 C10.7761424,11 11,11.2238576 11,11.5 C11,11.7761424 10.7761424,12 10.5,12 L4.5,12 Z M10.9215502,3 L4,3 C3.44771525,3 3,3.44771525 3,4 L3,8 C3,8.55228475 3.44771525,9 4,9 L10.9215502,9 C11.4738349,9 11.9215502,8.55228475 11.9215502,8 L11.9215502,4 C11.9215502,3.44771525 11.4738349,3 10.9215502,3 Z" id="Combined-Shape" fill="#4DB04D"></path>
    </g>
</svg>