<?xml version="1.0" encoding="UTF-8"?>
<svg width="16px" height="16px" viewBox="0 0 16 16" version="1.1" xmlns="http://www.w3.org/2000/svg"
  xmlns:xlink="http://www.w3.org/1999/xlink">
  <title>remote_hosts_management_claims</title>
  <g id="remote_hosts_management_claims" stroke="none" stroke-width="1" fill="none"
    fill-rule="evenodd">
    <path
      d="M10.5,4 C11.8807119,4 13,5.11928813 13,6.5 L13,8 C13.5522847,8 14,8.44771525 14,9 L14,13 C14,13.5522847 13.5522847,14 13,14 L8,14 C7.44771525,14 7,13.5522847 7,13 L7,9 C7,8.44771525 7.44771525,8 8,8 L8,6.5 C8,5.11928813 9.11928813,4 10.5,4 Z M13,9 L8,9 L8,13 L13,13 L13,9 Z M5.5,2 C6.4721012,2 7.31461527,2.55482847 7.72814766,3.36509085 C7.27104161,3.95546042 7,4.69607763 7,5.5 L7,4.5 C7,3.72030388 6.40511192,3.07955132 5.64446001,3.00686658 L5.5,3 C4.67157288,3 4,3.67157288 4,4.5 L4,6 L7,6 L7,6.26756439 C6.848186,6.35538405 6.70898693,6.46258595 6.58578644,6.58578644 C6.46249782,6.70907505 6.35523069,6.84838515 6.26737596,7.00032581 L3,7 L3,11 L6,11 L6,12 L3,12 C2.44771525,12 2,11.5522847 2,11 L2,7 C2,6.44771525 2.44771525,6 3,6 L3,4.5 C3,3.11928813 4.11928813,2 5.5,2 Z M10.5,5 C9.67157288,5 9,5.67157288 9,6.5 L9,8 L12,8 L12,6.5 C12,5.72030388 11.4051119,5.07955132 10.64446,5.00686658 L10.5,5 Z"
      id="Shape" fill="#000000" fill-rule="nonzero"></path>
  </g>
</svg>