<?xml version="1.0" encoding="UTF-8"?>
<svg width="16px" height="16px" viewBox="0 0 16 16" version="1.1" xmlns="http://www.w3.org/2000/svg" xmlns:xlink="http://www.w3.org/1999/xlink">
    <title>remote_hosts_provider_orchestrator_host_inactive</title>
    <g id="remote_hosts_provider_orchestrator_host_inactive" stroke="none" stroke-width="1" fill="none" fill-rule="evenodd">
        <path d="M13,4 C14.1045695,4 15,4.8954305 15,6 L15,9 C15,10.1045695 14.1045695,11 13,11 L3,11 C1.8954305,11 1,10.1045695 1,9 L1,6 C1,4.8954305 1.8954305,4 3,4 L13,4 Z M12.9215502,5 L3,5 C2.44771525,5 2,5.44771525 2,6 L2,9 C2,9.55228475 2.44771525,10 3,10 L12.9215502,10 C13.4738349,10 13.9215502,9.55228475 13.9215502,9 L13.9215502,6 C13.9215502,5.44771525 13.4738349,5 12.9215502,5 Z M10,7 L10,8 L4,8 L4,7 L10,7 Z M12,7 L12,8 L11,8 L11,7 L12,7 Z" id="Combined-Shape" fill="#E74C3C"></path>
    </g>
</svg>