<?xml version="1.0" encoding="UTF-8"?>
<svg width="16px" height="16px" viewBox="0 0 16 16" version="1.1" xmlns="http://www.w3.org/2000/svg"
  xmlns:xlink="http://www.w3.org/1999/xlink">
  <title>remote_hosts_management_key</title>
  <g id="remote_hosts_management_key" stroke="none" stroke-width="1" fill="none" fill-rule="evenodd">
    <path
      d="M6,2 C8.209139,2 10,3.790861 10,6 C10,6.36113362 9.95214232,6.71108947 9.86242313,7.04387141 L13.9739242,11.1563871 L14.0065031,14.0173931 L11.1454971,13.9848142 L7.0268506,9.86697151 C6.69916388,9.95375886 6.35498204,10 6,10 C3.790861,10 2,8.209139 2,6 C2,3.790861 3.790861,2 6,2 Z M6,3 C4.34314575,3 3,4.34314575 3,6 C3,7.65685425 4.34314575,9 6,9 C6.26363661,9 6.52188668,8.96623246 6.77082915,8.9003004 L7.32700996,8.75299672 L7.73388837,9.15979572 L11.564,12.989 L12.994,13.005 L12.978,11.575 L9.15522912,7.75089095 L8.74636182,7.34192276 L8.89689778,6.78356233 C8.9650682,6.53070804 9,6.26814159 9,6 C9,4.34314575 7.65685425,3 6,3 Z"
      id="Combined-Shape" fill="#000000" fill-rule="nonzero"
      transform="translate(8.0033, 8.0087) scale(-1, 1) translate(-8.0033, -8.0087)"></path>
  </g>
</svg>