<?xml version="1.0" encoding="utf-8"?><!-- Uploaded to: SVG Repo, www.svgrepo.com, Generator: SVG Repo
Mixer Tools -->
<svg width="800px" height="800px" viewBox="0 0 24 24" fill="none" xmlns="http://www.w3.org/2000/svg">
  <path
    d="M19 18.0039V17C19 15.8954 18.1046 15 17 15C15.8954 15 15 15.8954 15 17V18.0039M10 21H4C4 17.134 7.13401 14 11 14C11.3395 14 11.6734 14.0242 12 14.0709M15.5 21H18.5C18.9659 21 19.1989 21 19.3827 20.9239C19.6277 20.8224 19.8224 20.6277 19.9239 20.3827C20 20.1989 20 19.9659 20 19.5C20 19.0341 20 18.8011 19.9239 18.6173C19.8224 18.3723 19.6277 18.1776 19.3827 18.0761C19.1989 18 18.9659 18 18.5 18H15.5C15.0341 18 14.8011 18 14.6173 18.0761C14.3723 18.1776 14.1776 18.3723 14.0761 18.6173C14 18.8011 14 19.0341 14 19.5C14 19.9659 14 20.1989 14.0761 20.3827C14.1776 20.6277 14.3723 20.8224 14.6173 20.9239C14.8011 21 15.0341 21 15.5 21ZM15 7C15 9.20914 13.2091 11 11 11C8.79086 11 7 9.20914 7 7C7 4.79086 8.79086 3 11 3C13.2091 3 15 4.79086 15 7Z"
    stroke="#000000" stroke-width="1.5" stroke-linecap="round" stroke-linejoin="round" />
</svg>