<svg height="16" viewBox="0 0 16 16" width="16" xmlns="http://www.w3.org/2000/svg">
  <path
    d="m8 2c3.3137085 0 6 2.6862915 6 6s-2.6862915 6-6 6-6-2.6862915-6-6 2.6862915-6 6-6zm0 1c-2.76142375 0-5 2.23857625-5 5 0 2.7614237 2.23857625 5 5 5 2.7614237 0 5-2.2385763 5-5 0-2.76142375-2.2385763-5-5-5zm1.48350975 2.87617992c.04461947.07647629.06813097.16342945.06813097.25197051v3.75638227c0 .2761424-.22385763.5-.5.5-.08894702 0-.17628397-.0237275-.2530034-.0687353l-3.21031859-1.88334776c-.23818094-.13972992-.31799126-.44608721-.17826134-.68426815.0434245-.07402058.10516993-.13561841.17929424-.17886564l3.21031858-1.87303446c.23851469-.13915947.54468008-.05861615.68383954.17989853z"
    fill="#000000" />
</svg>