<?xml version="1.0" encoding="UTF-8"?>
<svg width="16px" height="16px" viewBox="0 0 16 16" version="1.1" xmlns="http://www.w3.org/2000/svg"
  xmlns:xlink="http://www.w3.org/1999/xlink">
  <title>resume</title>
  <g id="resume" stroke="none" stroke-width="1" fill="none" fill-rule="evenodd">
    <path
      d="M7.5,3 C10.5375661,3 13,5.46243388 13,8.5 C13,11.5375661 10.5375661,14 7.5,14 C4.46243388,14 2,11.5375661 2,8.5 C2,5.46243388 4.46243388,3 7.5,3 Z M7.5,4 C5.01471863,4 3,6.01471863 3,8.5 C3,10.9852814 5.01471863,13 7.5,13 C9.98528137,13 12,10.9852814 12,8.5 C12,6.01471863 9.98528137,4 7.5,4 Z M7.5,6 C7.77614237,6 8,6.22385763 8,6.5 L8,10.5 C8,10.7761424 7.77614237,11 7.5,11 C7.22385763,11 7,10.7761424 7,10.5 L7,6.5 C7,6.22385763 7.22385763,6 7.5,6 Z"
      id="Combined-Shape" fill="#000000" fill-rule="nonzero"></path>
  </g>
</svg>