<?xml version="1.0" encoding="UTF-8"?>
<svg width="16px" height="16px" viewBox="0 0 16 16" version="1.1" xmlns="http://www.w3.org/2000/svg"
  xmlns:xlink="http://www.w3.org/1999/xlink">
  <title>reverseproxy_CORS</title>
  <g id="reverseproxy_CORS" stroke="none" stroke-width="1" fill="none" fill-rule="evenodd">
    <path
      d="M14,3 L14,14 L9.01449382,14 L9.79949382,13.003 L13.0232075,13.0036634 L13.0232075,4.01062736 L9.81849382,4.01 L9.01449382,3 L14,3 Z M6.25052955,2.68829789 L9.07895667,5.51672502 L6.25052955,8.34515214 L5.54342276,7.63804536 L7.18849382,5.99229789 L2.01449382,5.99309336 L2.01449382,4.99309336 L7.14049382,4.99229789 L5.54342276,3.39540467 L6.25052955,2.68829789 Z"
      id="Shape" fill="#000000"></path>
    <path
      d="M6.25052955,8.68829789 L9.07895667,11.516725 L6.25052955,14.3451521 L5.54342276,13.6380454 L7.18849382,11.9922979 L2.01449382,11.9930934 L2.01449382,10.9930934 L7.14049382,10.9922979 L5.54342276,9.39540467 L6.25052955,8.68829789 Z"
      id="Combined-Shape-Copy-3" fill-opacity="0.5" fill="#FFFFFF"></path>
  </g>
</svg>