<?xml version="1.0" encoding="UTF-8"?>
<svg width="16px" height="16px" viewBox="0 0 16 16" version="1.1" xmlns="http://www.w3.org/2000/svg"
  xmlns:xlink="http://www.w3.org/1999/xlink">
  <title>reverseproxy_headers_response</title>
  <g id="reverseproxy_headers_response" stroke="none" stroke-width="1" fill="none"
    fill-rule="evenodd">
    <path
      d="M11.2505295,2.68829789 L14.0789567,5.51672502 L11.2505295,8.34515214 L10.5434228,7.63804536 L12.1884938,5.99229789 L7.01449382,5.99309336 L7.01449382,4.99309336 L12.1404938,4.99229789 L10.5434228,3.39540467 L11.2505295,2.68829789 Z M9,3 L9,4.01 L3,4.01062736 L3,7.00366338 L9,7.003 L9,8 L2,8 L2,3 L9,3 Z"
      id="Combined-Shape" fill="#000000"></path>
    <path d="M14,9 L14,14 L2,14 L2,9 L14,9 Z M13,10 L3,10 L3,13 L13,13 L13,10 Z"
      id="Rectangle-Copy-2" fill-opacity="0.5" fill="#FFFFFF" fill-rule="nonzero"></path>
  </g>
</svg>