<?xml version="1.0" encoding="UTF-8"?>
<svg width="16px" height="16px" viewBox="0 0 16 16" version="1.1" xmlns="http://www.w3.org/2000/svg"
  xmlns:xlink="http://www.w3.org/1999/xlink">
  <title>search</title>
  <g id="search" stroke="none" stroke-width="1" fill="none" fill-rule="evenodd">
    <path
      d="M2.34765625,6.66796875 C2.34765625,7.3125 2.46875,7.91699219 2.7109375,8.48144531 C2.953125,9.04589844 3.2890625,9.54296875 3.71875,9.97265625 C4.1484375,10.4023438 4.64550781,10.7382812 5.20996094,10.9804688 C5.77441406,11.2226562 6.37890625,11.34375 7.0234375,11.34375 C7.53125,11.34375 8.015625,11.265625 8.4765625,11.109375 C8.9375,10.953125 9.359375,10.7382812 9.7421875,10.4648438 L12.625,13.3535156 C12.6953125,13.4199219 12.7724609,13.4697266 12.8564453,13.5029297 C12.9404297,13.5361328 13.0292969,13.5527344 13.1230469,13.5527344 C13.2558594,13.5527344 13.3730469,13.5224609 13.4746094,13.4619141 C13.5761719,13.4013672 13.6552734,13.3183594 13.7119141,13.2128906 C13.7685547,13.1074219 13.796875,12.9902344 13.796875,12.8613281 C13.796875,12.7675781 13.7802734,12.6796875 13.7470703,12.5976562 C13.7138672,12.515625 13.6660156,12.4433594 13.6035156,12.3808594 L10.7382812,9.49804688 C11.0390625,9.10742188 11.2744141,8.671875 11.4443359,8.19140625 C11.6142578,7.7109375 11.6992188,7.203125 11.6992188,6.66796875 C11.6992188,6.0234375 11.578125,5.41894531 11.3359375,4.85449219 C11.09375,4.29003906 10.7578125,3.79296875 10.328125,3.36328125 C9.8984375,2.93359375 9.40136719,2.59765625 8.83691406,2.35546875 C8.27246094,2.11328125 7.66796875,1.9921875 7.0234375,1.9921875 C6.37890625,1.9921875 5.77441406,2.11328125 5.20996094,2.35546875 C4.64550781,2.59765625 4.1484375,2.93359375 3.71875,3.36328125 C3.2890625,3.79296875 2.953125,4.29003906 2.7109375,4.85449219 C2.46875,5.41894531 2.34765625,6.0234375 2.34765625,6.66796875 Z M3.34960938,6.66796875 C3.34960938,6.16015625 3.44433594,5.68457031 3.63378906,5.24121094 C3.82324219,4.79785156 4.08691406,4.40722656 4.42480469,4.06933594 C4.76269531,3.73144531 5.15332031,3.46777344 5.59667969,3.27832031 C6.04003906,3.08886719 6.515625,2.99414062 7.0234375,2.99414062 C7.53125,2.99414062 8.00683594,3.08886719 8.45019531,3.27832031 C8.89355469,3.46777344 9.28320312,3.73144531 9.61914062,4.06933594 C9.95507812,4.40722656 10.21875,4.79785156 10.4101562,5.24121094 C10.6015625,5.68457031 10.6972656,6.16015625 10.6972656,6.66796875 C10.6972656,7.17578125 10.6015625,7.65136719 10.4101562,8.09472656 C10.21875,8.53808594 9.95507812,8.92773438 9.61914062,9.26367188 C9.28320312,9.59960938 8.89355469,9.86328125 8.45019531,10.0546875 C8.00683594,10.2460938 7.53125,10.3417969 7.0234375,10.3417969 C6.515625,10.3417969 6.04003906,10.2460938 5.59667969,10.0546875 C5.15332031,9.86328125 4.76269531,9.59960938 4.42480469,9.26367188 C4.08691406,8.92773438 3.82324219,8.53808594 3.63378906,8.09472656 C3.44433594,7.65136719 3.34960938,7.17578125 3.34960938,6.66796875 Z"
      id="Shape" fill="#000000" fill-rule="nonzero"></path>
  </g>
</svg>