<svg height="16" viewBox="0 0 16 16" width="16" xmlns="http://www.w3.org/2000/svg">
  <path
    d="m3.88697865 2.1833811 8.99999995 11c.1748638.2137224.1433627.5287338-.0703597.7035975-.2137224.1748638-.5287338.1433627-.7035975-.0703597l-9.00000005-11c-.17486379-.21372241-.14336265-.52873376.07035975-.70359755.21372241-.17486379.52873376-.14336265.70359755.07035975zm-.11722534 2.96620234.6381668.7784189c-.87464796.54773291-1.40792011 1.28631627-1.40792011 2.07199766 0 1.59733573 2.20418672 3 5 3 .18396693 0 .36537227-.0060732.54375659-.0178754l.7570206.924919c-.41965288.0609715-.85505489.0929564-1.30077719.0929564-3.27931896 0-6-1.7313425-6-4 0-1.1341546.67996141-2.13402168 1.76975331-2.85041656zm4.23024669-1.14958344c3.279319 0 6 1.73134248 6 4 0 1.11534491-.6575944 2.1008196-1.7158709 2.8145396l-.6374291-.7772814c.8421783-.54401794 1.3533-1.2680672 1.3533-2.0372582 0-1.59733573-2.2041867-3-5-3-.15651383 0-.31117354.00439585-.46369622.01297562l-.76150258-.93066294c.39627159-.05404477.80617471-.08231268 1.2251988-.08231268zm-1.996 3.879 1.72030312 2.10215306c-.97410586-.1343073-1.72430312-.9701212-1.72430312-1.98115306zm2.36994201-1.84410145c.92584736.17510827 1.62605799.98833338 1.62605799 1.96510145l-.001.023z"
    fill="#000000" />
</svg>