<?xml version="1.0" encoding="UTF-8"?>
<svg width="16px" height="16px" viewBox="0 0 16 16" version="1.1" xmlns="http://www.w3.org/2000/svg"
  xmlns:xlink="http://www.w3.org/1999/xlink">
  <title>snapshot</title>
  <g id="snapshot" stroke="none" stroke-width="1" fill="none" fill-rule="evenodd">
    <path
      d="M13,5 C14.1045695,5 15,5.8954305 15,7 L15,12 C15,13.1045695 14.1045695,14 13,14 L6,14 C4.8954305,14 4,13.1045695 4,12 L4,7 C4,5.8954305 4.8954305,5 6,5 L13,5 Z M13,6 L6,6 C5.44771525,6 5,6.44771525 5,7 L5,12 C5,12.5522847 5.44771525,13 6,13 L13,13 C13.5522847,13 14,12.5522847 14,12 L14,7 C14,6.44771525 13.5522847,6 13,6 Z M10,2 C11.1045695,2 12,2.8954305 12,4 L11,4 C11,3.48716416 10.6139598,3.06449284 10.1166211,3.00672773 L10,3 L3,3 C2.44771525,3 2,3.44771525 2,4 L2,9 C2,9.55228475 2.44771525,10 3,10 L3,11 C1.8954305,11 1,10.1045695 1,9 L1,4 C1,2.8954305 1.8954305,2 3,2 L10,2 Z"
      id="Combined-Shape" fill="#000000"></path>
  </g>
</svg>