<svg height="16" viewBox="0 0 16 16" width="16" xmlns="http://www.w3.org/2000/svg">
  <path
    d="m13 5c1.1045695 0 2 .8954305 2 2v5c0 1.1045695-.8954305 2-2 2h-7c-1.1045695 0-2-.8954305-2-2v-5c0-1.1045695.8954305-2 2-2zm0 1h-7c-.55228475 0-1 .44771525-1 1v5c0 .5522847.44771525 1 1 1h7c.5522847 0 1-.4477153 1-1v-5c0-.55228475-.4477153-1-1-1zm-3-4c1.1045695 0 2 .8954305 2 2h-1c0-.51283584-.3860402-.93550716-.8833789-.99327227l-.1166211-.00672773h-7c-.55228475 0-1 .44771525-1 1v5c0 .55228475.44771525 1 1 1v1c-1.1045695 0-2-.8954305-2-2v-5c0-1.1045695.8954305-2 2-2z"
    fill="#000000" fill-rule="evenodd" />
</svg>