<svg height="16" viewBox="0 0 16 16" width="16" xmlns="http://www.w3.org/2000/svg">
  <path
    d="m8.70117188 7.4765625c-3 0-4.86328125-1.79882812-4.86328125-4.69921875 0-.82617187.140625-1.55273437.34570312-1.95117187.08789063-.16992188.10546875-.26367188.10546875-.39257813 0-.20507812-.17578125-.43359375-.43945312-.43359375-.05273438 0-.17578125.01757813-.33984375.08203125-2.06250001.83789063-3.50976563 3.00585937-3.50976563 5.34375 0 3.36328125 2.44921875 5.81835935 5.81835938 5.81835935 2.40820312 0 4.37695312-1.27148435 5.28515622-3.35156248.0703125-.15820312.0878906-.29296875.0878906-.36328124 0-.2578125-.2050781-.42187501-.4042968-.42187501-.1054688 0-.1875.01171875-.3339844.07031251-.4394531.18164062-1.10742188.29882812-1.75195312.29882812zm-7.72265625-2.0859375c0-1.64648438.83789062-3.22851562 2.19726562-4.11328125-.1640625.48046875-.25195313 1.01367187-.25195313 1.59960937 0 3.43945313 2.10937501 5.49609376 5.61914063 5.49609376.52148437 0 .96679687-.05859376 1.3828125-.20507813-.8203125 1.3125-2.37890625 2.10937505-4.07226562 2.10937505-2.81835938 0-4.875-2.06250005-4.875-4.8867188z"
    fill="#000000" transform="translate(2.5 2.3672)" />
</svg>