<svg  xmlns="http://www.w3.org/2000/svg" width="16" height="16" fill="#AEAE5C" class="bi bi-plus-circle" viewBox="0 0 16 16">
  <path d="M8 15A7 7 0 1 1 8 1a7 7 0 0 1 0 14zm0 1A8 8 0 1 0 8 0a8 8 0 0 0 0 16z" />
  <path d="M 7.6632559,3.256497 V 7.9692771 H 8.3365102 V 3.256497 Z" />
  <path d="M 4.6336116,8.5159595 A 3.3655981,3.3655981 0 0 1 6.3692612,5.570472 L 6.0427329,4.9820478 a 4.0395257,4.0395257 0 1 0 3.9769131,0.035682 L 9.6823455,5.6000952 A 3.3662714,3.3662714 0 1 1 4.6336116,8.5159595 Z" />
</svg>