<?xml version="1.0" encoding="UTF-8"?>
<svg width="16px" height="16px" viewBox="0 0 16 16" version="1.1" xmlns="http://www.w3.org/2000/svg"
  xmlns:xlink="http://www.w3.org/1999/xlink">
  <title>terminal</title>
  <g id="terminal" stroke="none" stroke-width="1" fill="none" fill-rule="evenodd">
    <path
      d="M12,3 C13.1045695,3 14,3.8954305 14,5 L14,12 C14,13.1045695 13.1045695,14 12,14 L3,14 C1.8954305,14 1,13.1045695 1,12 L1,5 C1,3.8954305 1.8954305,3 3,3 L12,3 Z M12,4 L3,4 C2.44771525,4 2,4.44771525 2,5 L2,12 C2,12.5522847 2.44771525,13 3,13 L12,13 C12.5522847,13 13,12.5522847 13,12 L13,5 C13,4.44771525 12.5522847,4 12,4 Z M4.66190326,5.73849245 L6.05122,7.17717205 C6.24304461,7.37581225 6.23751949,7.69234652 6.03887929,7.88417113 L4.60019969,9.27348788 C4.40155949,9.46531249 4.08502521,9.45978736 3.8932006,9.26114716 C3.70137599,9.06250696 3.70690111,8.74597269 3.90554132,8.55414808 L4.9842585,7.51151693 L3.94256346,6.43315082 C3.75073885,6.23451062 3.75626397,5.91797635 3.95490418,5.72615173 C4.15354438,5.53432712 4.47007865,5.53985225 4.66190326,5.73849245 Z M9.5,8 C9.77614237,8 10,8.22385763 10,8.5 C10,8.77614237 9.77614237,9 9.5,9 L7.5,9 C7.22385763,9 7,8.77614237 7,8.5 C7,8.22385763 7.22385763,8 7.5,8 L9.5,8 Z"
      id="Shape" fill="#000000"></path>
  </g>
</svg>