<svg height="16" viewBox="0 0 16 16" width="16" xmlns="http://www.w3.org/2000/svg">
  <path
    d="m9 2c1.1045695 0 2 .8954305 2 2h2.5c.2761424 0 .5.22385763.5.5s-.2238576.5-.5.5h-.6l-.7199007 7.1990074c-.1022404 1.0224036-.9625715 1.8009926-1.9900744 1.8009926h-4.38004978c-1.02750289 0-1.88783402-.778589-1.99007438-1.8009926l-.71990074-7.1990074h-.6c-.27614237 0-.5-.22385763-.5-.5s.22385763-.5.5-.5h2.5c0-1.1045695.8954305-2 2-2zm3 3h-8l.89050434 7.1240347c.0625536.5004289.48795461.8759653.99227788.8759653h4.23443558c.5043233 0 .9297243-.3755364.9922779-.8759653zm-5 2c.27614237 0 .5.22385763.5.5v3c0 .2761424-.22385763.5-.5.5s-.5-.2238576-.5-.5v-3c0-.27614237.22385763-.5.5-.5zm2 0c.27614237 0 .5.22385763.5.5v3c0 .2761424-.22385763.5-.5.5s-.5-.2238576-.5-.5v-3c0-.27614237.22385763-.5.5-.5zm0-4h-2c-.55228475 0-1 .44771525-1 1h4l-.00672773-.11662113c-.05776511-.49733868-.48043643-.88337887-.99327227-.88337887z"
    fill="#000000" fill-rule="evenodd" />
</svg>