<svg xmlns="http://www.w3.org/2000/svg" width="16" height="16" fill="currentColor"
  class="bi bi-boxes" viewBox="0 0 16 16">
  <path
    d="M2.64332427,2.5001239 C3.09437443,2.50664427 3.54557392,2.50286146 3.99672362,2.50286146 L4.04644765,2.50286146 C4.06556079,2.54437281 4.09693072,2.57009342 4.1320648,2.59048201 L4.24026682,2.64611045 C4.90141218,3.03698409 5.56564352,3.42268126 6.22654001,3.8141024 C6.31533647,3.86666354 6.42588407,3.8940889 6.47963978,3.99697134 L6.48696897,4.03404038 L6.48929589,4.07043747 C6.39985238,4.73003984 6.62363537,5.31537971 6.88977587,5.9016155 C7.27174,6.74299179 7.62189867,7.5987527 7.98554604,8.44834167 C8.02048725,8.38398414 8.06075425,8.32191622 8.08957328,8.25492069 L8.77946025,6.630927 L9.13795879,5.82521272 C9.3873753,5.28442041 9.58363338,4.74442447 9.50329847,4.13877689 C9.48493194,4.00030618 9.55292295,3.93261382 9.66605879,3.87054589 C9.92637576,3.72774486 10.1824619,3.57668139 10.4351137,3.42064053 C10.9383268,3.10985293 11.4730468,2.85132783 11.9533639,2.50286146 L12.0031377,2.50286146 C12.4541879,2.50286146 12.9052878,2.50649495 13.3562384,2.50022345 C13.4630032,2.49873024 13.5068539,2.50833658 13.499139,2.63506067 C13.4847046,2.8720835 13.4950078,3.11059954 13.4950078,3.34846852 L13.4950078,4.4924695 C13.4783833,4.48505321 13.4625055,4.4863971 13.4473742,4.49650118 C12.9554598,5.71257462 12.4650883,6.92929512 11.9712327,8.14462195 L12.029,8 L10,8 C8.9456382,8 8.08183488,8.81587779 8.00548574,9.85073766 L8,10 L8,13 C8,13.2732679 8.05480535,13.5337353 8.15402416,13.7710103 L8.02735603,13.8429255 L7.97440945,13.8504537 C7.94130948,13.8488418 7.91217867,13.8353575 7.88445904,13.818334 L7.80297575,13.7649797 C7.22231462,13.4316943 6.64508788,13.0923366 6.06183851,12.76373 C5.93083388,12.6899652 5.85000123,12.5956439 5.79380661,12.4583677 C5.08388292,10.7232531 4.37147055,8.98918376 3.65646994,7.25620942 C3.2758497,6.33365207 2.8889082,5.41363319 2.50485357,4.4924695 L2.50485357,3.39819255 C2.50485357,3.14384844 2.51455946,2.88900659 2.50072234,2.63540909 C2.49385356,2.50968047 2.535564,2.49858092 2.64332427,2.5001239 Z"
    id="Combined-Shape" fill="#000000"></path>
  <rect id="Rectangle" stroke="#000000" x="9.5" y="9.5" width="4" height="4" rx="1"></rect>
</svg>