<svg height="16" viewBox="0 0 16 16" width="16" xmlns="http://www.w3.org/2000/svg">
  <path
    d="m12 3c1.1045695 0 2 .8954305 2 2v6c0 1.1045695-.8954305 2-2 2h-8c-1.1045695 0-2-.8954305-2-2v-6c0-1.1045695.8954305-2 2-2zm0 1h-8c-.55228475 0-1 .44771525-1 1v6c0 .5522847.44771525 1 1 1h8c.5522847 0 1-.4477153 1-1v-6c0-.55228475-.4477153-1-1-1zm-4 1.38985896c.27614237 0 .5.22385762.5.5l-.00039746 1.61 1.62296166.00014104c.2761423 0 .5.22385763.5.5s-.2238577.5-.5.5l-1.62296166-.00014104.00039746 1.56123404c0 .2761423-.22385763.5-.5.5s-.5-.2238577-.5-.5l-.00039746-1.56123404-1.576.00014104c-.27614237 0-.5-.22385763-.5-.5s.22385763-.5.5-.5l1.576-.00014104.00039746-1.61c0-.27614238.22385763-.5.5-.5z"
    fill="#d6d6d6" fill-rule="evenodd" />
</svg>