<svg
  fill="#d6d6d6"
  viewBox="0 0 53 53"
  xmlns="http://www.w3.org/2000/svg">
  <path
    d="M 39.075592,10.821618 H 31.853594 V 8.5272208 c 0,-1.2649777 -1.02942,-2.2943973 -2.294398,-2.2943973 h -6.118392 c -1.264978,0 -2.294398,1.0294196 -2.294398,2.2943973 v 2.2943972 h -7.221998 c -1.499771,0 -2.72039,1.22062 -2.72039,2.720391 v 3.398002 h 1.529598 27.532768 1.529598 v -3.398002 c 0,-1.499771 -1.220619,-2.720391 -2.72039,-2.720391 z m -8.751596,0 H 22.676004 V 8.5272208 c 0,-0.4221691 0.343395,-0.7647991 0.7648,-0.7647991 h 6.118392 c 0.421405,0 0.7648,0.34263 0.7648,0.7647991 z" />
  <path
    d="m 12.733616,43.915241 c 0,1.572427 1.279509,2.851936 2.851936,2.851936 h 21.828131 c 1.573192,0 2.851936,-1.279509 2.851936,-2.851936 V 18.469609 H 12.732851 v 25.445632 z" />
</svg>