<?xml version="1.0" encoding="UTF-8" standalone="no"?>
<!-- Uploaded to: SVG Repo, www.svgrepo.com, Generator: SVG Repo Mixer Tools -->

<svg
   fill="#d6d6d6"
   width="800px"
   height="800px"
   viewBox="0 0 24 24"
   version="1.1"
   id="svg1"
   xmlns="http://www.w3.org/2000/svg"
   xmlns:svg="http://www.w3.org/2000/svg">
  <defs
     id="defs1" />
  <path
     fill-rule="evenodd"
     d="m 8.44,22 c -1.1045695,0 -2,-0.895431 -2,-2 V 4 c 0,-1.1045695 0.8954305,-2 2,-2 h 11 c 1.104569,0 2,0.8954305 2,2 v 16 c 0,1.104569 -0.895431,2 -2,2 z m -0.5,-2 c 0,0.276142 0.2238576,0.5 0.5,0.5 h 11 c 0.276142,0 0.5,-0.223858 0.5,-0.5 V 4 c 0,-0.2761424 -0.223858,-0.5 -0.5,-0.5 h -11 C 8.1638576,3.5 7.94,3.7238576 7.94,4 Z M 4.61,4.165 C 4.7951447,4.5353174 4.6451957,4.9856121 4.275,5.171 4.047,5.285 3.98,5.348 3.96,5.372 3.95606,5.3766 3.95332,5.382093 3.952,5.388 3.94256,5.424548 3.938516,5.462281 3.94,5.5 v 13 c 0,0.07 0.008,0.102 0.012,0.112 9.775e-4,0.006 0.00377,0.0116 0.008,0.016 0.02,0.024 0.087,0.087 0.315,0.201 0.905149,0.443143 0.2281493,1.799163 -0.67,1.342 C 3.333,20.035 3.025,19.856 2.795,19.573 2.54,19.259 2.44,18.893 2.44,18.5 V 5.5 C 2.44,5.107 2.54,4.741 2.795,4.427 3.025,4.144 3.333,3.965 3.605,3.829 3.975584,3.6439981 4.4259757,3.7944272 4.611,4.165 Z"
     id="path1" />
</svg>
