<?xml version="1.0" encoding="UTF-8"?>
<svg width="16px" height="16px" viewBox="0 0 16 16" version="1.1" xmlns="http://www.w3.org/2000/svg" xmlns:xlink="http://www.w3.org/1999/xlink">
    <title>icon_cache-clean</title>
    <g id="icon_cache-clean" stroke="none" stroke-width="1" fill="none" fill-rule="evenodd">
        <path d="M11.5,1.53589838 C12.2174389,1.95011195 12.4632517,2.86749756 12.0490381,3.58493649 L10.2990381,6.6160254 L12.8971143,8.1160254 L11.3971143,10.7141016 L11.0838897,10.5355535 C11.1781923,11.5900484 11.4477907,12.4981215 11.8896336,13.2634139 L12.3226476,14.0134143 L3.0540923,14.0134143 L2.9380998,13.6759335 C2.10148654,11.2418023 2.42825412,8.7993538 3.90177275,6.38744616 L3.60288568,6.21410162 L5.10288568,3.6160254 L7.70096189,5.1160254 L9.45096189,2.08493649 C9.86517546,1.36749756 10.7825611,1.12168482 11.5,1.53589838 Z M4.76910324,6.88768603 L4.84656206,6.76169205 C3.56240522,8.79245371 3.1907041,10.7956476 3.7177794,12.8032376 L3.77720324,13.012462 L5.23281189,13.0140072 C5.03908437,12.5922102 4.95204684,12.0567372 4.96727143,11.421927 L5.96698396,11.445903 C5.94512853,12.3571957 6.15298858,12.8402948 6.55399878,13.0136098 L10.6542032,13.012462 L10.6235758,12.9411802 C10.2761203,12.0808769 10.0861676,11.1066418 10.0516516,10.0209402 L10.0501032,9.93568603 L4.76910324,6.88768603 Z M10.3169873,2.58493649 L8.0669873,6.48205081 L5.46810324,4.98168603 L4.96710324,5.84968603 L5.26710324,6.02368603 L10.5499819,9.06959056 L11.0311032,9.34668603 L11.5301032,8.48168603 L8.9330127,6.98205081 L11.1830127,3.08493649 C11.3210839,2.84579018 11.2391463,2.53999498 11,2.40192379 C10.7608537,2.2638526 10.4550585,2.34579018 10.3169873,2.58493649 Z" id="Combined-Shape" fill="#D6D6D6" fill-rule="nonzero"></path>
    </g>
</svg>