<?xml version="1.0" encoding="UTF-8" standalone="no"?>
<!-- Uploaded to: SVG Repo, www.svgrepo.com, Generator: SVG Repo
Mixer Tools -->

<svg
   width="800px"
   height="800px"
   viewBox="0 0 24 24"
   fill="none"
   version="1.1"
   id="svg1"
   xmlns="http://www.w3.org/2000/svg"
   xmlns:svg="http://www.w3.org/2000/svg">
  <defs
     id="defs1" />
  <path
     id="path1-2"
     style="fill:none;stroke:#d6d6d6;stroke-width:2;stroke-linecap:round;stroke-linejoin:round;stroke-opacity:1"
     d="M 11.954044,4.0426188 V 15.042619 m 0,-11.0000002 3,2.9999999 m -3,-2.9999999 -2.9999998,2.9999999 M 17,17 h 0.01 M 17.4,14 H 18 c 0.9319,0 1.3978,0 1.7654,0.1522 0.49,0.203 0.8794,0.5924 1.0824,1.0824 C 21,15.6022 21,16.0681 21,17 c 0,0.9319 0,1.3978 -0.1522,1.7654 -0.203,0.49 -0.5924,0.8794 -1.0824,1.0824 C 19.3978,20 18.9319,20 18,20 H 6 C 5.06812,20 4.60218,20 4.23463,19.8478 3.74458,19.6448 3.35523,19.2554 3.15224,18.7654 3,18.3978 3,17.9319 3,17 3,16.0681 3,15.6022 3.15224,15.2346 3.35523,14.7446 3.74458,14.3552 4.23463,14.1522 4.60218,14 5.06812,14 6,14 h 0.6" />
</svg>
