<svg height="16" viewBox="0 0 16 16" width="16" xmlns="http://www.w3.org/2000/svg">
  <path
    d="m13 7v2h1c.5522847 0 1 .44771525 1 1v5h-6v-5c0-.55228475.44771525-1 1-1h2v-2zm1 5h-4v2h2v-1h1v1h1zm-3-10c.5522847 0 1 .44771525 1 1v2c0 .18260372-.0489435.35377607-.1344277.5011143.0855433.14560201.1342471.3160561.1344272.49787361l-.4999995.00101209c-.1736558.01674814-.3406438.03416399-.5009642.05224754l.0009642-.05224754h-8v2h4.999v1h-4.999v2h4.999v1h-4.999c-.55228475 0-1-.4477153-1-1v-2c0-.18219703.04872573-.35301356.13385712-.5001295-.08491362-.14609443-.13385712-.31726678-.13385712-.4998705v-2c0-.18219703.04872573-.35301356.13385712-.5001295-.08491362-.14609443-.13385712-.31726678-.13385712-.4998705v-2c0-.55228475.44771525-1 1-1zm3 8h-4v1h4zm-3-7h-8v2h8z"
    fill="#d6d6d6" />
</svg>