<?xml version="1.0" encoding="UTF-8"?>
<svg width="16px" height="16px" viewBox="0 0 16 16" version="1.1" xmlns="http://www.w3.org/2000/svg" xmlns:xlink="http://www.w3.org/1999/xlink">
    <title>catalog_manifest_version_taint</title>
    <g id="catalog_manifest_version_taint" stroke="none" stroke-width="1" fill="none" fill-rule="evenodd">
        <path d="M13.9106454,7.91865116 C13.4206479,7.63313742 12.8300029,7.83741895 12.2319998,7.96540944 C11.1178003,8.20553745 9.67721708,7.71318009 10.568586,6.43272613 C11.068988,5.71380616 12.538793,5.02759868 12.9228939,4.19297255 C13.3361931,3.29484301 13.2725473,2.18559207 11.8828151,1.39443009 C10.9504607,0.863709904 9.60272152,1.21220091 8.84272159,2.18847443 C8.08262793,3.16470219 8.31408203,4.61837224 8.02594194,5.83042735 C7.58777967,7.68001008 6.18171419,6.44517061 6.16083481,5.10061846 C6.13540931,3.3477549 6.62050916,0.863435394 3.58971886,1.00586056 C3.35489032,1.01711549 3.13594979,1.04520706 2.93348311,1.08819082 C0.249370127,1.66363333 0.532800047,4.89942518 2.72077592,6.00581664 C4.30793661,6.80782178 6.30387377,7.12428657 6.39927214,8.00946837 C6.37670554,8.93918948 3.37905041,6.701998 2.18433295,8.81794737 C1.26451557,10.4481276 2.42389509,13.1347385 4.23163666,11.8743009 C4.56732361,11.6402807 4.92904533,11.279208 5.32059808,10.781818 C6.80961867,9.0801506 7.78977768,10.0873065 6.18323737,11.4378064 C4.92253078,12.497554 5.79470756,14.056453 6.68211621,14.5174476 C7.80885267,15.103779 8.94941497,15.2895082 10.1662538,14.3022771 C11.110489,13.5361871 10.9360958,12.4714526 10.4441534,11.9458566 C9.05435083,10.4608924 8.79770556,8.811565 10.4208603,9.46272665 C11.4996281,9.89565249 12.3738905,11.5382086 13.7026718,11.5088131 C15.2777642,11.0734167 15.5030318,8.74570537 13.9106454,7.91865116 Z" fill="#D6D6D6" fill-rule="nonzero"></path>
    </g>
</svg>