<?xml version="1.0" encoding="UTF-8"?>
<svg width="16px" height="16px" viewBox="0 0 16 16" version="1.1" xmlns="http://www.w3.org/2000/svg" xmlns:xlink="http://www.w3.org/1999/xlink">
    <title>clone</title>
    <g id="clone" stroke="none" stroke-width="1" fill="none" fill-rule="evenodd">
        <path d="M12.2192817,11.0058032 L10.7844991,11.0058032 L10.7844991,10.0836075 L12.2079395,10.0836075 C12.4914934,10.0836075 12.7088847,10.0072352 12.8601134,9.85449059 C13.0113422,9.70174596 13.0869565,9.47644763 13.0869565,9.1785956 L13.0869565,3.82720764 C13.0869565,3.52935561 13.0113422,3.30405728 12.8601134,3.15131265 C12.7088847,2.99856802 12.4914934,2.9221957 12.2079395,2.9221957 L6.78881341,2.9221957 C6.50904025,2.9221957 6.29259413,2.99856802 6.13947503,3.15131265 C5.98635594,3.30405728 5.9097964,3.52935561 5.9097964,3.82720764 L5.9097964,5.08162291 L4.99675292,5.08162291 L4.99675292,3.77565632 C4.99675292,3.1875895 5.14514611,2.74463007 5.4419325,2.44677804 C5.73871889,2.14892601 6.18200812,2 6.77180018,2 L12.2192817,2 C12.8128544,2 13.258034,2.14797136 13.5548204,2.44391408 C13.8516068,2.7398568 14,3.18377088 14,3.77565632 L14,9.23014692 C14,9.82203236 13.8516068,10.2659464 13.5548204,10.5618892 C13.258034,10.8578319 12.8128544,11.0058032 12.2192817,11.0058032 Z M9.18955207,14 L3.77504726,14 C3.1852552,14 2.74196597,13.851074 2.44517958,13.553222 C2.14839319,13.2553699 2,12.8124105 2,12.2243437 L2,6.78231691 C2,6.19425008 2.14839319,5.75129066 2.44517958,5.45343863 C2.74196597,5.1555866 3.1852552,5.00666058 3.77504726,5.00666058 L9.18955207,5.00666058 C9.78312485,5.00666058 10.2283044,5.15463194 10.5250908,5.45057466 C10.8218772,5.74651739 10.9702704,6.19043147 10.9702704,6.78231691 L10.9702704,12.2243437 C10.9702704,12.8162291 10.8218772,13.2601432 10.5250908,13.5560859 C10.2283044,13.8520286 9.78312485,14 9.18955207,14 Z M9.17820992,13.0778043 C9.46176379,13.0778043 9.67915509,13.001432 9.83038383,12.8486874 C9.98161256,12.6959427 10.0572269,12.4706444 10.0572269,12.1727924 L10.0572269,6.83386822 C10.0572269,6.53601619 9.98161256,6.31071786 9.83038383,6.15797323 C9.67915509,6.0052286 9.46176379,5.92885629 9.17820992,5.92885629 L3.79206049,5.92885629 C3.51228733,5.92885629 3.29584121,6.0052286 3.14272212,6.15797323 C2.98960302,6.31071786 2.91304348,6.53601619 2.91304348,6.83386822 L2.91304348,12.1727924 C2.91304348,12.4706444 2.98960302,12.6959427 3.14272212,12.8486874 C3.29584121,13.001432 3.51228733,13.0778043 3.79206049,13.0778043 L9.17820992,13.0778043 Z" id="Shape" fill="#D6D6D6" fill-rule="nonzero"></path>
    </g>
</svg>