<?xml version="1.0" encoding="UTF-8"?>
<svg width="16px" height="16px" viewBox="0 0 16 16" version="1.1" xmlns="http://www.w3.org/2000/svg" xmlns:xlink="http://www.w3.org/1999/xlink">
    <title>close</title>
    <g id="close" stroke="none" stroke-width="1" fill="none" fill-rule="evenodd">
        <path d="M3.88857325,12.1813211 C3.95302638,12.2421935 4.02643132,12.2833719 4.1087881,12.3048562 C4.19114487,12.3263406 4.27350164,12.3263406 4.35585841,12.3048562 C4.43821518,12.2833719 4.50982976,12.2421935 4.57070216,12.1813211 L8.00820216,8.74382109 L11.4457022,12.1813211 C11.5065746,12.2421935 11.5781891,12.2833719 11.6605459,12.3048562 C11.7429027,12.3263406 11.8261546,12.3272358 11.9103018,12.3075418 C11.9944489,12.2878478 12.0669587,12.2457742 12.1278311,12.1813211 C12.1887035,12.1204487 12.2289867,12.0488341 12.2486807,11.9664773 C12.2683747,11.8841206 12.2683747,11.8017638 12.2486807,11.719407 C12.2289867,11.6370503 12.1887035,11.5654357 12.1278311,11.5045633 L8.69033106,8.06169218 L12.1278311,4.62419218 C12.1887035,4.56331979 12.2298818,4.4917052 12.2513662,4.40934843 C12.2728506,4.32699166 12.2728506,4.24463489 12.2513662,4.16227812 C12.2298818,4.07992135 12.1887035,4.00830677 12.1278311,3.94743437 C12.0633779,3.88298124 11.989973,3.84090768 11.9076162,3.82121367 C11.8252594,3.80151966 11.7429027,3.80151966 11.6605459,3.82121367 C11.5781891,3.84090768 11.5065746,3.88298124 11.4457022,3.94743437 L8.00820216,7.38493437 L4.57070216,3.94743437 C4.50982976,3.88298124 4.43732,3.84090768 4.35317286,3.82121367 C4.26902573,3.80151966 4.18577377,3.80151966 4.103417,3.82121367 C4.02106023,3.84090768 3.94944565,3.88298124 3.88857325,3.94743437 C3.82770086,4.00830677 3.78741765,4.07992135 3.76772364,4.16227812 C3.74802963,4.24463489 3.74802963,4.32699166 3.76772364,4.40934843 C3.78741765,4.4917052 3.82770086,4.56331979 3.88857325,4.62419218 L7.32607325,8.06169218 L3.88857325,11.5045633 C3.82770086,11.5654357 3.78652247,11.6370503 3.7650381,11.719407 C3.74355372,11.8017638 3.74265854,11.8841206 3.76235255,11.9664773 C3.78204656,12.0488341 3.82412013,12.1204487 3.88857325,12.1813211 Z" id="Path" fill="#D6D6D6" fill-rule="nonzero"></path>
    </g>
</svg>