<?xml version="1.0" encoding="UTF-8"?>
<svg width="16px" height="16px" viewBox="0 0 16 16" version="1.1" xmlns="http://www.w3.org/2000/svg" xmlns:xlink="http://www.w3.org/1999/xlink">
    <title>collapse</title>
    <g id="collapse" stroke="none" stroke-width="1" fill="none" fill-rule="evenodd">
        <path d="M3.78071834,11.0058032 L5.21550095,11.0058032 L5.21550095,10.0836075 L3.79206049,10.0836075 C3.50850662,10.0836075 3.29111531,10.0072352 3.13988658,9.85449059 C2.98865784,9.70174596 2.91304348,9.47644763 2.91304348,9.1785956 L2.91304348,3.82720764 C2.91304348,3.52935561 2.98865784,3.30405728 3.13988658,3.15131265 C3.29111531,2.99856802 3.50850662,2.9221957 3.79206049,2.9221957 L9.21118659,2.9221957 C9.49095975,2.9221957 9.70740587,2.99856802 9.86052497,3.15131265 C10.0136441,3.30405728 10.0902036,3.52935561 10.0902036,3.82720764 L10.0902036,5.08162291 L11.0032471,5.08162291 L11.0032471,3.77565632 C11.0032471,3.1875895 10.8548539,2.74463007 10.5580675,2.44677804 C10.2612811,2.14892601 9.81799188,2 9.22819982,2 L3.78071834,2 C3.18714556,2 2.74196597,2.14797136 2.44517958,2.44391408 C2.14839319,2.7398568 2,3.18377088 2,3.77565632 L2,9.23014692 C2,9.82203236 2.14839319,10.2659464 2.44517958,10.5618892 C2.74196597,10.8578319 3.18714556,11.0058032 3.78071834,11.0058032 Z M6.81044793,14 L12.2249527,14 C12.8147448,14 13.258034,13.851074 13.5548204,13.553222 C13.8516068,13.2553699 14,12.8124105 14,12.2243437 L14,6.78231691 C14,6.19425008 13.8516068,5.75129066 13.5548204,5.45343863 C13.258034,5.1555866 12.8147448,5.00666058 12.2249527,5.00666058 L6.81044793,5.00666058 C6.21687515,5.00666058 5.77169557,5.15463194 5.47490918,5.45057466 C5.17812279,5.74651739 5.02972959,6.19043147 5.02972959,6.78231691 L5.02972959,12.2243437 C5.02972959,12.8162291 5.17812279,13.2601432 5.47490918,13.5560859 C5.77169557,13.8520286 6.21687515,14 6.81044793,14 Z M6.82179008,13.0778043 C6.53823621,13.0778043 6.32084491,13.001432 6.16961617,12.8486874 C6.01838744,12.6959427 5.94277307,12.4706444 5.94277307,12.1727924 L5.94277307,6.83386822 C5.94277307,6.53601619 6.01838744,6.31071786 6.16961617,6.15797323 C6.32084491,6.0052286 6.53823621,5.92885629 6.82179008,5.92885629 L12.2079395,5.92885629 C12.4877127,5.92885629 12.7041588,6.0052286 12.8572779,6.15797323 C13.010397,6.31071786 13.0869565,6.53601619 13.0869565,6.83386822 L13.0869565,12.1727924 C13.0869565,12.4706444 13.010397,12.6959427 12.8572779,12.8486874 C12.7041588,13.001432 12.4877127,13.0778043 12.2079395,13.0778043 L6.82179008,13.0778043 Z M6.99812037,9.509366 C6.99812037,9.64683616 7.04348899,9.75948533 7.13422623,9.84731349 C7.22496347,9.93514165 7.34216574,9.97905573 7.48583304,9.97905573 L8.9073724,9.97905573 L9.85444234,9.97905573 L11.5274102,9.97905573 C11.6710775,9.97905573 11.7873346,9.93514165 11.8761815,9.84731349 C11.9650284,9.75948533 12.0094518,9.64683616 12.0094518,9.509366 C12.0094518,9.3642586 11.9650284,9.24683616 11.8761815,9.15709869 C11.7873346,9.06736122 11.6710775,9.02249249 11.5274102,9.02249249 L9.85444234,9.02249249 L8.9073724,9.02249249 L7.48583304,9.02249249 C7.33838502,9.02249249 7.22023758,9.06736122 7.1313907,9.15709869 C7.04254381,9.24683616 6.99812037,9.3642586 6.99812037,9.509366 Z" id="Shape" fill="#D6D6D6" fill-rule="nonzero" transform="translate(8, 8) scale(-1, 1) translate(-8, -8)"></path>
    </g>
</svg>