<?xml version="1.0" encoding="UTF-8"?>
<svg width="16px" height="16px" viewBox="0 0 16 16" version="1.1" xmlns="http://www.w3.org/2000/svg" xmlns:xlink="http://www.w3.org/1999/xlink">
    <title>controller_terminal</title>
    <g id="controller_terminal" stroke="none" stroke-width="1" fill="none" fill-rule="evenodd">
        <path d="M12,2 C13.1045695,2 14,2.8954305 14,4 L14,11 C14,12.1045695 13.1045695,13 12,13 L4,13 C2.8954305,13 2,12.1045695 2,11 L2,4 C2,2.8954305 2.8954305,2 4,2 L12,2 Z M12,3 L4,3 C3.44771525,3 3,3.44771525 3,4 L3,11 C3,11.5522847 3.44771525,12 4,12 L12,12 C12.5522847,12 13,11.5522847 13,11 L13,4 C13,3.44771525 12.5522847,3 12,3 Z M8.64170005,5.08518543 C8.9084331,5.15665634 9.06672434,5.43082482 8.99525344,5.69755787 L7.95997726,9.56126118 C7.88850635,9.82799423 7.61433787,9.98628547 7.34760482,9.91481457 C7.08087177,9.84334366 6.92258053,9.56917518 6.99405143,9.30244213 L8.02932761,5.43873882 C8.10079852,5.17200577 8.374967,5.01371453 8.64170005,5.08518543 Z M10.449213,6.15008764 L10.507021,6.20883153 C10.5843139,6.28737568 10.6391668,6.34311669 10.9408581,6.64969225 C11.1252251,6.83704398 11.1252251,6.83704398 11.2788642,6.99317042 L11.317334,7.03226302 L11.3625855,7.07824714 L11.3902525,7.10636209 L11.4119825,7.12844387 L11.4214605,7.13807528 C11.4264417,7.14313719 11.4264417,7.14313719 11.4296825,7.14643048 C11.6241395,7.34403557 11.6239746,7.65654241 11.4321331,7.85107886 C11.423811,7.85951789 11.423811,7.85951789 11.4167692,7.8666586 L11.3911627,7.89262483 L11.3706775,7.91339781 C11.2989792,7.98610326 11.2989792,7.98610326 11.1863106,8.10035467 C10.8995176,8.39117643 10.8995176,8.39117643 10.4488429,8.84818207 C10.2549474,9.04480136 9.93837261,9.04700942 9.74175332,8.85311392 C9.54513403,8.65921842 9.54292596,8.34264363 9.73682146,8.14602434 C10.1055553,7.77211064 10.1725978,7.70412633 10.3418663,7.53247999 L10.3744773,7.49879077 L10.3635265,7.48872109 C10.3470245,7.47195195 10.3285309,7.45315895 10.3064808,7.43075192 L10.2280964,7.35109852 C10.0604902,7.18077877 9.96906854,7.08787708 9.90765908,7.02547342 L9.8454185,6.96222521 C9.83646103,6.95312272 9.82796529,6.94448943 9.81956189,6.93594998 L9.76729458,6.88283649 L9.73645133,6.85149391 C9.54276334,6.6546702 9.54530534,6.33809791 9.74212905,6.14440992 C9.93895275,5.95072193 10.255525,5.95326393 10.449213,6.15008764 Z M5.60067683,6.15008764 C5.79436482,5.95326393 6.1109371,5.95072193 6.30776081,6.14440992 C6.50458452,6.33809791 6.50712652,6.6546702 6.31343853,6.85149391 L6.28259528,6.88283649 L6.23032797,6.93594998 C6.22192457,6.94448943 6.21342882,6.95312272 6.20447135,6.96222521 L6.14223078,7.02547342 C6.08082131,7.08787708 5.9893997,7.18077877 5.82179341,7.35109852 L5.74340902,7.43075192 C5.72135896,7.45315895 5.70286537,7.47195195 5.68636339,7.48872109 L5.67541256,7.49879077 L5.70802354,7.53247999 C5.87729204,7.70412633 5.94433456,7.77211064 6.31306839,8.14602434 C6.5069639,8.34264363 6.50475583,8.65921842 6.30813654,8.85311392 C6.11151725,9.04700942 5.79494246,9.04480136 5.60104696,8.84818207 C5.15037227,8.39117643 5.15037227,8.39117643 4.86357929,8.10035467 C4.75091061,7.98610326 4.75091061,7.98610326 4.67921237,7.91339781 L4.65872715,7.89262483 L4.63312064,7.8666586 C4.62607885,7.85951789 4.62607885,7.85951789 4.61775673,7.85107886 C4.42591521,7.65654241 4.42575039,7.34403557 4.62020731,7.14643048 C4.62344814,7.14313719 4.62344814,7.14313719 4.6284294,7.13807528 L4.63790737,7.12844387 L4.68730439,7.07824714 L4.7325559,7.03226302 L4.77102569,6.99317042 C4.92466479,6.83704398 4.92466479,6.83704398 5.10903171,6.64969225 C5.41072303,6.34311669 5.465576,6.28737568 5.54286882,6.20883153 Z" id="Combined-Shape" fill="#D6D6D6" fill-rule="nonzero"></path>
    </g>
</svg>