<svg xmlns="http://www.w3.org/2000/svg" width="16" height="16"
  class="bi bi-pencil-square" viewBox="0 0 16 16">
  <g id="icon/icon_docker-container" stroke="none" stroke-width="1" fill="none" fill-rule="evenodd">
    <path d="M12.0333021,4.37587268 C12.4565871,4.70121767 12.8068451,5.0807573 12.9307017,5.61007015 C12.9752145,5.80051887 13.0546764,5.81834761 13.2088773,5.80329354 C13.7697151,5.74833144 14.3025111,5.82253914 14.7729655,6.16341047 L14.7729655,6.22244604 C14.4911887,7.10048195 13.947058,7.53669572 13.0361983,7.59236626 C12.8319352,7.60482276 12.7210664,7.68139189 12.6368227,7.86853462 L12.574,8 L10,8 C8.9456382,8 8.08183488,8.81587779 8.00548574,9.85073766 L8,10 L8.00079366,11.7544574 C7.55609735,11.8635777 7.09967025,11.9339518 6.63225661,11.9715062 C6.02926737,12.0199744 5.43655033,12.0111781 4.84460075,11.9095189 C3.21462887,11.6297493 2.17229698,10.6722515 1.64747083,9.12097407 C1.54905855,8.83010586 1.57060653,8.52211733 1.5,8.22817926 L1.5,7.16630661 C1.54992722,7.05004872 1.63741431,7.0298441 1.73238411,7.02778904 L1.84801464,7.02904892 C4.65568695,7.0293441 7.46341829,7.03040674 10.2710906,7.02798628 C10.653641,7.02769111 11.0350698,7.00395881 11.3993783,6.86646498 C11.5153831,6.8226606 11.5645598,6.78263449 11.4967869,6.63563594 C11.1400941,5.86156164 11.2933504,5.13211824 11.7174619,4.43000829 C11.8116826,4.27403634 11.8844735,4.26146176 12.0333021,4.37587268 Z" id="Combined-Shape" fill="#FFDB58"></path>
    <rect id="Rectangle" stroke="#FFDB58" x="9.5" y="9.5" width="4" height="4" rx="1"></rect>
    <rect id="Rectangle" stroke="#FFDB58" x="4.5" y="4.5" width="1" height="1"></rect>
    <rect id="Rectangle-Copy" stroke="#FFDB58" x="7.5" y="4.5" width="1" height="1"></rect>
    <rect id="Rectangle-Copy-2" stroke="#FFDB58" x="7.5" y="1.5" width="1" height="1"></rect>
</g>
</svg>