<svg xmlns="http://www.w3.org/2000/svg" width="16" height="16" fill="#d6d6d6"
  class="bi bi-pencil-square" viewBox="0 0 16 16">
  <path
    stroke="#d6d6d6"
    stroke-width="1.34901"
    d="m 9.0369411,7.1877896 h 1.4910139 m -3.26603,0 h 1.4910135 m -3.2305294,0 h 1.4910135 m -3.2305292,0 h 1.4555131 m -3.2305292,0 H 3.4988908 M 3.7828934,5.5547719 h 1.4555131 m 0.2840026,0 h 1.4910135 m 0.2485024,0 H 8.7529385 M 7.261925,3.921761 h 1.4910135"
    id="path190" />
  <path
    fill="#d6d6d6"
    d="m 15.284996,7.2587886 c 0,0 -0.639006,-0.603501 -1.952517,-0.3905029 -0.142001,-1.0295099 -1.242511,-1.6330109 -1.242511,-1.6330109 0,0 -1.02951,1.242508 -0.284003,2.6270208 -0.213002,0.106499 -0.568005,0.248505 -1.10051,0.248505 H 0.94286831 c -0.17750224,0.6745 -0.17750224,5.1475434 4.72154209,5.1475434 3.5145313,0 6.1415546,-1.633011 7.3840656,-4.6150424 1.846017,0.141999 2.23652,-1.384513 2.23652,-1.384513"
    id="path192"
    style="stroke-width:0.0355003" />
</svg>