<?xml version="1.0" encoding="UTF-8"?>
<svg width="16px" height="16px" viewBox="0 0 16 16" version="1.1" xmlns="http://www.w3.org/2000/svg" xmlns:xlink="http://www.w3.org/1999/xlink">
    <title>docker_container</title>
    <g id="docker_container" stroke="none" stroke-width="1" fill="none" fill-rule="evenodd">
        <path d="M13.8,9 C14.4627417,9 15,9.5372583 15,10.2 L15,13.8 C15,14.4627417 14.4627417,15 13.8,15 L9.2,15 C8.5372583,15 8,14.4627417 8,13.8 L8,10.2 C8,9.5372583 8.5372583,9 9.2,9 L13.8,9 Z M14,10 L9,10 L9,14 L14,14 L14,10 Z M13,11 L13,13 L12,13 L12,11 L13,11 Z M11,11 L11,13 L10,13 L10,11 L11,11 Z M12.0333021,4.37587268 C12.4095554,4.66506822 12.7281084,4.99708423 12.8812413,5.43904858 L12.9307017,5.61007015 C12.9688556,5.77331191 13.0326862,5.80973083 13.147251,5.80732466 L13.2088773,5.80329354 C13.7697151,5.74833144 14.3025111,5.82253914 14.7729655,6.16341047 L14.7729655,6.22244604 C14.5099738,7.04194623 14.0184427,7.47657023 13.2135114,7.57614008 L13.0361983,7.59236626 C12.8319352,7.60482276 12.7210664,7.68139189 12.6368227,7.86853462 L12.574,8 L9,8 C7.9456382,8 7.08183488,8.81587779 7.00548574,9.85073766 L7,10 L7.00097257,11.9346918 C6.87884566,11.9493343 6.75593574,11.9615692 6.63225661,11.9715062 C6.02926737,12.0199744 5.43655033,12.0111781 4.84460075,11.9095189 C3.21462887,11.6297493 2.17229698,10.6722515 1.64747083,9.12097407 C1.54905855,8.83010586 1.57060653,8.52211733 1.5,8.22817926 L1.5,7.16630661 C1.54992722,7.05004872 1.63741431,7.0298441 1.73238411,7.02778904 L1.84801464,7.02904892 L10.2710906,7.02798628 C10.653641,7.02769111 11.0350698,7.00395881 11.3993783,6.86646498 C11.498811,6.82891837 11.5491455,6.79414763 11.5188184,6.69240887 L11.4967869,6.63563594 C11.1400941,5.86156164 11.2933504,5.13211824 11.7174619,4.43000829 C11.8116826,4.27403634 11.8844735,4.26146176 12.0333021,4.37587268 Z M6,4 L6,6 L4,6 L4,4 L6,4 Z M9,4 L9,6 L7,6 L7,4 L9,4 Z M9,1 L9,3 L7,3 L7,1 L9,1 Z" id="Shape" fill="#D6D6D6"></path>
    </g>
</svg>