<svg xmlns="http://www.w3.org/2000/svg" width="16" height="16" fill="#d6d6d6"
  class="bi bi-pencil-square" viewBox="0 0 16 16">
  <path
     d="M 5.1862732,4.2447201 A 4.3294127,4.3294127 0 0 1 8,3.1940742 c 2.105989,0 3.854195,1.5657912 4.044439,3.5848789 1.24637,0.1761516 2.218726,1.2197514 2.218726,2.5005686 0,1.4060803 -1.172778,2.5264043 -2.593733,2.5264043 H 4.6969634 c -1.6229426,0 -2.9601283,-1.279252 -2.9601283,-2.8826218 0,-1.3802449 0.9911459,-2.5232725 2.3032789,-2.8129439 C 4.1520681,5.4347214 4.5865751,4.7614312 5.1862732,4.2447201 Z M 5.697504,4.837372 C 5.104852,5.3486029 4.7948254,5.9647417 4.7948254,6.4470054 V 6.7977426 L 4.4464368,6.8361045 C 3.3527317,6.9558876 2.5197307,7.8538688 2.5197307,8.9233042 c 0,1.1485078 0.9629616,2.0997258 2.1772327,2.0997258 h 6.9724686 c 1.012284,0 1.810837,-0.79229 1.810837,-1.7435083 0,-0.952001 -0.798553,-1.7442914 -1.810837,-1.7442914 H 11.277984 V 7.1437825 C 11.278767,5.4057542 9.822581,3.9769698 8,3.9769698 A 3.5465171,3.5465171 0 0 0 5.697504,4.8381549 Z"
     id="path156"
     style="stroke-width:0.782896" />
</svg>