<svg width="16px" height="16px" viewBox="0 0 16 16" version="1.1" xmlns="http://www.w3.org/2000/svg" xmlns:xlink="http://www.w3.org/1999/xlink">
  <g id="icon/icon_docker" stroke="none" stroke-width="1" fill="none" fill-rule="evenodd">
    <path d="M1.5,9.16630661 C1.56989811,9.00354556 1.71341356,9.02904892 1.84801464,9.02904892 C4.65568695,9.0293441 7.46341829,9.03040674 10.2710906,9.02798628 C10.653641,9.02769111 11.0350698,9.00395881 11.3993783,8.86646498 C11.5153831,8.8226606 11.5645598,8.78263449 11.4967869,8.63563594 C11.1400941,7.86156164 11.2933504,7.13211824 11.7174619,6.43000829 C11.8116826,6.27403634 11.8844735,6.26146176 12.0333021,6.37587268 C12.4565871,6.70121767 12.8068451,7.0807573 12.9307017,7.61007015 C12.9752145,7.80051887 13.0546764,7.81834761 13.2088773,7.80329354 C13.7697151,7.74833144 14.3025111,7.82253914 14.7729655,8.16341047 L14.7729655,8.22244604 C14.4911887,9.10048195 13.947058,9.53669572 13.0361983,9.59236626 C12.8319352,9.60482276 12.7210664,9.68139189 12.6368227,9.86853462 C12.0132891,11.2538631 11.073561,12.3591269 9.72631043,13.091286 C8.7616103,13.6155218 7.72707111,13.8835432 6.63225661,13.9715062 C6.02926737,14.0199744 5.43655033,14.0111781 4.84460075,13.9095189 C3.21462887,13.6297493 2.17229698,12.6722515 1.64747083,11.1209741 C1.54905855,10.8301059 1.57060653,10.5221173 1.5,10.2281793 L1.5,9.16630661 Z" id="Fill-1" fill="#d6d6d6"></path>
    <rect id="Rectangle" stroke="#d6d6d6" x="4.5" y="6.5" width="1" height="1"></rect>
    <rect id="Rectangle-Copy" stroke="#d6d6d6" x="7.5" y="6.5" width="1" height="1"></rect>
    <rect id="Rectangle-Copy-2" stroke="#d6d6d6" x="7.5" y="3.5" width="1" height="1"></rect>
</g>
</svg>