<?xml version="1.0" encoding="UTF-8" standalone="no"?>
<svg
   width="16px"
   height="16px"
   viewBox="0 0 16 16"
   version="1.1"
   id="svg1"
   xmlns="http://www.w3.org/2000/svg"
   xmlns:svg="http://www.w3.org/2000/svg"
   xmlns:rdf="http://www.w3.org/1999/02/22-rdf-syntax-ns#"
   xmlns:cc="http://creativecommons.org/ns#"
   xmlns:dc="http://purl.org/dc/elements/1.1/">
  <defs
     id="defs1" />
  <title
     id="title1">dots</title>
  <g
     id="dots"
     stroke="none"
     stroke-width="1"
     fill="none"
     fill-rule="evenodd">
    <path
       d="m 8.0502866,8.8652344 c 0.203125,0 0.3886719,-0.049805 0.5566407,-0.1494141 C 8.774896,8.6162109 8.9086851,8.4824219 9.0082944,8.3144531 9.1079038,8.1464844 9.1577085,7.9609375 9.1577085,7.7578125 c 0,-0.2070313 -0.049805,-0.3945313 -0.1494141,-0.5625 C 8.9086851,7.0273437 8.774896,6.8935547 8.6069273,6.7939453 8.4389585,6.6943359 8.2534116,6.6445312 8.0502866,6.6445312 c -0.2070312,0 -0.3945312,0.049805 -0.5625,0.1494141 -0.1679687,0.099609 -0.3017578,0.2333984 -0.4013672,0.4013672 -0.099609,0.1679687 -0.149414,0.3554687 -0.149414,0.5625 0,0.203125 0.049805,0.3886719 0.149414,0.5566406 0.099609,0.1679688 0.2333985,0.3017578 0.4013672,0.4013672 0.1679688,0.099609 0.3554688,0.1494141 0.5625,0.1494141 z"
       id="Shape"
       fill="#d6d6d6"
       fill-rule="nonzero" />
  </g>
  <metadata
     id="metadata1">
    <rdf:RDF>
      <cc:Work
         rdf:about="">
        <dc:title>dots</dc:title>
      </cc:Work>
    </rdf:RDF>
  </metadata>
</svg>
