<svg xmlns="http://www.w3.org/2000/svg" width="16" height="16" fill="#cc0000"
  class="bi bi-question-circle" viewBox="0 0 16 16">
  <path
    d="M7.61311415,2.73760644 C7.98139871,2.62928745 8.39100558,2.66146429 8.75464183,2.85981134 C9.00749161,2.9977294 9.21528893,3.20552672 9.353207,3.4583765 L13.6204863,11.2817218 C13.8188333,11.6453581 13.8510101,12.0549649 13.7426911,12.4232495 C13.6343722,12.791534 13.3855573,13.1184963 13.0219211,13.3168434 C12.8015882,13.4370249 12.5546214,13.5 12.3036429,13.5 L3.76908438,13.5 C3.35487082,13.5 2.97987082,13.3321068 2.70842421,13.0606602 C2.4369776,12.7892136 2.26908438,12.4142136 2.26908438,12 C2.26908438,11.7490215 2.33205944,11.5020547 2.45224102,11.2817218 L6.71952028,3.4583765 C6.91786732,3.09474025 7.24482959,2.84592543 7.61311415,2.73760644 Z"
    id="Triangle" stroke="#cc0000"></path>
  <path
    d="M8,5.5 C8.27614237,5.5 8.5,5.72385763 8.5,6 L8.5,9 C8.5,9.27614237 8.27614237,9.5 8,9.5 C7.72385763,9.5 7.5,9.27614237 7.5,9 L7.5,6 C7.5,5.72385763 7.72385763,5.5 8,5.5 Z M8,11.5 C8.27614237,11.5 8.5,11.2761424 8.5,11 C8.5,10.7238576 8.27614237,10.5 8,10.5 C7.72385763,10.5 7.5,10.7238576 7.5,11 C7.5,11.2761424 7.72385763,11.5 8,11.5 Z"
    id="Combined-Shape" fill="#cc0000"></path>
</svg>