<?xml version="1.0" encoding="UTF-8"?>
<svg width="16px" height="16px" viewBox="0 0 16 16" version="1.1" xmlns="http://www.w3.org/2000/svg" xmlns:xlink="http://www.w3.org/1999/xlink">
    <title>docker_logs</title>
    <g id="docker_logs" stroke="none" stroke-width="1" fill="none" fill-rule="evenodd">
        <path d="M2,7 L5,7 L5,6 L3,6 L3,3.01070283 L2,3.01070283 L2,7 Z M9,3 L9,7 L6,7 L6,3 L9,3 Z M8,4 L7,4 L7,6 L8,6 L8,4 Z M11,6 L12,6 L12,5 L13,5 L13,7 L10,7 L10,3 L13,3 L13,4 L11,4 L11,6 Z M4,9 L13,9 L13,10 L4,10 L4,9 Z M4,12 L9,12 L9,13 L4,13 L4,12 Z M2,9 L3,9 L3,10 L2,10 L2,9 Z M2,12 L3,12 L3,13 L2,13 L2,12 Z" id="Shape" fill="#D6D6D6" fill-rule="nonzero"></path>
    </g>
</svg>