<?xml version="1.0" encoding="UTF-8"?>
<svg width="16px" height="16px" viewBox="0 0 16 16" version="1.1" xmlns="http://www.w3.org/2000/svg" xmlns:xlink="http://www.w3.org/1999/xlink">
    <title>management_information_item</title>
    <g id="management_information_item" stroke="none" stroke-width="1" fill="none" fill-rule="evenodd">
        <path d="M12.2,3 C13.7463973,3 15,3.8954305 15,5 L15,11 C15,12.1045695 13.7463973,13 12.2,13 L3.8,13 C2.2536027,13 1,12.1045695 1,11 L1,5 C1,3.8954305 2.2536027,3 3.8,3 L12.2,3 Z M12.5,4 L3.5,4 C2.67157288,4 2,4.44771525 2,5 L2,11 C2,11.5522847 2.67157288,12 3.5,12 L12.5,12 C13.3284271,12 14,11.5522847 14,11 L14,5 C14,4.44771525 13.3284271,4 12.5,4 Z M11,8 L11,9 L9,9 L9,8 L11,8 Z M6,6 C6.55228475,6 7,6.44771525 7,7 L7,8 C7,8.55228475 6.55228475,9 6,9 L5,9 C4.44771525,9 4,8.55228475 4,8 L4,7 C4,6.44771525 4.44771525,6 5,6 L6,6 Z M12,6 L12,7 L9,7 L9,6 L12,6 Z" id="Combined-Shape" fill="#D6D6D6" fill-rule="nonzero"></path>
    </g>
</svg>