<svg height="16" viewBox="0 0 16 16" width="16" xmlns="http://www.w3.org/2000/svg">
  <path
    d="m11 11v4h-1v-4zm4 0v3h-2v1h-1v-4zm-7.49539488-9.43351711.32788436.44340175c2.71658132.16198463 4.90212352 2.29576758 5.14505892 4.98978123l.0224516.00033413v1l-.0224516.00033413c-.0644469.71467895-.265606 1.3899313-.577124 1.99940374l-1.0585356.00059893c.3829737-.58725912.6349347-1.26771422.7144412-1.99992792l-2.17374783-.00065921c-.04966505.65522372-.20219005 1.32543563-.43792841 2.00029343l-.44465376-.0000431.00222358 1.0763079c-.03373978.0717066-.06829649.1434037-.10364678.2150791-.11540024.2339829-.23513712.4589334-.35695289.6734196.15615297-.0363315.30924188-.0806384.45881395-.1324679l.00052567.9603562c-.35645647.1008895-.72762972.1667394-1.10956315.1935933l-.39279448.5319431-.39100331-.5320133c-2.68874615-.1895336-4.84400397-2.3117024-5.08515096-4.98588387l-.02245163-.00033413v-1l.02245163-.00033413c.24296518-2.69434419 2.42901386-4.82832019 5.14605882-4.98984077zm6.49539488 10.43351711h-1v1h1zm-8.88760963-3.99990252-2.1687204.0003114c.21162069 1.94891578 1.64499805 3.53114662 3.51832391 3.96488432-.12461237-.2192982-.24704235-.4501087-.36496109-.6902672-.54174278-1.1033373-.89777042-2.209843-.98464242-3.27492852zm1.00407091-.00077854c.08736627.90098066.40183375 1.8647656.8782055 2.83496536.15035269.306215.30888633.5964107.46930992.8660149l.03672287.0596641.03399602-.0533776c.10642706-.1778756.21201999-.3648742.31492289-.5596643l.15210485-.2978621c.48035685-.97396042.79527399-1.94297828.87727771-2.8494704zm.33936303-4.96199855c-1.87373888.43839936-3.30102005 2.0178344-3.51215434 3.96227073l2.16480606.00009872c.0899131-1.33905244.54099716-2.66104491 1.34734828-3.96236945zm1.03987526.23164291-.02199014.03293333c-.81483444 1.23180183-1.26674622 2.46316283-1.3626271 3.69829473l2.76674274.00014978c-.10203479-1.22167205-.55181506-2.45095763-1.35595456-3.69138345zm1.03534915-.2358616.01219285.02213876c.7942931 1.30612748 1.24206226 2.62210722 1.33762584 3.94490954l2.17546259-.00055888c-.2118826-1.95132779-1.6485478-3.53506244-3.52528128-3.96648942z"
    fill="#d6d6d6" />
</svg>