<?xml version="1.0" encoding="UTF-8"?>
<svg width="16px" height="16px" viewBox="0 0 16 16" version="1.1" xmlns="http://www.w3.org/2000/svg" xmlns:xlink="http://www.w3.org/1999/xlink">
    <title>parallels_catalog_ai_vm_as_issues</title>
    <g id="parallels_catalog_ai_vm_as_issues" stroke="none" stroke-width="1" fill="none" fill-rule="evenodd">
        <path d="M9,11 L9,12 L11,12 L11,11 L12,11 L12,14 L11,14 L11,13 L9,13 L9,14 L8,14 L8,11 L9,11 Z M14,10 L14,14 L13,14 L13,10 L14,10 Z M11,10 L11,11 L9,11 L9,10 L11,10 Z" id="Combined-Shape" fill="#FFDB58"></path>
        <path d="M12,2 C13.1045695,2 14,2.8954305 14,4 L14,8 L13,8 L13,4 C13,3.44771525 12.5522847,3 12,3 L4,3 C3.44771525,3 3,3.44771525 3,4 L3,12 C3,12.5522847 3.44771525,13 4,13 L6,13 L6,14 L4,14 C2.8954305,14 2,13.1045695 2,12 L2,4 C2,2.8954305 2.8954305,2 4,2 L12,2 Z" id="Path" fill="#D6D6D6" fill-rule="nonzero"></path>
    </g>
</svg>