<?xml version="1.0" encoding="UTF-8"?>
<svg width="16px" height="16px" viewBox="0 0 16 16" version="1.1" xmlns="http://www.w3.org/2000/svg" xmlns:xlink="http://www.w3.org/1999/xlink">
    <title>refresh</title>
    <g id="refresh" stroke="none" stroke-width="1" fill="none" fill-rule="evenodd">
        <path d="M3.10472726,9.00746265 C3.10472726,11.7437908 5.30199289,13.9410564 8.03246164,13.9410564 C10.7629304,13.9410564 12.960196,11.7437908 12.960196,9.00746265 C12.960196,6.27113452 10.7687898,4.08558765 8.03832101,4.08558765 C7.72777414,4.08558765 7.42308664,4.1207439 7.15941476,4.17347827 L8.56566476,2.79066577 C8.65355539,2.6910564 8.70043039,2.5738689 8.70043039,2.43910327 C8.70043039,2.15785327 8.48949289,1.93519702 8.21410226,1.93519702 C8.06761789,1.93519702 7.95043039,1.9879314 7.86253976,2.08754077 L5.58324289,4.4019939 C5.48363351,4.50160327 5.42503976,4.6363689 5.42503976,4.77113452 C5.42503976,4.90590015 5.47777414,5.02894702 5.58324289,5.14027515 L7.86253976,7.43129077 C7.95043039,7.52504077 8.06761789,7.57191577 8.21410226,7.57191577 C8.48949289,7.57191577 8.70043039,7.3551189 8.70043039,7.07972827 C8.70043039,6.94496265 8.65355539,6.83363452 8.55980539,6.73402515 L6.98363351,5.16957202 C7.28832101,5.1051189 7.65160226,5.06996265 8.03832101,5.06996265 C10.2180085,5.06996265 11.9641023,6.8160564 11.9641023,9.00746265 C11.9641023,11.1930095 10.2121491,12.9449626 8.03246164,12.9449626 C5.85277414,12.9449626 4.10082101,11.1930095 4.10082101,9.00746265 C4.10082101,8.70863452 3.91332101,8.49183765 3.62035226,8.49183765 C3.31566476,8.49183765 3.10472726,8.70863452 3.10472726,9.00746265 Z" id="Path" fill="#D6D6D6" fill-rule="nonzero"></path>
    </g>
</svg>