<?xml version="1.0" encoding="UTF-8" standalone="no"?>
<!-- Uploaded to: SVG Repo, www.svgrepo.com, Generator: SVG Repo Mixer Tools -->

<svg
   width="800px"
   height="800px"
   viewBox="0 0 16 16"
   version="1.1"
   id="svg4"
   xmlns="http://www.w3.org/2000/svg"
   xmlns:svg="http://www.w3.org/2000/svg">
  <defs
     id="defs4" />
  <g
     fill="#2e3436"
     id="g4">
    <path
       d="m 8.076094,11.8 c -0.703125,0 -1.355469,0.371094 -1.714844,0.972656 H 3.076094 c -0.554688,0 -1,0.449219 -1,1 0,0.550782 0.445312,1 1,1 h 3.246094 c 0.351562,0.640625 1.023437,1.035156 1.753906,1.039063 0.726562,-0.0039 1.398437,-0.398438 1.75,-1.039063 h 3.261718 c 0.550782,0 1,-0.449218 1,-1 0,-0.550781 -0.449218,-1 -1,-1 H 9.794844 C 9.431562,12.171094 8.779219,11.8 8.076094,11.8 Z m 0,1 C 8.630781,12.8 9.08,13.249219 9.08,13.807812 9.08,14.3625 8.630781,14.811719 8.076094,14.811719 7.5175,14.811719 7.068281,14.3625 7.068281,13.807812 7.068281,13.249219 7.5175,12.8 8.076094,12.8 Z m 0,0"
       id="path2"
       style="fill:#d6d6d6" />
    <path
       d="m 7.078047,9.8 h 2.007812 v 3 H 7.078047 Z m 0,0"
       id="path3"
       style="fill:#d6d6d6" />
    <path
       d="m 10.727885,2.0384044 c 0.940318,0 1.702628,0.7623094 1.702628,1.7026284 v 3.4052569 c 0,0.9403191 -0.76231,1.7026285 -1.702628,1.7026285 H 9.0252564 v 0.8513146 h 1.2769706 c 0.234963,0 0.425658,0.1906939 0.425658,0.4256572 0,0.234962 -0.190695,0.425657 -0.425658,0.425657 H 6.0456564 c -0.2349623,0 -0.425657,-0.190695 -0.425657,-0.425657 0,-0.2349633 0.1906947,-0.4256572 0.425657,-0.4256572 H 7.3226283 V 8.8489182 H 5.6199994 c -0.9403189,0 -1.7026283,-0.7623094 -1.7026283,-1.7026285 V 3.7410328 c 0,-0.940319 0.7623094,-1.7026284 1.7026283,-1.7026284 z M 3.2202427,7.9982637 C 3.3364471,8.3166552 3.5139462,8.6051656 3.738991,8.8498333 L 2.6403998,8.8489159 c -0.2349627,0 -0.4256571,-0.1906944 -0.4256571,-0.4256571 0,-0.2349628 0.1906944,-0.4256571 0.4256571,-0.4256571 z M 10.661099,2.8897186 H 5.6199994 c -0.4701804,0 -0.8513141,0.3809631 -0.8513141,0.8513142 v 3.4052569 c 0,0.4701809 0.3809634,0.8513142 0.8513141,0.8513142 h 5.0410996 c 0.470181,0 0.851315,-0.3809631 0.851315,-0.8513142 V 3.7410328 c 0,-0.4701808 -0.380964,-0.8513142 -0.851315,-0.8513142 z M 7.3226283,0.33577602 c 0.6199264,0 1.1625119,0.33116123 1.4602589,0.82658358 l -3.1628878,7.236e-4 c -0.1191834,0 -0.2362397,0.00814 -0.3507413,0.023897 l -3.0545154,1.106e-4 c -0.4701808,0 -0.8513142,0.3809632 -0.8513142,0.8513143 V 5.443662 c 0,0.4701808 0.3809631,0.8513142 0.8513142,0.8513142 h 0.8513142 l 1.192e-4,0.8520373 -0.8514334,-7.236e-4 c -0.9403191,0 -1.70262833,-0.7623093 -1.70262833,-1.7026284 V 2.0384044 c 0,-0.9403191 0.76230923,-1.70262838 1.70262833,-1.70262838 z"
       fill="#d6d6d6"
       fill-rule="evenodd"
       id="path1-0"
       style="stroke-width:0.851314" />
  </g>
</svg>
