<?xml version="1.0" encoding="utf-8"?><!-- Uploaded to: SVG Repo, www.svgrepo.com, Generator: SVG Repo
Mixer Tools -->
<svg width="800px" height="800px" viewBox="0 0 24 24" fill="none" xmlns="http://www.w3.org/2000/svg">
  <path
    d="M10.1992 12C12.9606 12 15.1992 9.76142 15.1992 7C15.1992 4.23858 12.9606 2 10.1992 2C7.43779 2 5.19922 4.23858 5.19922 7C5.19922 9.76142 7.43779 12 10.1992 12Z"
    stroke="#d6d6d6" stroke-width="1.5" stroke-linecap="round" stroke-linejoin="round" />
  <path
    d="M1 22C1.57038 20.0332 2.74795 18.2971 4.36438 17.0399C5.98081 15.7827 7.95335 15.0687 10 15C14.12 15 17.63 17.91 19 22"
    stroke="#d6d6d6" stroke-width="1.5" stroke-linecap="round" stroke-linejoin="round" />
  <path
    d="M17.8205 4.44006C18.5822 4.83059 19.1986 5.45518 19.579 6.22205C19.9594 6.98891 20.0838 7.85753 19.9338 8.70032C19.7838 9.5431 19.3674 10.3155 18.7458 10.9041C18.1243 11.4926 17.3302 11.8662 16.4805 11.97"
    stroke="#d6d6d6" stroke-width="1.5" stroke-linecap="round" stroke-linejoin="round" />
  <path
    d="M17.3203 14.5701C18.6543 14.91 19.8779 15.5883 20.8729 16.5396C21.868 17.4908 22.6007 18.6827 23.0003 20"
    stroke="#d6d6d6" stroke-width="1.5" stroke-linecap="round" stroke-linejoin="round" />
</svg>