<?xml version="1.0" encoding="UTF-8"?>
<svg width="16px" height="16px" viewBox="0 0 16 16" version="1.1" xmlns="http://www.w3.org/2000/svg" xmlns:xlink="http://www.w3.org/1999/xlink">
    <title>remote_hosts_provider_orchestrator_resource</title>
    <g id="remote_hosts_provider_orchestrator_resource" stroke="none" stroke-width="1" fill="none" fill-rule="evenodd">
        <path d="M14.7434493,5.37928773 C14.6470888,5.57032644 14.4919942,5.72542107 14.3009555,5.8217815 L8.90071108,8.54567897 C8.33422875,8.83141414 7.66577125,8.83141414 7.09928892,8.54567897 L1.69904452,5.8217815 C1.20593746,5.573057 1.00782625,4.97168371 1.25655074,4.47857665 C1.35291118,4.28753793 1.5080058,4.13244331 1.69904452,4.03608288 L7.09928892,1.31218541 C7.66577125,1.02645023 8.33422875,1.02645023 8.90071108,1.31218541 L14.3009555,4.03608288 C14.7940625,4.28480737 14.9921738,4.88618067 14.7434493,5.37928773 Z M13.8505999,4.92893219 L8.45035554,2.20503472 C8.16711437,2.06216713 7.83288563,2.06216713 7.54964446,2.20503472 L2.14940005,4.92893219 L7.54964446,7.65282966 C7.83288563,7.79569724 8.16711437,7.79569724 8.45035554,7.65282966 L13.8505999,4.92893219 Z M14.8215926,9.4956169 L15.320543,10.3622475 L9.24737589,13.858788 C8.47520805,14.3033528 7.52479195,14.3033528 6.75262411,13.858788 L0.67945701,10.3622475 L1.17840737,9.4956169 L7.25157446,12.9921574 C7.71487517,13.2588963 8.28512483,13.2588963 8.74842554,12.9921574 L14.8215926,9.4956169 Z" id="Combined-Shape" fill="#D6D6D6" fill-rule="nonzero"></path>
    </g>
</svg>