<?xml version="1.0" encoding="UTF-8"?>
<svg width="16px" height="16px" viewBox="0 0 16 16" version="1.1" xmlns="http://www.w3.org/2000/svg" xmlns:xlink="http://www.w3.org/1999/xlink">
    <title>remote_hosts_provider_orchestrator_inactive_websocket</title>
    <g id="remote_hosts_provider_orchestrator_inactive_websocket" stroke="none" stroke-width="1" fill="none" fill-rule="evenodd">
        <path d="M2.93984699,5.04722482 C3.45032393,5.22930038 3.71753343,5.78325199 3.53916992,6.28968026 L2.18116652,10.2121429 C2.1477435,10.3046831 2.15895191,10.4072402 2.21159877,10.4905982 C2.26424564,10.5739562 2.3525593,10.6289766 2.45138148,10.6399856 L6.14778358,11.0507147 L7,16 L5.96071169,16 C5.66920876,15.997325 5.41541793,15.8026111 5.34060299,15.5242388 L4.58538682,12.8408089 L1.43634323,12.4985347 C0.943506392,12.4342967 0.506124506,12.1542667 0.245442025,11.7360705 C-0.0152404569,11.3178743 -0.0715227002,10.8059506 0.0921970146,10.3422071 L1.72041537,5.65989568 C1.799705,5.41875465 1.97280198,5.21866664 2.20154903,5.10373879 C2.43029607,4.98881094 2.6959128,4.96847897 2.93984699,5.04722482 Z M14.7760189,8.14393564 C14.999906,8.27857079 15.1588898,8.49425219 15.2175778,8.74296527 L15.9511321,11.9038371 C16.0861912,12.43211 15.9372096,12.9906928 15.5548378,13.3896796 C15.1724659,13.7886665 14.6081578,13.9743677 14.0537657,13.8836489 L11.3382043,13.3852825 L10.7668783,15.5255272 C10.6900323,15.8055868 10.4279253,16.0004105 10.128545,16 L9,16 L9.85698889,11.1221528 L13.4154325,11.7741253 C13.525236,11.7930528 13.6375135,11.7572706 13.7142185,11.6789038 C13.7909236,11.600537 13.8217742,11.4900904 13.7963164,11.3849899 L13.2955246,9.20037005 C13.1644054,8.68133222 13.4903336,8.15708398 14.0255521,8.02613688 C14.2819254,7.96688689 14.5521319,8.00930049 14.7760189,8.14393564 Z M7.5,5 C8.88663968,5 10,6.11708483 10,7.5 C10,8.88291517 8.88663968,10 7.5,10 C6.11336032,10 5,8.88291517 5,7.5 C5,6.11708483 6.11336032,5 7.5,5 Z M11.2454613,0.0490332115 C11.3653238,-0.0148740908 11.5037495,-0.016378144 11.6246672,0.044912983 C11.7455848,0.10620411 11.8370174,0.224219514 11.8751392,0.368206362 L13.9244034,6.16119904 C13.9963415,6.29145315 14.018116,6.44949292 13.98465,6.59846902 C13.9511839,6.74744512 13.8654024,6.87433657 13.7473065,6.94955672 C13.4858777,7.09318464 13.2525596,6.91444768 13.1260618,6.61123319 L11.0796086,0.80866531 C11.0059855,0.685051715 10.9820058,0.531777817 11.0136294,0.386936906 C11.0452529,0.242095994 11.1295104,0.119287533 11.2454613,0.0490332115 Z" id="remote_hosts_provider_orchestrator-websocket" fill="#00A8E8" fill-rule="nonzero"></path>
    </g>
</svg>
