<?xml version="1.0" encoding="UTF-8"?>
<svg width="16px" height="16px" viewBox="0 0 16 16" version="1.1" xmlns="http://www.w3.org/2000/svg" xmlns:xlink="http://www.w3.org/1999/xlink">
    <title>remote_hosts_management_users</title>
    <g id="remote_hosts_management_users" stroke="none" stroke-width="1" fill="none" fill-rule="evenodd">
        <path d="M10.992929,9.96009397 C13.1876747,9.96009397 15.0009367,11.5094216 15.0009367,13.460094 L15.0009367,14.0377827 L14.0009367,14.0377827 L14.0009367,13.460094 C14.0009367,12.0996681 12.6672314,10.960094 10.992929,10.960094 C9.3204373,10.960094 7.99292898,12.0979582 7.99292898,13.460094 L7.99292898,14.0377827 L6.99292898,14.0377827 L6.99292898,13.460094 C6.99292898,11.5085212 8.79942742,9.96009397 10.992929,9.96009397 Z M4.99292898,7.96009397 C6.13980737,7.96009397 7.18251585,8.38316139 7.91675116,9.06548832 C7.6520872,9.2712401 7.40978224,9.5040264 7.19261549,9.75888846 C6.64650215,9.26997752 5.86602472,8.96009397 4.99292898,8.96009397 C3.3204373,8.96009397 1.99292898,10.0979582 1.99292898,11.460094 L1.99292898,12.0377827 L0.992928983,12.0377827 L0.992928983,11.460094 C0.992928983,9.5085212 2.79942742,7.96009397 4.99292898,7.96009397 Z M11,3 C12.6568542,3 14,4.34314575 14,6 C14,7.65685425 12.6568542,9 11,9 C9.34314575,9 8,7.65685425 8,6 C8,4.34314575 9.34314575,3 11,3 Z M11,4 C9.8954305,4 9,4.8954305 9,6 C9,7.1045695 9.8954305,8 11,8 C12.1045695,8 13,7.1045695 13,6 C13,4.8954305 12.1045695,4 11,4 Z M5,1 C6.45878292,1 7.6743796,2.0412041 7.9441725,3.4209948 C7.35442062,4.11724072 7,5.01723067 7,6 C7,6.07692509 7.00217146,6.153343 7.00645661,6.22919545 C6.47628029,6.70823842 5.77221243,7 5,7 C3.34314575,7 2,5.65685425 2,4 C2,2.34314575 3.34314575,1 5,1 Z M5,2 C3.8954305,2 3,2.8954305 3,4 C3,5.1045695 3.8954305,6 5,6 C6.1045695,6 7,5.1045695 7,4 C7,2.8954305 6.1045695,2 5,2 Z" id="Shape" fill="#D6D6D6" fill-rule="nonzero"></path>
    </g>
</svg>