<?xml version="1.0" encoding="UTF-8"?>
<svg width="16px" height="16px" viewBox="0 0 16 16" version="1.1" xmlns="http://www.w3.org/2000/svg" xmlns:xlink="http://www.w3.org/1999/xlink">
    <title>remote_hosts_management_roles</title>
    <g id="remote_hosts_management_roles" stroke="none" stroke-width="1" fill="none" fill-rule="evenodd">
        <path d="M10.2546711,5.03500986 L13.3928001,5.93970436 C13.6738768,6.02038003 13.8859552,6.19213778 13.9766765,6.48156078 L13.9995665,6.63111359 L13.9995665,10.2298539 L13.9823406,10.3672931 L13.8977254,10.7110561 C13.8610139,10.855936 13.8330477,10.9441749 13.787333,11.0530013 C13.5751887,11.5579958 13.2343522,11.9732312 12.7243458,12.4194139 C12.2094938,12.8698233 11.6255613,13.2597113 10.9511789,13.6161073 L10.1792011,14 L9.69478706,14 L9.60756646,13.8919997 L9.35510065,13.7747987 C8.99227803,13.5974771 8.64174688,13.4006979 8.30381537,13.1845274 L7.97009516,12.9618957 C7.36452611,12.5408395 6.91164465,12.1332639 6.55400513,11.6488318 C6.19468899,11.1621605 6.00066283,10.6534635 6.00016261,10.0981077 L6,6.71141034 C6.00011718,6.32433038 6.21060953,6.05517466 6.58217015,5.94754401 L9.74446495,5.03458147 C9.90699992,4.98817966 10.0922604,4.98862529 10.2546711,5.03500986 Z M12.9995665,6.86699973 L9.998,6.001 L7.0605359,6.85005612 L6.99956646,6.86699973 L7.0001622,10.097204 C7.00041217,10.3747271 7.08678916,10.6407425 7.26293433,10.9162413 L7.35850446,11.0548782 C7.64204687,11.4389438 8.01774149,11.7770544 8.54095904,12.140851 C8.93834482,12.4171424 9.35631709,12.6623774 9.79417017,12.8763639 L10.0025665,12.9729997 L10.1658359,12.8938943 C10.9147059,12.5264477 11.5368442,12.1296212 12.0659073,11.6667794 C12.4715666,11.3118854 12.7221883,11.0065573 12.8653777,10.6657049 L12.8977581,10.5760199 C12.9030457,10.5589368 12.9084427,10.5402479 12.914195,10.5191463 L12.9995665,10.1769997 L12.9995665,6.86699973 Z M6.25467113,2.03500986 L9.39280014,2.93970436 C9.67387677,3.02038003 9.88595519,3.19213778 9.97667646,3.48156078 L9.99956646,3.63111359 L9.999,4 L8.999,4 L8.99956646,3.86699973 L5.998,3.001 L3.0605359,3.85005612 L2.99956646,3.86699973 L3.0001622,7.09720405 C3.00041217,7.37472711 3.08678916,7.64074246 3.26293433,7.91624132 L3.35850446,8.05487823 C3.64204687,8.43894382 4.01774149,8.77705437 4.54095904,9.14085096 C4.69094012,9.24512871 4.84385366,9.34498261 4.99966171,9.44040232 L5,10.592 C4.75999056,10.4641364 4.52910305,10.3286411 4.30381537,10.1845274 L3.97009516,9.96189568 C3.36452611,9.54083955 2.91164465,9.13326386 2.55400513,8.64883178 C2.19468899,8.16216047 2.00066283,7.65346349 2.00016261,7.09810771 L2,3.71141034 C2.00011718,3.32433038 2.21060953,3.05517466 2.58217015,2.94754401 L5.74446495,2.03458147 C5.90699992,1.98817966 6.0922604,1.98862529 6.25467113,2.03500986 Z" id="Shape" fill="#D6D6D6" fill-rule="nonzero"></path>
    </g>
</svg>