<?xml version="1.0" encoding="UTF-8" standalone="no"?>
<!-- Uploaded to: SVG Repo, www.svgrepo.com, Generator: SVG Repo Mixer Tools -->

<svg
   width="800px"
   height="800px"
   viewBox="0 0 16 16"
   version="1.1"
   id="svg4"
   xmlns="http://www.w3.org/2000/svg"
   xmlns:svg="http://www.w3.org/2000/svg">
  <defs
     id="defs4" />
  <g
     fill="#E74C3C"
     id="g4">
    <path
       d="m 8.076094,11.8 c -0.703125,0 -1.355469,0.371094 -1.714844,0.972656 H 3.076094 c -0.554688,0 -1,0.449219 -1,1 0,0.550782 0.445312,1 1,1 h 3.246094 c 0.351562,0.640625 1.023437,1.035156 1.753906,1.039063 0.726562,-0.0039 1.398437,-0.398438 1.75,-1.039063 h 3.261718 c 0.550782,0 1,-0.449218 1,-1 0,-0.550781 -0.449218,-1 -1,-1 H 9.794844 C 9.431562,12.171094 8.779219,11.8 8.076094,11.8 Z m 0,1 C 8.630781,12.8 9.08,13.249219 9.08,13.807812 9.08,14.3625 8.630781,14.811719 8.076094,14.811719 7.5175,14.811719 7.068281,14.3625 7.068281,13.807812 7.068281,13.249219 7.5175,12.8 8.076094,12.8 Z m 0,0"
       id="path2"
       style="fill:#E74C3C" />
    <path
       d="m 7.078047,9.8 h 2.007812 v 3 H 7.078047 Z m 0,0"
       id="path3"
       style="fill:#E74C3C" />
    <path
       d="m 5.1653759,10.610218 c -0.2291597,0 -0.4166539,-0.187495 -0.4166539,-0.416655 0,-0.229159 0.1874942,-0.4166535 0.4166539,-0.4166535 H 6.4153373 V 8.9436023 H 3.9154135 c -0.9203882,0 -1.6666153,-0.746227 -1.6666153,-1.6666152 V 2.2771394 c 0,-0.9203883 0.7462271,-1.66661532 1.6666153,-1.66661532 h 8.3330785 c 0.920389,0 1.666616,0.74622702 1.666616,1.66661532 v 4.9998477 c 0,0.9203882 -0.746227,1.6666152 -1.666616,1.6666152 H 9.7485688 v 0.8333072 h 1.2499622 c 0.22916,0 0.416654,0.1874945 0.416654,0.4166535 0,0.22916 -0.187494,0.416655 -0.416654,0.416655 z M 12.248492,1.4438317 H 3.9154135 c -0.4604024,0 -0.8333077,0.3749884 -0.8333077,0.8333077 v 4.9998477 c 0,0.4604024 0.3749884,0.8333076 0.8333077,0.8333076 h 8.3330785 c 0.460403,0 0.833308,-0.3749884 0.833308,-0.8333076 V 2.2771394 c 0,-0.4604024 -0.374988,-0.8333077 -0.833308,-0.8333077 z"
       fill="#E74C3C"
       fill-rule="evenodd"
       id="path1"
       style="stroke-width:0.833308" />
  </g>
</svg>
