<?xml version="1.0" encoding="UTF-8" standalone="no"?>
<svg
   xml:space="preserve"
   width="512px"
   height="509px"
   version="1.1"
   shape-rendering="geometricPrecision"
   text-rendering="geometricPrecision"
   image-rendering="optimizeQuality"
   fill-rule="evenodd"
   clip-rule="evenodd"
   viewBox="0 0 512 508.84"
   id="svg1"
   xmlns="http://www.w3.org/2000/svg"
   xmlns:svg="http://www.w3.org/2000/svg"><defs
   id="defs1" />&#10; <g
   id="Layer_x0020_1">&#10;  <path
   fill="#d6d6d6"
   fill-rule="nonzero"
   d="m 122.58,82.55 h 266.84 c 10.1,0 19.28,4.14 25.92,10.78 l 0.56,0.62 c 6.33,6.6 10.24,15.55 10.24,25.31 v 270.32 c 0,10.04 -4.15,19.21 -10.8,25.87 l -0.04,0.04 c -6.66,6.65 -15.83,10.8 -25.88,10.8 H 122.58 c -10.05,0 -19.23,-4.14 -25.89,-10.79 -6.68,-6.65 -10.83,-15.83 -10.83,-25.92 V 119.26 c 0,-10.1 4.13,-19.29 10.78,-25.93 l 0.61,-0.56 c 6.6,-6.32 15.54,-10.22 25.33,-10.22 z m 160.6,324.4 h 106.24 c 4.75,0 9.1,-1.96 12.26,-5.11 3.16,-3.17 5.12,-7.52 5.12,-12.26 V 119.26 c 0,-4.56 -1.8,-8.75 -4.72,-11.87 L 401.67,107 c -3.15,-3.15 -7.49,-5.11 -12.25,-5.11 h -24.78 l -17.45,0 H 122.58 c -4.58,0 -8.77,1.79 -11.89,4.7 l -0.38,0.41 c -3.15,3.15 -5.11,7.5 -5.11,12.26 v 35.07 l 0,17.45 v 37.9 17.45 162.45 c 0,4.75 1.97,9.1 5.12,12.25 3.15,3.16 7.5,5.12 12.26,5.12 H 265.72 Z M 0,344.3 v 30.52 c 0,3.14 2.57,5.71 5.71,5.71 h 44.84 c 3.14,0 5.71,-2.57 5.71,-5.71 V 344.3 c 0,-3.14 -2.57,-5.71 -5.71,-5.71 H 5.71 C 2.57,338.59 0,341.16 0,344.3 Z m 0,-70.09 v 30.52 c 0,3.14 2.57,5.71 5.71,5.71 h 44.84 c 3.14,0 5.71,-2.57 5.71,-5.71 v -30.52 c 0,-3.14 -2.57,-5.71 -5.71,-5.71 H 5.71 C 2.57,268.5 0,271.07 0,274.21 Z m 0,-70.09 v 30.52 c 0,3.14 2.57,5.71 5.71,5.71 h 44.84 c 3.14,0 5.71,-2.57 5.71,-5.71 v -30.52 c 0,-3.14 -2.57,-5.71 -5.71,-5.71 H 5.71 c -3.14,0 -5.71,2.57 -5.71,5.71 z m 0,-70.09 v 30.52 c 0,3.14 2.57,5.71 5.71,5.71 h 44.84 c 3.14,0 5.71,-2.57 5.71,-5.71 v -30.52 c 0,-3.14 -2.57,-5.71 -5.71,-5.71 H 5.71 C 2.57,128.32 0,130.89 0,134.03 Z M 512,344.3 v 30.52 c 0,3.14 -2.57,5.71 -5.71,5.71 h -44.85 c -3.13,0 -5.7,-2.57 -5.7,-5.71 V 344.3 c 0,-3.14 2.57,-5.71 5.7,-5.71 h 44.85 c 3.14,0 5.71,2.57 5.71,5.71 z m 0,-70.09 v 30.52 c 0,3.14 -2.57,5.71 -5.71,5.71 h -44.85 c -3.13,0 -5.7,-2.57 -5.7,-5.71 v -30.52 c 0,-3.14 2.57,-5.71 5.7,-5.71 h 44.85 c 3.14,0 5.71,2.57 5.71,5.71 z m 0,-70.09 v 30.52 c 0,3.14 -2.57,5.71 -5.71,5.71 h -44.85 c -3.13,0 -5.7,-2.57 -5.7,-5.71 v -30.52 c 0,-3.14 2.57,-5.71 5.7,-5.71 h 44.85 c 3.14,0 5.71,2.57 5.71,5.71 z m 0,-70.09 v 30.52 c 0,3.14 -2.57,5.71 -5.71,5.71 h -44.85 c -3.13,0 -5.7,-2.57 -5.7,-5.71 v -30.52 c 0,-3.14 2.57,-5.71 5.7,-5.71 h 44.85 c 3.14,0 5.71,2.57 5.71,5.71 z M 345.87,508.84 h 30.52 c 3.14,0 5.71,-2.57 5.71,-5.71 v -44.84 c 0,-3.14 -2.57,-5.71 -5.71,-5.71 h -30.52 c -3.14,0 -5.71,2.57 -5.71,5.71 v 44.84 c 0,3.14 2.57,5.71 5.71,5.71 z m -70.08,0 h 30.52 c 3.14,0 5.7,-2.57 5.7,-5.71 v -44.84 c 0,-3.14 -2.56,-5.71 -5.7,-5.71 h -30.52 c -3.14,0 -5.71,2.57 -5.71,5.71 v 44.84 c 0,3.14 2.57,5.71 5.71,5.71 z m -70.09,0 h 30.52 c 3.13,0 5.7,-2.57 5.7,-5.71 v -44.84 c 0,-3.14 -2.57,-5.71 -5.7,-5.71 H 205.7 c -3.14,0 -5.71,2.57 -5.71,5.71 v 44.84 c 0,3.14 2.57,5.71 5.71,5.71 z m -70.09,0 h 30.52 c 3.14,0 5.7,-2.57 5.7,-5.71 v -44.84 c 0,-3.14 -2.56,-5.71 -5.7,-5.71 h -30.52 c -3.14,0 -5.71,2.57 -5.71,5.71 v 44.84 c 0,3.14 2.57,5.71 5.71,5.71 z M 345.87,0 h 30.52 c 3.14,0 5.71,2.57 5.71,5.71 v 44.85 c 0,3.13 -2.57,5.7 -5.71,5.7 h -30.52 c -3.14,0 -5.71,-2.57 -5.71,-5.7 V 5.71 c 0,-3.14 2.57,-5.71 5.71,-5.71 z m -70.08,0 h 30.52 c 3.14,0 5.7,2.57 5.7,5.71 v 44.85 c 0,3.13 -2.56,5.7 -5.7,5.7 h -30.52 c -3.14,0 -5.71,-2.57 -5.71,-5.7 V 5.71 C 270.08,2.57 272.65,0 275.79,0 Z M 205.7,0 h 30.52 c 3.13,0 5.7,2.57 5.7,5.71 v 44.85 c 0,3.13 -2.57,5.7 -5.7,5.7 H 205.7 c -3.14,0 -5.71,-2.57 -5.71,-5.7 V 5.71 C 199.99,2.57 202.56,0 205.7,0 Z m -70.09,0 h 30.52 c 3.14,0 5.7,2.57 5.7,5.71 v 44.85 c 0,3.13 -2.56,5.7 -5.7,5.7 h -30.52 c -3.14,0 -5.71,-2.57 -5.71,-5.7 V 5.71 C 129.9,2.57 132.47,0 135.61,0 Z"
   id="path1" />&#10; </g>&#10;</svg>
