<?xml version="1.0" encoding="UTF-8"?>
<svg width="16px" height="16px" viewBox="0 0 16 16" version="1.1" xmlns="http://www.w3.org/2000/svg" xmlns:xlink="http://www.w3.org/1999/xlink">
    <title>remote_hosts_management_user</title>
    <g id="remote_hosts_management_user" stroke="none" stroke-width="1" fill="none" fill-rule="evenodd">
        <path d="M7.5,2 C9.43299662,2 11,3.56700338 11,5.5 C11,7.43299662 9.43299662,9 7.5,9 C5.56700338,9 4,7.43299662 4,5.5 C4,3.56700338 5.56700338,2 7.5,2 Z M7.5,3 C6.11928813,3 5,4.11928813 5,5.5 C5,6.88071187 6.11928813,8 7.5,8 C8.88071187,8 10,6.88071187 10,5.5 C10,4.11928813 8.88071187,3 7.5,3 Z M7.48835839,10.0497057 C9.94284441,10.0497057 12.0020943,11.8197813 12.0020943,13.9776464 L11.0020943,13.9776464 C11.0020943,12.4084936 9.42132351,11.0497057 7.48835839,11.0497057 C5.56134392,11.0497057 4.00209433,12.4027662 4.00209433,13.9776464 L3.00209433,13.9776464 C3.00209433,11.8164715 5.03809263,10.0497057 7.48835839,10.0497057 Z" id="Combined-Shape" fill="#D6D6D6" fill-rule="nonzero"></path>
    </g>
</svg>