<?xml version="1.0" encoding="UTF-8"?>
<svg width="16px" height="16px" viewBox="0 0 16 16" version="1.1" xmlns="http://www.w3.org/2000/svg" xmlns:xlink="http://www.w3.org/1999/xlink">
    <title>remote_hosts_management</title>
    <g id="remote_hosts_management" stroke="none" stroke-width="1" fill="none" fill-rule="evenodd">
        <path d="M11.0279921,12.0066385 L11.0279921,14.0066385 L10.0279921,14.0066385 L10.0279921,12.0066385 L11.0279921,12.0066385 Z M11.0279921,3.04583145 L11.0279921,7.04583145 L10.0279921,7.04583145 L10.0279921,3.04583145 L11.0279921,3.04583145 Z M10.530162,7.99824289 C9.70173485,7.99824289 9.03016198,8.66981577 9.03016198,9.49824289 C9.03016198,10.32667 9.70173485,10.9982429 10.530162,10.9982429 C11.3585891,10.9982429 12.030162,10.32667 12.030162,9.49824289 C12.030162,8.66981577 11.3585891,7.99824289 10.530162,7.99824289 Z M5.02799208,9.00663849 L5.02799208,13.0066385 L4.02799208,13.0066385 L4.02799208,9.00663849 L5.02799208,9.00663849 Z M4.53016198,4.99824289 C5.3585891,4.99824289 6.03016198,5.66981577 6.03016198,6.49824289 C6.03016198,7.32667001 5.3585891,7.99824289 4.53016198,7.99824289 C3.70173485,7.99824289 3.03016198,7.32667001 3.03016198,6.49824289 C3.03016198,5.66981577 3.70173485,4.99824289 4.53016198,4.99824289 Z M5.02799208,2.04583145 L5.02799208,4.04583145 L4.02799208,4.04583145 L4.02799208,2.04583145 L5.02799208,2.04583145 Z" id="Combined-Shape" fill="#D6D6D6"></path>
    </g>
</svg>