<?xml version="1.0" encoding="UTF-8"?>
<svg width="16px" height="16px" viewBox="0 0 16 16" version="1.1" xmlns="http://www.w3.org/2000/svg" xmlns:xlink="http://www.w3.org/1999/xlink">
    <title>remote_hosts_provider_orchestrator_resources_disk</title>
    <g id="remote_hosts_provider_orchestrator_resources_disk" stroke="none" stroke-width="1" fill="none" fill-rule="evenodd">
        <path d="M11,2 C12.1045695,2 13,2.8954305 13,4 L14,8.03098344 L14,12 C14,13.0543618 13.1841222,13.9181651 12.1492623,13.9945143 L12,14 L4,14 C2.8954305,14 2,13.1045695 2,12 L2,7.95940157 L3,4 C3,2.8954305 3.8954305,2 5,2 L11,2 Z M12,9 L4,9 C3.44771525,9 3,9.44771525 3,10 L3,12 C3,12.5522847 3.44771525,13 4,13 L12,13 C12.5522847,13 13,12.5522847 13,12 L13,10 C13,9.44771525 12.5522847,9 12,9 Z M10,10 C10.5522847,10 11,10.4477153 11,11 C11,11.5522847 10.5522847,12 10,12 C9.44771525,12 9,11.5522847 9,11 C9,10.4477153 9.44771525,10 10,10 Z M11,3 L5,3 C4.44771525,3 4,3.44771525 4,4 L3,8.03098344 L2.99992752,8.26760632 C3.29411727,8.09741028 3.63568294,8 4,8 L12,8 C12.364732,8 12.7066608,8.0976323 13.0010775,8.26818814 L13,8.00242269 L12,4 C12,3.44771525 11.5522847,3 11,3 Z" id="Combined-Shape" fill="#D6D6D6" fill-rule="nonzero"></path>
    </g>
</svg>