<?xml version="1.0" encoding="UTF-8"?>
<svg width="16px" height="16px" viewBox="0 0 16 16" version="1.1" xmlns="http://www.w3.org/2000/svg" xmlns:xlink="http://www.w3.org/1999/xlink">
    <title>restore</title>
    <g id="restore" stroke="none" stroke-width="1" fill="none" fill-rule="evenodd">
        <path d="M7.5,3 C10.5375661,3 13,5.46243388 13,8.5 C13,11.5375661 10.5375661,14 7.5,14 C4.46243388,14 2,11.5375661 2,8.5 C2,5.46243388 4.46243388,3 7.5,3 Z M7.5,4 C5.01471863,4 3,6.01471863 3,8.5 C3,10.9852814 5.01471863,13 7.5,13 C9.98528137,13 12,10.9852814 12,8.5 C12,6.01471863 9.98528137,4 7.5,4 Z M8.5,6 C8.77614237,6 9,6.22385763 9,6.5 L9,10.5 C9,10.7761424 8.77614237,11 8.5,11 L8.13671875,11 C8.04668016,10.999786 7.95836972,10.9752642 7.88108516,10.9290679 C5.96036172,9.7786254 5,8.96893609 5,8.5 C5,8.03106391 5.96036172,7.2213746 7.88108516,6.07093206 C7.95836972,6.02473582 8.04668016,6.00021402 8.13671875,6 L8.5,6 Z" id="Combined-Shape-Copy" fill="#D6D6D6" fill-rule="nonzero"></path>
    </g>
</svg>