<?xml version="1.0" encoding="UTF-8"?>
<svg width="16px" height="16px" viewBox="0 0 16 16" version="1.1" xmlns="http://www.w3.org/2000/svg" xmlns:xlink="http://www.w3.org/1999/xlink">
    <title>remote_hosts_management_role</title>
    <g id="remote_hosts_management_role" stroke="none" stroke-width="1" fill="none" fill-rule="evenodd">
        <path d="M8.52261263,14.0549475 L8.09072524,14.0549475 L7.99886963,13.9359472 L7.68109348,13.7817024 C7.11085943,13.4937372 6.56212167,13.1703049 6.03543684,12.8115392 L5.64456683,12.5358421 C4.79772025,11.9175832 4.16798291,11.3225072 3.6742663,10.6203175 C3.19022463,9.93193302 2.93238191,9.22212152 2.93172116,8.45186088 L2.93148896,3.37214596 C2.93162198,2.9107786 3.16134138,2.60235027 3.60212938,2.4682822 C3.98782224,2.35091617 3.98782224,2.35091617 4.37355953,2.23348466 C6.24828124,1.66275476 7.07927705,1.41073863 8.11895509,1.09906136 C8.31648258,1.03985 8.54512169,1.04042748 8.74276011,1.09969537 C9.4370912,1.30794988 9.99208789,1.47601303 11.2395016,1.85495311 C12.2320199,2.1564609 12.6747209,2.29067371 13.2255636,2.45666557 C13.5641452,2.55870558 13.8076311,2.76575932 13.9099763,3.10859064 L13.9308696,3.25161795 L13.9215557,8.74578657 C13.9197741,8.75514753 13.9197741,8.75514753 13.9171313,8.76989039 L13.9112585,8.80242216 C13.9079619,8.81956542 13.9045576,8.83418977 13.8943445,8.87806283 C13.8771617,8.94386498 13.8640946,8.99907101 13.8350916,9.12591984 C13.7617028,9.44689511 13.7222086,9.59334119 13.6476519,9.77970142 C13.3614875,10.4949556 12.8956813,11.0908136 12.1913459,11.737816 C11.3488645,12.511698 10.3718181,13.1660603 9.21205213,13.7635735 C9.1233448,13.8092799 9.05237926,13.8456306 8.89349015,13.9268577 C8.81933562,13.9647673 8.81933562,13.9647673 8.75048972,14 L8.52186963,13.5549475 L8.52261263,14.0549475 Z M8.43014272,2.054942 L8.4061031,2.05694758 C7.36824847,2.36807823 6.53815952,2.61981934 4.67183698,3.18799224 C4.60968732,3.20691271 4.56245045,3.22129321 4.52083671,3.23396169 L4.32063439,3.29490613 C4.20815461,3.32914333 4.1136551,3.35789946 3.89315624,3.42499708 L3.93086963,3.41294716 L3.93172079,8.45100026 C3.93213245,8.93088525 4.07552677,9.38547738 4.3611679,9.84688122 L4.49229237,10.0451364 C4.91455435,10.6456995 5.46849712,11.1691528 6.23420684,11.7281759 C6.95490279,12.2543101 7.72202877,12.7063782 8.53376045,13.0839497 L8.43586963,13.0369472 C8.56503229,12.9716751 8.63509088,12.9358146 8.7028274,12.9009878 L8.75404358,12.8746257 C9.83930862,12.3154955 10.7434411,11.7099662 11.5148531,11.0013668 C12.1186093,10.4467564 12.4977433,9.96176932 12.7192001,9.40824863 C12.7679461,9.28640413 12.7984751,9.17320127 12.8599634,8.90427423 L12.880941,8.81304101 C12.8992173,8.73424375 12.911303,8.68470851 12.9267276,8.62563979 C12.9274428,8.62275741 12.9274428,8.62275741 12.932586,8.59475763 L12.9308696,8.60094716 L12.9308696,3.41194716 L12.8009622,3.37311511 C12.3524442,3.23784094 11.9414784,3.11327484 11.1894271,2.88485859 L10.9532005,2.81310365 C9.70254685,2.43317935 9.14829994,2.26534325 8.45549314,2.05754592 C8.4444007,2.05421952 8.4154478,2.05414639 8.4061031,2.05694758 L8.43014272,2.054942 Z" id="Fill-1" fill="#D6D6D6" fill-rule="nonzero"></path>
    </g>
</svg>