<?xml version="1.0" encoding="UTF-8"?>
<svg width="16px" height="16px" viewBox="0 0 16 16" version="1.1" xmlns="http://www.w3.org/2000/svg" xmlns:xlink="http://www.w3.org/1999/xlink">
    <title>show</title>
    <g id="show" stroke="none" stroke-width="1" fill="none" fill-rule="evenodd">
        <path d="M3.88697865,2.1833811 L12.8869786,13.1833811 C13.0618424,13.3971035 13.0303413,13.7121149 12.8166189,13.8869786 C12.6028965,14.0618424 12.2878851,14.0303413 12.1130214,13.8166189 L3.11302135,2.8166189 C2.93815756,2.60289649 2.9696587,2.28788514 3.1833811,2.11302135 C3.39710351,1.93815756 3.71211486,1.9696587 3.88697865,2.1833811 Z M3.76975331,5.14958344 L4.40792011,5.92800234 C3.53327215,6.47573525 3,7.21431861 3,8 C3,9.59733573 5.20418672,11 8,11 C8.18396693,11 8.36537227,10.9939268 8.54375659,10.9821246 L9.30077719,11.9070436 C8.88112431,11.9680151 8.4457223,12 8,12 C4.72068104,12 2,10.2686575 2,8 C2,6.8658454 2.67996141,5.86597832 3.76975331,5.14958344 Z M8,4 C11.279319,4 14,5.73134248 14,8 C14,9.11534491 13.3424056,10.1008196 12.2841291,10.8145396 L11.6467,10.0372582 C12.4888783,9.49324026 13,8.769191 13,8 C13,6.40266427 10.7958133,5 8,5 C7.84348617,5 7.68882646,5.00439585 7.53630378,5.01297562 L6.7748012,4.08231268 C7.17107279,4.02826791 7.58097591,4 8,4 Z M6.004,7.879 L7.72430312,9.98115306 C6.75019726,9.84684576 6,9.01103186 6,8 L6.004,7.879 Z M8.37394201,6.03489855 C9.29978937,6.21000682 10,7.02323193 10,8 L9.999,8.023 L8.37394201,6.03489855 Z" id="Combined-Shape" fill="#D6D6D6" fill-rule="nonzero"></path>
    </g>
</svg>