<svg height="16" viewBox="0 0 16 16" width="16" xmlns="http://www.w3.org/2000/svg">
  <path
    d="m6.02760636 4.14178403c.13798383.23919673.05593456.54496199-.18326216.68294582-1.32933268.76684332-2.16537866 2.18321757-2.16537866 3.74586155 0 2.3864414 1.93459302 4.3210345 4.32103446 4.3210345 2.3864414 0 4.3210345-1.9345931 4.3210345-4.3210345 0-1.55722286-.8302136-2.96939545-2.1522053-3.73823132-.23870857-.13882665-.31967884-.44487941-.18085219-.68358796.13882669-.23870854.44487939-.31967882.68358799-.18085216 1.6267897.9460984 2.6494695 2.6856513 2.6494695 4.60267144 0 2.9387262-2.3823083 5.3210345-5.3210345 5.3210345-2.93872619 0-5.32103446-2.3823083-5.32103446-5.3210345 0-1.92370368 1.02985222-3.66841174 2.66569501-4.61206953.23919672-.13798383.54496198-.05593456.68294581.18326216zm1.97239364-2.14178403c.27614237 0 .5.22385763.5.5v5c0 .27614237-.22385763.5-.5.5s-.5-.22385763-.5-.5v-5c0-.27614237.22385763-.5.5-.5z"
    fill="#d6d6d6" />
</svg>