<?xml version="1.0" encoding="UTF-8"?>
<svg width="16px" height="16px" viewBox="0 0 16 16" version="1.1" xmlns="http://www.w3.org/2000/svg" xmlns:xlink="http://www.w3.org/1999/xlink">
    <title>start</title>
    <g id="start" stroke="none" stroke-width="1" fill="none" fill-rule="evenodd">
        <g id="􀊃" transform="translate(2.9612, 2.35)" fill="#D6D6D6" fill-rule="nonzero">
            <path d="M0,10.4863281 L0,0.998046875 C0,0.65625 0.0843098958,0.404459635 0.252929687,0.242675781 C0.421549479,0.0808919271 0.622070312,0 0.854492187,0 C1.05957031,0 1.26920573,0.0592447917 1.48339844,0.177734375 L9.44726562,4.83300781 C9.72981771,4.99707031 9.92692057,5.14404297 10.0385742,5.27392578 C10.1502279,5.40380859 10.2060547,5.55989583 10.2060547,5.7421875 C10.2060547,5.91992187 10.1502279,6.07486979 10.0385742,6.20703125 C9.92692057,6.33919271 9.72981771,6.48730469 9.44726562,6.65136719 L1.48339844,11.3066406 C1.26920573,11.4251302 1.05957031,11.484375 0.854492187,11.484375 C0.622070312,11.484375 0.421549479,11.4023437 0.252929687,11.2382812 C0.0843098958,11.0742187 0,10.8235677 0,10.4863281 Z M1.10058594,10.0009766 C1.10058594,10.0602214 1.1233724,10.1023763 1.16894531,10.1274414 C1.21451823,10.1525065 1.26236979,10.1490885 1.3125,10.1171875 L8.62011719,5.8515625 C8.6702474,5.82421875 8.6953125,5.78776042 8.6953125,5.7421875 C8.6953125,5.6875 8.6702474,5.65104167 8.62011719,5.6328125 L1.3125,1.3671875 C1.26236979,1.33528646 1.21451823,1.33186849 1.16894531,1.35693359 C1.1233724,1.3819987 1.10058594,1.42415365 1.10058594,1.48339844 L1.10058594,10.0009766 Z" id="Shape"></path>
        </g>
    </g>
</svg>