<?xml version="1.0" encoding="UTF-8"?>
<svg width="16px" height="16px" viewBox="0 0 16 16" version="1.1" xmlns="http://www.w3.org/2000/svg" xmlns:xlink="http://www.w3.org/1999/xlink">
    <title>suspend</title>
    <g id="suspend" stroke="none" stroke-width="1" fill="none" fill-rule="evenodd">
        <path d="M11.2011719,9.84375 C8.20117188,9.84375 6.33789062,8.04492188 6.33789062,5.14453125 C6.33789062,4.31835938 6.47851562,3.59179688 6.68359375,3.19335938 C6.77148438,3.0234375 6.7890625,2.9296875 6.7890625,2.80078125 C6.7890625,2.59570312 6.61328125,2.3671875 6.34960938,2.3671875 C6.296875,2.3671875 6.17382813,2.38476562 6.00976563,2.44921875 C3.94726562,3.28710938 2.5,5.45507812 2.5,7.79296875 C2.5,11.15625 4.94921875,13.6113281 8.31835938,13.6113281 C10.7265625,13.6113281 12.6953125,12.3398438 13.6035156,10.2597656 C13.6738281,10.1015625 13.6914062,9.96679688 13.6914062,9.89648438 C13.6914062,9.63867188 13.4863281,9.47460938 13.2871094,9.47460938 C13.1816406,9.47460938 13.0996094,9.48632812 12.953125,9.54492188 C12.5136719,9.7265625 11.8457031,9.84375 11.2011719,9.84375 Z M3.47851562,7.7578125 C3.47851562,6.11132812 4.31640625,4.52929688 5.67578125,3.64453125 C5.51171875,4.125 5.42382812,4.65820312 5.42382812,5.24414062 C5.42382812,8.68359375 7.53320313,10.7402344 11.0429688,10.7402344 C11.5644531,10.7402344 12.0097656,10.6816406 12.4257812,10.5351562 C11.6054688,11.8476562 10.046875,12.6445312 8.35351562,12.6445312 C5.53515625,12.6445312 3.47851562,10.5820312 3.47851562,7.7578125 Z" id="Shape" fill="#D6D6D6" fill-rule="nonzero"></path>
    </g>
</svg>