<?xml version="1.0" encoding="UTF-8"?>
<svg width="16px" height="16px" viewBox="0 0 16 16" version="1.1" xmlns="http://www.w3.org/2000/svg" xmlns:xlink="http://www.w3.org/1999/xlink">
    <title>tags</title>
    <g id="tags" stroke="none" stroke-width="1" fill="none" fill-rule="evenodd">
        <path d="M10.1499263,3.01448859 C10.6562087,3.01448859 11.1436514,3.20649736 11.513923,3.55178118 L15.1169112,6.91162207 C15.9247422,7.66493666 15.9689365,8.9304952 15.2156219,9.7383262 L12.1288857,13.0484456 C11.4152192,13.8137591 10.2418103,13.8937035 9.43339622,13.2594781 L9.26969036,13.1161686 L5.56384668,9.50151864 C5.1779471,9.1251153 4.96033459,8.60887024 4.96033459,8.06979886 L4.96033459,5.01448859 C4.96033459,3.90991909 5.85576509,3.01448859 6.96033459,3.01448859 L10.1499263,3.01448859 Z M3.90133459,3.01422293 L3.84233459,4.01422293 L2.96033459,4.01448859 C2.40804984,4.01448859 1.96033459,4.46220384 1.96033459,5.01448859 L1.96033459,8.06979886 C1.96033459,8.33933455 2.06914085,8.59745708 2.26209064,8.78565875 L5.9841799,12.4158025 C6.04858042,12.475857 6.11879894,12.5257746 6.19286974,12.565624 L7.26090543,13.5943364 C6.64891735,13.784283 5.96135976,13.6748233 5.43128459,13.2578192 L5.26969036,13.1161686 L1.56384668,9.50151864 C1.1779471,9.1251153 0.960334588,8.60887024 0.960334588,8.06979886 L0.960334588,5.01448859 C0.960334588,3.90991909 1.85576509,3.01448859 2.96033459,3.01448859 L3.90133459,3.01422293 Z M10.1499263,4.01448859 L6.96033459,4.01448859 C6.40804984,4.01448859 5.96033459,4.46220384 5.96033459,5.01448859 L5.96033459,8.06979886 C5.96033459,8.33933455 6.06914085,8.59745708 6.26209064,8.78565875 L9.9841799,12.4158025 C10.3880954,12.7924598 11.0208747,12.7703627 11.397532,12.3664472 L14.4842682,9.05632784 C14.8609255,8.65241234 14.8388284,8.01963307 14.4349129,7.64297577 L10.8319246,4.28313489 C10.6467888,4.11049297 10.4030675,4.01448859 10.1499263,4.01448859 Z M9.63264302,6.27087019 C10.0365585,6.64752748 10.0586557,7.28030675 9.68199836,7.68422225 C9.30534107,8.08813774 8.67256179,8.11023488 8.2686463,7.73357759 C7.8647308,7.3569203 7.84263366,6.72414102 8.21929096,6.32022553 C8.59594825,5.91631003 9.22872752,5.89421289 9.63264302,6.27087019 Z" id="Shape" fill="#D6D6D6" fill-rule="nonzero"></path>
    </g>
</svg>