<?xml version="1.0" encoding="UTF-8"?>
<svg width="16px" height="16px" viewBox="0 0 16 16" version="1.1" xmlns="http://www.w3.org/2000/svg" xmlns:xlink="http://www.w3.org/1999/xlink">
    <title>vagrant_init</title>
    <g id="vagrant_init" stroke="none" stroke-width="1" fill="none" fill-rule="evenodd">
        <path d="M11.5,9 C11.7761424,9 12,9.22385763 12,9.5 L11.999,10.999 L13.5,11 C13.7761424,11 14,11.2238576 14,11.5 C14,11.7761424 13.7761424,12 13.5,12 L11.999,11.999 L12,13.5 C12,13.7761424 11.7761424,14 11.5,14 C11.2238576,14 11,13.7761424 11,13.5 L10.999,11.999 L9.5,12 C9.22385763,12 9,11.7761424 9,11.5 C9,11.2238576 9.22385763,11 9.5,11 L10.999,10.999 L11,9.5 C11,9.22385763 11.2238576,9 11.5,9 Z M2.59486741,2.50087812 L3.31998662,2.50393782 L4.04644765,2.50286146 C4.06556079,2.54437281 4.09693072,2.57009342 4.1320648,2.59048201 L4.24026682,2.64611045 L6.22654001,3.8141024 L6.36623018,3.88666638 C6.4116861,3.91295317 6.45276192,3.94553012 6.47963978,3.99697134 C6.48312394,4.02150982 6.49248142,4.04679491 6.48929589,4.07043747 C6.40979055,4.65675069 6.57777281,5.18438736 6.80300273,5.70613366 L6.88977587,5.9016155 C7.27174,6.74299179 7.62189867,7.5987527 7.98554604,8.44834167 C8.02048725,8.38398414 8.06075425,8.32191622 8.08957328,8.25492069 L8.77946025,6.630927 L9.13795879,5.82521272 C9.3873753,5.28442041 9.58363338,4.74442447 9.50329847,4.13877689 C9.48493194,4.00030618 9.55292295,3.93261382 9.66605879,3.87054589 C9.92637576,3.72774486 10.1824619,3.57668139 10.4351137,3.42064053 C10.9383268,3.10985293 11.4730468,2.85132783 11.9533639,2.50286146 L12.6797254,2.50389427 L13.3562384,2.50022345 C13.4630032,2.49873024 13.5068539,2.50833658 13.499139,2.63506067 C13.4847046,2.8720835 13.4950078,3.11059954 13.4950078,3.34846852 L13.4950078,4.4924695 C13.4783833,4.48505321 13.4625055,4.4863971 13.4473742,4.49650118 L11.9957226,8.08384835 C11.8405435,8.02953157 11.6737205,8 11.5,8 C10.6715729,8 10,8.67157288 10,9.5 L10,9.999 L9.5,10 C8.67157288,10 8,10.6715729 8,11.5 C8,12.3284271 8.67157288,13 9.5,13 L9.51463398,12.9998001 L8.02735603,13.8429255 C7.97079309,13.8614413 7.92603848,13.8438692 7.88445904,13.818334 L7.80297575,13.7649797 C7.22231462,13.4316943 6.64508788,13.0923366 6.06183851,12.76373 C5.93083388,12.6899652 5.85000123,12.5956439 5.79380661,12.4583677 C5.08388292,10.7232531 4.37147055,8.98918376 3.65646994,7.25620942 L2.50485357,4.4924695 L2.50485357,3.39819255 L2.50794323,2.88935685 C2.5073312,2.80461235 2.50533471,2.71994159 2.50072234,2.63540909 C2.49499836,2.53063524 2.52300994,2.50546491 2.59486741,2.50087812 L2.59486741,2.50087812 Z" id="Shape" fill="#D6D6D6"></path>
    </g>
</svg>