<svg height="16" viewBox="0 0 16 16" width="16" xmlns="http://www.w3.org/2000/svg">
  <g fill="#98FB98" fill-rule="evenodd">
    <path
      d="m13 2c1.1045695 0 2 .8954305 2 2v3.33182855c-.1788379-.21024314-.3700663-.44174696-.5736851-.69451146-.1204092-.14947131-.2636472-.21713378-.4251862-.23005055l-.0011287-2.40726654c0-.55228475-.4477153-1-1-1h-10c-.55228475 0-1 .44771525-1 1v6c0 .5522847.44771525 1 1 1h6.006l.00053451 2.6450549c0 .123269.01646122.2426933.04730536.3561946l-4.55383987-.0012495c-.27614237 0-.5-.2238576-.5-.5s.22385763-.5.5-.5h1.5v-1h-3c-1.1045695 0-2-.8954305-2-2v-6c0-1.1045695.8954305-2 2-2z" />
    <path
      d="m10.2980613 8.99443178 3.1247677-1.37954217c.2526186-.11152768.5478176.00284915.6593452.25546781.0204776.04638316.033781.09561117.039454.14599513l.1171489 1.04045308c.0051451.04569603.0192446.08993027.0414928.13017477l.6573152 1.1890137c.0409396.0740553.0624149.1572893.0624149.2419075v1.655855c0 .1455205-.0633972.2838208-.1736446.3788036l-1.4310495 1.23291c-.0907546.0781889-.2065644.1211965-.3263554.1211965h-2.5689505c-.2761424 0-.5-.2238577-.5-.5v-4.05482838c0-.19804279.1168891-.37742152.2980613-.45740654z"
      fill-opacity=".5" />
  </g>
</svg>