<svg height="16" viewBox="0 0 16 16" width="16" xmlns="http://www.w3.org/2000/svg">
  <path
    d="m4.5 14c-.27614237 0-.5-.2238576-.5-.5s.22385763-.5.5-.5h1.5v-1h-3c-1.1045695 0-2-.8954305-2-2v-6c0-1.1045695.8954305-2 2-2h10c1.1045695 0 2 .8954305 2 2v6c0 1.1045695-.8954305 2-2 2h-3v1h1.5c.2761424 0 .5.2238576.5.5s-.2238576.5-.5.5zm8.5-11h-10c-.55228475 0-1 .44771525-1 1v6c0 .5522847.44771525 1 1 1h10c.5522847 0 1-.4477153 1-1v-6c0-.55228475-.4477153-1-1-1z"
    fill="#FFDB58" fill-rule="evenodd" />
</svg>